LIBERTA-uno.ufo
<glyph name="exclam" format="1">
  <advance width="333.33333333333337"/>
  <unicode hex="0021"/>
  <outline>
    <contour>
      <point x="111" y="56" type="curve" smooth="yes"/>
      <point x="111" y="87"/>
      <point x="136" y="111"/>
      <point x="167" y="111" type="curve" smooth="yes"/>
      <point x="198" y="111"/>
      <point x="222" y="87"/>
      <point x="222" y="56" type="curve" smooth="yes"/>
      <point x="222" y="24"/>
      <point x="198" y="0"/>
      <point x="167" y="0" type="curve" smooth="yes"/>
      <point x="136" y="0"/>
      <point x="111" y="24"/>
    </contour>
    <contour>
      <point x="111" y="222" type="line"/>
      <point x="111" y="333" type="line"/>
      <point x="222" y="333" type="line"/>
      <point x="222" y="222" type="line"/>
    </contour>
    <contour>
      <point x="111" y="389" type="line"/>
      <point x="111" y="420"/>
      <point x="136" y="444"/>
      <point x="167" y="444" type="curve" smooth="yes"/>
      <point x="198" y="444"/>
      <point x="222" y="420"/>
      <point x="222" y="389" type="curve"/>
      <point x="167" y="389" type="line"/>
      <point x="198" y="389"/>
      <point x="222" y="364"/>
      <point x="222" y="333" type="curve"/>
      <point x="111" y="333" type="line"/>
      <point x="111" y="364"/>
      <point x="136" y="389"/>
      <point x="167" y="389" type="curve"/>
    </contour>
    <contour>
      <point x="111" y="444" type="line"/>
      <point x="111" y="556" type="line"/>
      <point x="222" y="556" type="line"/>
      <point x="222" y="444" type="line"/>
    </contour>
    <contour>
      <point x="111" y="611" type="line"/>
      <point x="111" y="611"/>
      <point x="167" y="667"/>
      <point x="167" y="667" type="curve"/>
      <point x="167" y="667"/>
      <point x="222" y="611"/>
      <point x="222" y="611" type="curve"/>
      <point x="167" y="611" type="line"/>
      <point x="167" y="611"/>
      <point x="222" y="556"/>
      <point x="222" y="556" type="curve"/>
      <point x="111" y="556" type="line"/>
      <point x="111" y="556"/>
      <point x="167" y="611"/>
      <point x="167" y="611" type="curve"/>
    </contour>
    <contour>
      <point x="222" y="667" type="line"/>
      <point x="111" y="667" type="line"/>
      <point x="111" y="729"/>
      <point x="160" y="778"/>
      <point x="222" y="778" type="curve"/>
    </contour>
  </outline>
</glyph>
<glyph name="numbersign" format="1">
  <advance width="888.8888888888889"/>
  <unicode hex="0023"/>
  <outline>
    <contour>
      <point x="222" y="56" type="curve" smooth="yes"/>
      <point x="222" y="87"/>
      <point x="247" y="111"/>
      <point x="278" y="111" type="curve" smooth="yes"/>
      <point x="309" y="111"/>
      <point x="333" y="87"/>
      <point x="333" y="56" type="curve" smooth="yes"/>
      <point x="333" y="24"/>
      <point x="309" y="0"/>
      <point x="278" y="0" type="curve" smooth="yes"/>
      <point x="247" y="0"/>
      <point x="222" y="24"/>
    </contour>
    <contour>
      <point x="556" y="56" type="line"/>
      <point x="556" y="56"/>
      <point x="611" y="111"/>
      <point x="611" y="111" type="curve"/>
      <point x="611" y="111"/>
      <point x="667" y="56"/>
      <point x="667" y="56" type="curve"/>
      <point x="611" y="56" type="line"/>
      <point x="611" y="56"/>
      <point x="667" y="0"/>
      <point x="667" y="0" type="curve"/>
      <point x="556" y="0" type="line"/>
      <point x="556" y="0"/>
      <point x="611" y="56"/>
      <point x="611" y="56" type="curve"/>
    </contour>
    <contour>
      <point x="333" y="111" type="line"/>
      <point x="222" y="111" type="line"/>
      <point x="222" y="173"/>
      <point x="271" y="222"/>
      <point x="333" y="222" type="curve"/>
    </contour>
    <contour>
      <point x="556" y="167" type="curve" smooth="yes"/>
      <point x="556" y="198"/>
      <point x="580" y="222"/>
      <point x="611" y="222" type="curve" smooth="yes"/>
      <point x="642" y="222"/>
      <point x="667" y="198"/>
      <point x="667" y="167" type="curve" smooth="yes"/>
      <point x="667" y="136"/>
      <point x="642" y="111"/>
      <point x="611" y="111" type="curve" smooth="yes"/>
      <point x="580" y="111"/>
      <point x="556" y="136"/>
    </contour>
    <contour>
      <point x="111" y="278" type="curve" smooth="yes"/>
      <point x="111" y="309"/>
      <point x="136" y="333"/>
      <point x="167" y="333" type="curve" smooth="yes"/>
      <point x="198" y="333"/>
      <point x="222" y="309"/>
      <point x="222" y="278" type="curve" smooth="yes"/>
      <point x="222" y="247"/>
      <point x="198" y="222"/>
      <point x="167" y="222" type="curve" smooth="yes"/>
      <point x="136" y="222"/>
      <point x="111" y="247"/>
    </contour>
    <contour>
      <point x="222" y="278" type="line"/>
      <point x="222" y="278"/>
      <point x="278" y="333"/>
      <point x="278" y="333" type="curve"/>
      <point x="278" y="333"/>
      <point x="333" y="278"/>
      <point x="333" y="278" type="curve"/>
      <point x="278" y="278" type="line"/>
      <point x="278" y="278"/>
      <point x="333" y="222"/>
      <point x="333" y="222" type="curve"/>
      <point x="222" y="222" type="line"/>
      <point x="222" y="222"/>
      <point x="278" y="278"/>
      <point x="278" y="278" type="curve"/>
    </contour>
    <contour>
      <point x="333" y="278" type="curve" smooth="yes"/>
      <point x="333" y="309"/>
      <point x="358" y="333"/>
      <point x="389" y="333" type="curve" smooth="yes"/>
      <point x="420" y="333"/>
      <point x="444" y="309"/>
      <point x="444" y="278" type="curve" smooth="yes"/>
      <point x="444" y="247"/>
      <point x="420" y="222"/>
      <point x="389" y="222" type="curve" smooth="yes"/>
      <point x="358" y="222"/>
      <point x="333" y="247"/>
    </contour>
    <contour>
      <point x="444" y="278" type="line"/>
      <point x="444" y="278"/>
      <point x="500" y="333"/>
      <point x="500" y="333" type="curve"/>
      <point x="500" y="333"/>
      <point x="556" y="278"/>
      <point x="556" y="278" type="curve"/>
      <point x="500" y="278" type="line"/>
      <point x="500" y="278"/>
      <point x="556" y="222"/>
      <point x="556" y="222" type="curve"/>
      <point x="444" y="222" type="line"/>
      <point x="444" y="222"/>
      <point x="500" y="278"/>
      <point x="500" y="278" type="curve"/>
    </contour>
    <contour>
      <point x="556" y="278" type="line"/>
      <point x="556" y="278"/>
      <point x="611" y="333"/>
      <point x="611" y="333" type="curve"/>
      <point x="611" y="333"/>
      <point x="667" y="278"/>
      <point x="667" y="278" type="curve"/>
      <point x="611" y="278" type="line"/>
      <point x="611" y="278"/>
      <point x="667" y="222"/>
      <point x="667" y="222" type="curve"/>
      <point x="556" y="222" type="line"/>
      <point x="556" y="222"/>
      <point x="611" y="278"/>
      <point x="611" y="278" type="curve"/>
    </contour>
    <contour>
      <point x="667" y="278" type="line"/>
      <point x="667" y="278"/>
      <point x="722" y="333"/>
      <point x="722" y="333" type="curve"/>
      <point x="722" y="333"/>
      <point x="778" y="278"/>
      <point x="778" y="278" type="curve"/>
      <point x="722" y="278" type="line"/>
      <point x="722" y="278"/>
      <point x="778" y="222"/>
      <point x="778" y="222" type="curve"/>
      <point x="667" y="222" type="line"/>
      <point x="667" y="222"/>
      <point x="722" y="278"/>
      <point x="722" y="278" type="curve"/>
    </contour>
    <contour>
      <point x="222" y="333" type="line"/>
      <point x="222" y="444" type="line"/>
      <point x="333" y="444" type="line"/>
      <point x="333" y="333" type="line"/>
    </contour>
    <contour>
      <point x="556" y="389" type="line"/>
      <point x="556" y="389"/>
      <point x="611" y="444"/>
      <point x="611" y="444" type="curve"/>
      <point x="611" y="444"/>
      <point x="667" y="389"/>
      <point x="667" y="389" type="curve"/>
      <point x="611" y="389" type="line"/>
      <point x="611" y="389"/>
      <point x="667" y="333"/>
      <point x="667" y="333" type="curve"/>
      <point x="556" y="333" type="line"/>
      <point x="556" y="333"/>
      <point x="611" y="389"/>
      <point x="611" y="389" type="curve"/>
    </contour>
    <contour>
      <point x="111" y="500" type="line"/>
      <point x="111" y="500"/>
      <point x="167" y="556"/>
      <point x="167" y="556" type="curve"/>
      <point x="167" y="556"/>
      <point x="222" y="500"/>
      <point x="222" y="500" type="curve"/>
      <point x="167" y="500" type="line"/>
      <point x="167" y="500"/>
      <point x="222" y="444"/>
      <point x="222" y="444" type="curve"/>
      <point x="111" y="444" type="line"/>
      <point x="111" y="444"/>
      <point x="167" y="500"/>
      <point x="167" y="500" type="curve"/>
    </contour>
    <contour>
      <point x="222" y="500" type="line"/>
      <point x="222" y="531"/>
      <point x="247" y="556"/>
      <point x="278" y="556" type="curve" smooth="yes"/>
      <point x="309" y="556"/>
      <point x="333" y="531"/>
      <point x="333" y="500" type="curve"/>
      <point x="278" y="500" type="line"/>
      <point x="309" y="500"/>
      <point x="333" y="476"/>
      <point x="333" y="444" type="curve"/>
      <point x="222" y="444" type="line"/>
      <point x="222" y="476"/>
      <point x="247" y="500"/>
      <point x="278" y="500" type="curve"/>
    </contour>
    <contour>
      <point x="444" y="444" type="line"/>
      <point x="333" y="444" type="line"/>
      <point x="333" y="507"/>
      <point x="382" y="556"/>
      <point x="444" y="556" type="curve"/>
    </contour>
    <contour>
      <point x="444" y="500" type="curve" smooth="yes"/>
      <point x="444" y="531"/>
      <point x="469" y="556"/>
      <point x="500" y="556" type="curve" smooth="yes"/>
      <point x="531" y="556"/>
      <point x="556" y="531"/>
      <point x="556" y="500" type="curve" smooth="yes"/>
      <point x="556" y="469"/>
      <point x="531" y="444"/>
      <point x="500" y="444" type="curve" smooth="yes"/>
      <point x="469" y="444"/>
      <point x="444" y="469"/>
    </contour>
    <contour>
      <point x="556" y="500" type="curve" smooth="yes"/>
      <point x="556" y="531"/>
      <point x="580" y="556"/>
      <point x="611" y="556" type="curve" smooth="yes"/>
      <point x="642" y="556"/>
      <point x="667" y="531"/>
      <point x="667" y="500" type="curve" smooth="yes"/>
      <point x="667" y="469"/>
      <point x="642" y="444"/>
      <point x="611" y="444" type="curve" smooth="yes"/>
      <point x="580" y="444"/>
      <point x="556" y="469"/>
    </contour>
    <contour>
      <point x="667" y="500" type="line"/>
      <point x="667" y="500"/>
      <point x="722" y="556"/>
      <point x="722" y="556" type="curve"/>
      <point x="722" y="556"/>
      <point x="778" y="500"/>
      <point x="778" y="500" type="curve"/>
      <point x="722" y="500" type="line"/>
      <point x="722" y="500"/>
      <point x="778" y="444"/>
      <point x="778" y="444" type="curve"/>
      <point x="667" y="444" type="line"/>
      <point x="667" y="444"/>
      <point x="722" y="500"/>
      <point x="722" y="500" type="curve"/>
    </contour>
    <contour>
      <point x="222" y="611" type="line"/>
      <point x="222" y="611"/>
      <point x="278" y="667"/>
      <point x="278" y="667" type="curve"/>
      <point x="278" y="667"/>
      <point x="333" y="611"/>
      <point x="333" y="611" type="curve"/>
      <point x="278" y="611" type="line"/>
      <point x="278" y="611"/>
      <point x="333" y="556"/>
      <point x="333" y="556" type="curve"/>
      <point x="222" y="556" type="line"/>
      <point x="222" y="556"/>
      <point x="278" y="611"/>
      <point x="278" y="611" type="curve"/>
    </contour>
    <contour>
      <point x="556" y="611" type="curve" smooth="yes"/>
      <point x="556" y="642"/>
      <point x="580" y="667"/>
      <point x="611" y="667" type="curve" smooth="yes"/>
      <point x="642" y="667"/>
      <point x="667" y="642"/>
      <point x="667" y="611" type="curve" smooth="yes"/>
      <point x="667" y="580"/>
      <point x="642" y="556"/>
      <point x="611" y="556" type="curve" smooth="yes"/>
      <point x="580" y="556"/>
      <point x="556" y="580"/>
    </contour>
    <contour>
      <point x="333" y="667" type="line"/>
      <point x="222" y="667" type="line"/>
      <point x="222" y="729"/>
      <point x="271" y="778"/>
      <point x="333" y="778" type="curve"/>
    </contour>
    <contour>
      <point x="556" y="722" type="line"/>
      <point x="556" y="722"/>
      <point x="611" y="778"/>
      <point x="611" y="778" type="curve"/>
      <point x="611" y="778"/>
      <point x="667" y="722"/>
      <point x="667" y="722" type="curve"/>
      <point x="611" y="722" type="line"/>
      <point x="611" y="722"/>
      <point x="667" y="667"/>
      <point x="667" y="667" type="curve"/>
      <point x="556" y="667" type="line"/>
      <point x="556" y="667"/>
      <point x="611" y="722"/>
      <point x="611" y="722" type="curve"/>
    </contour>
  </outline>
</glyph>
<glyph name="dollar" format="1">
  <advance width="777.7777777777778"/>
  <unicode hex="0024"/>
  <outline>
    <contour>
      <point x="333" y="-111" type="line"/>
      <point x="333" y="0" type="line"/>
      <point x="444" y="0" type="line"/>
      <point x="444" y="-111" type="line"/>
    </contour>
    <contour>
      <point x="222" y="0" type="line"/>
      <point x="222" y="111" type="line"/>
      <point x="333" y="111" type="line"/>
      <point x="333" y="0" type="line"/>
    </contour>
    <contour>
      <point x="444" y="0" type="line"/>
      <point x="333" y="0" type="line"/>
      <point x="333" y="62"/>
      <point x="382" y="111"/>
      <point x="444" y="111" type="curve"/>
    </contour>
    <contour>
      <point x="444" y="56" type="line"/>
      <point x="444" y="87"/>
      <point x="469" y="111"/>
      <point x="500" y="111" type="curve" smooth="yes"/>
      <point x="531" y="111"/>
      <point x="556" y="87"/>
      <point x="556" y="56" type="curve"/>
      <point x="500" y="56" type="line"/>
      <point x="531" y="56"/>
      <point x="556" y="31"/>
      <point x="556" y="0" type="curve"/>
      <point x="444" y="0" type="line"/>
      <point x="444" y="31"/>
      <point x="469" y="56"/>
      <point x="500" y="56" type="curve"/>
    </contour>
    <contour>
      <point x="556" y="111" type="line"/>
      <point x="556" y="222" type="line"/>
      <point x="667" y="222" type="line"/>
      <point x="667" y="111" type="line"/>
    </contour>
    <contour>
      <point x="222" y="278" type="line"/>
      <point x="222" y="309"/>
      <point x="247" y="333"/>
      <point x="278" y="333" type="curve" smooth="yes"/>
      <point x="309" y="333"/>
      <point x="333" y="309"/>
      <point x="333" y="278" type="curve"/>
      <point x="278" y="278" type="line"/>
      <point x="309" y="278"/>
      <point x="333" y="253"/>
      <point x="333" y="222" type="curve"/>
      <point x="222" y="222" type="line"/>
      <point x="222" y="253"/>
      <point x="247" y="278"/>
      <point x="278" y="278" type="curve"/>
    </contour>
    <contour>
      <point x="333" y="278" type="line"/>
      <point x="333" y="309"/>
      <point x="358" y="333"/>
      <point x="389" y="333" type="curve" smooth="yes"/>
      <point x="420" y="333"/>
      <point x="444" y="309"/>
      <point x="444" y="278" type="curve"/>
      <point x="389" y="278" type="line"/>
      <point x="420" y="278"/>
      <point x="444" y="253"/>
      <point x="444" y="222" type="curve"/>
      <point x="333" y="222" type="line"/>
      <point x="333" y="253"/>
      <point x="358" y="278"/>
      <point x="389" y="278" type="curve"/>
    </contour>
    <contour>
      <point x="444" y="222" type="line"/>
      <point x="444" y="333" type="line"/>
      <point x="556" y="333" type="line"/>
      <point x="556" y="222" type="line"/>
    </contour>
    <contour>
      <point x="111" y="389" type="curve" smooth="yes"/>
      <point x="111" y="420"/>
      <point x="136" y="444"/>
      <point x="167" y="444" type="curve" smooth="yes"/>
      <point x="198" y="444"/>
      <point x="222" y="420"/>
      <point x="222" y="389" type="curve" smooth="yes"/>
      <point x="222" y="358"/>
      <point x="198" y="333"/>
      <point x="167" y="333" type="curve" smooth="yes"/>
      <point x="136" y="333"/>
      <point x="111" y="358"/>
    </contour>
    <contour>
      <point x="222" y="500" type="line"/>
      <point x="222" y="531"/>
      <point x="247" y="556"/>
      <point x="278" y="556" type="curve" smooth="yes"/>
      <point x="309" y="556"/>
      <point x="333" y="531"/>
      <point x="333" y="500" type="curve"/>
      <point x="278" y="500" type="line"/>
      <point x="309" y="500"/>
      <point x="333" y="476"/>
      <point x="333" y="444" type="curve"/>
      <point x="222" y="444" type="line"/>
      <point x="222" y="476"/>
      <point x="247" y="500"/>
      <point x="278" y="500" type="curve"/>
    </contour>
    <contour>
      <point x="333" y="500" type="line"/>
      <point x="333" y="531"/>
      <point x="358" y="556"/>
      <point x="389" y="556" type="curve" smooth="yes"/>
      <point x="420" y="556"/>
      <point x="444" y="531"/>
      <point x="444" y="500" type="curve"/>
      <point x="389" y="500" type="line"/>
      <point x="420" y="500"/>
      <point x="444" y="476"/>
      <point x="444" y="444" type="curve"/>
      <point x="333" y="444" type="line"/>
      <point x="333" y="476"/>
      <point x="358" y="500"/>
      <point x="389" y="500" type="curve"/>
    </contour>
    <contour>
      <point x="444" y="444" type="line"/>
      <point x="444" y="556" type="line"/>
      <point x="556" y="556" type="line"/>
      <point x="556" y="444" type="line"/>
    </contour>
    <contour>
      <point x="333" y="611" type="line"/>
      <point x="333" y="642"/>
      <point x="358" y="667"/>
      <point x="389" y="667" type="curve" smooth="yes"/>
      <point x="420" y="667"/>
      <point x="444" y="642"/>
      <point x="444" y="611" type="curve"/>
      <point x="389" y="611" type="line"/>
      <point x="420" y="611"/>
      <point x="444" y="587"/>
      <point x="444" y="556" type="curve"/>
      <point x="333" y="556" type="line"/>
      <point x="333" y="587"/>
      <point x="358" y="611"/>
      <point x="389" y="611" type="curve"/>
    </contour>
  </outline>
</glyph>
<glyph name="percent" format="1">
  <advance width="1222.2222222222222"/>
  <unicode hex="0025"/>
  <outline>
    <contour>
      <point x="222" y="56" type="line"/>
      <point x="222" y="87"/>
      <point x="247" y="111"/>
      <point x="278" y="111" type="curve" smooth="yes"/>
      <point x="309" y="111"/>
      <point x="333" y="87"/>
      <point x="333" y="56" type="curve"/>
      <point x="278" y="56" type="line"/>
      <point x="309" y="56"/>
      <point x="333" y="31"/>
      <point x="333" y="0" type="curve"/>
      <point x="222" y="0" type="line"/>
      <point x="222" y="31"/>
      <point x="247" y="56"/>
      <point x="278" y="56" type="curve"/>
    </contour>
    <contour>
      <point x="778" y="56" type="curve" smooth="yes"/>
      <point x="778" y="87"/>
      <point x="802" y="111"/>
      <point x="833" y="111" type="curve" smooth="yes"/>
      <point x="864" y="111"/>
      <point x="889" y="87"/>
      <point x="889" y="56" type="curve" smooth="yes"/>
      <point x="889" y="24"/>
      <point x="864" y="0"/>
      <point x="833" y="0" type="curve" smooth="yes"/>
      <point x="802" y="0"/>
      <point x="778" y="24"/>
    </contour>
    <contour>
      <point x="889" y="56" type="line"/>
      <point x="889" y="87"/>
      <point x="913" y="111"/>
      <point x="944" y="111" type="curve" smooth="yes"/>
      <point x="976" y="111"/>
      <point x="1000" y="87"/>
      <point x="1000" y="56" type="curve"/>
      <point x="944" y="56" type="line"/>
      <point x="976" y="56"/>
      <point x="1000" y="31"/>
      <point x="1000" y="0" type="curve"/>
      <point x="889" y="0" type="line"/>
      <point x="889" y="31"/>
      <point x="913" y="56"/>
      <point x="944" y="56" type="curve"/>
    </contour>
    <contour>
      <point x="1000" y="56" type="line"/>
      <point x="1000" y="56"/>
      <point x="1056" y="111"/>
      <point x="1056" y="111" type="curve"/>
      <point x="1056" y="111"/>
      <point x="1111" y="56"/>
      <point x="1111" y="56" type="curve"/>
      <point x="1056" y="56" type="line"/>
      <point x="1056" y="56"/>
      <point x="1111" y="0"/>
      <point x="1111" y="0" type="curve"/>
      <point x="1000" y="0" type="line"/>
      <point x="1000" y="0"/>
      <point x="1056" y="56"/>
      <point x="1056" y="56" type="curve"/>
    </contour>
    <contour>
      <point x="333" y="167" type="curve" smooth="yes"/>
      <point x="333" y="198"/>
      <point x="358" y="222"/>
      <point x="389" y="222" type="curve" smooth="yes"/>
      <point x="420" y="222"/>
      <point x="444" y="198"/>
      <point x="444" y="167" type="curve" smooth="yes"/>
      <point x="444" y="136"/>
      <point x="420" y="111"/>
      <point x="389" y="111" type="curve" smooth="yes"/>
      <point x="358" y="111"/>
      <point x="333" y="136"/>
    </contour>
    <contour>
      <point x="778" y="167" type="curve" smooth="yes"/>
      <point x="778" y="198"/>
      <point x="802" y="222"/>
      <point x="833" y="222" type="curve" smooth="yes"/>
      <point x="864" y="222"/>
      <point x="889" y="198"/>
      <point x="889" y="167" type="curve" smooth="yes"/>
      <point x="889" y="136"/>
      <point x="864" y="111"/>
      <point x="833" y="111" type="curve" smooth="yes"/>
      <point x="802" y="111"/>
      <point x="778" y="136"/>
    </contour>
    <contour>
      <point x="1111" y="111" type="line"/>
      <point x="1000" y="111" type="line"/>
      <point x="1000" y="173"/>
      <point x="1049" y="222"/>
      <point x="1111" y="222" type="curve"/>
    </contour>
    <contour>
      <point x="556" y="222" type="line"/>
      <point x="444" y="222" type="line"/>
      <point x="444" y="284"/>
      <point x="493" y="333"/>
      <point x="556" y="333" type="curve"/>
    </contour>
    <contour>
      <point x="778" y="278" type="line"/>
      <point x="778" y="309"/>
      <point x="802" y="333"/>
      <point x="833" y="333" type="curve" smooth="yes"/>
      <point x="864" y="333"/>
      <point x="889" y="309"/>
      <point x="889" y="278" type="curve"/>
      <point x="833" y="278" type="line"/>
      <point x="864" y="278"/>
      <point x="889" y="253"/>
      <point x="889" y="222" type="curve"/>
      <point x="778" y="222" type="line"/>
      <point x="778" y="253"/>
      <point x="802" y="278"/>
      <point x="833" y="278" type="curve"/>
    </contour>
    <contour>
      <point x="1000" y="222" type="line"/>
      <point x="889" y="222" type="line"/>
      <point x="889" y="284"/>
      <point x="938" y="333"/>
      <point x="1000" y="333" type="curve"/>
    </contour>
    <contour>
      <point x="1000" y="222" type="line"/>
      <point x="1000" y="333" type="line"/>
      <point x="1111" y="333" type="line"/>
      <point x="1111" y="222" type="line"/>
    </contour>
    <contour>
      <point x="556" y="389" type="line"/>
      <point x="556" y="389"/>
      <point x="611" y="444"/>
      <point x="611" y="444" type="curve"/>
      <point x="611" y="444"/>
      <point x="667" y="389"/>
      <point x="667" y="389" type="curve"/>
      <point x="611" y="389" type="line"/>
      <point x="611" y="389"/>
      <point x="667" y="333"/>
      <point x="667" y="333" type="curve"/>
      <point x="556" y="333" type="line"/>
      <point x="556" y="333"/>
      <point x="611" y="389"/>
      <point x="611" y="389" type="curve"/>
    </contour>
    <contour>
      <point x="111" y="500" type="curve" smooth="yes"/>
      <point x="111" y="531"/>
      <point x="136" y="556"/>
      <point x="167" y="556" type="curve" smooth="yes"/>
      <point x="198" y="556"/>
      <point x="222" y="531"/>
      <point x="222" y="500" type="curve" smooth="yes"/>
      <point x="222" y="469"/>
      <point x="198" y="444"/>
      <point x="167" y="444" type="curve" smooth="yes"/>
      <point x="136" y="444"/>
      <point x="111" y="469"/>
    </contour>
    <contour>
      <point x="222" y="500" type="line"/>
      <point x="222" y="531"/>
      <point x="247" y="556"/>
      <point x="278" y="556" type="curve" smooth="yes"/>
      <point x="309" y="556"/>
      <point x="333" y="531"/>
      <point x="333" y="500" type="curve"/>
      <point x="278" y="500" type="line"/>
      <point x="309" y="500"/>
      <point x="333" y="476"/>
      <point x="333" y="444" type="curve"/>
      <point x="222" y="444" type="line"/>
      <point x="222" y="476"/>
      <point x="247" y="500"/>
      <point x="278" y="500" type="curve"/>
    </contour>
    <contour>
      <point x="333" y="500" type="line"/>
      <point x="333" y="531"/>
      <point x="358" y="556"/>
      <point x="389" y="556" type="curve" smooth="yes"/>
      <point x="420" y="556"/>
      <point x="444" y="531"/>
      <point x="444" y="500" type="curve"/>
      <point x="389" y="500" type="line"/>
      <point x="420" y="500"/>
      <point x="444" y="476"/>
      <point x="444" y="444" type="curve"/>
      <point x="333" y="444" type="line"/>
      <point x="333" y="476"/>
      <point x="358" y="500"/>
      <point x="389" y="500" type="curve"/>
    </contour>
    <contour>
      <point x="667" y="500" type="curve" smooth="yes"/>
      <point x="667" y="531"/>
      <point x="691" y="556"/>
      <point x="722" y="556" type="curve" smooth="yes"/>
      <point x="753" y="556"/>
      <point x="778" y="531"/>
      <point x="778" y="500" type="curve" smooth="yes"/>
      <point x="778" y="469"/>
      <point x="753" y="444"/>
      <point x="722" y="444" type="curve" smooth="yes"/>
      <point x="691" y="444"/>
      <point x="667" y="469"/>
    </contour>
    <contour>
      <point x="111" y="611" type="curve" smooth="yes"/>
      <point x="111" y="642"/>
      <point x="136" y="667"/>
      <point x="167" y="667" type="curve" smooth="yes"/>
      <point x="198" y="667"/>
      <point x="222" y="642"/>
      <point x="222" y="611" type="curve" smooth="yes"/>
      <point x="222" y="580"/>
      <point x="198" y="556"/>
      <point x="167" y="556" type="curve" smooth="yes"/>
      <point x="136" y="556"/>
      <point x="111" y="580"/>
    </contour>
    <contour>
      <point x="333" y="556" type="line"/>
      <point x="333" y="667" type="line"/>
      <point x="444" y="667" type="line"/>
      <point x="444" y="556" type="line"/>
    </contour>
    <contour>
      <point x="778" y="611" type="line"/>
      <point x="778" y="611"/>
      <point x="833" y="667"/>
      <point x="833" y="667" type="curve"/>
      <point x="833" y="667"/>
      <point x="889" y="611"/>
      <point x="889" y="611" type="curve"/>
      <point x="833" y="611" type="line"/>
      <point x="833" y="611"/>
      <point x="889" y="556"/>
      <point x="889" y="556" type="curve"/>
      <point x="778" y="556" type="line"/>
      <point x="778" y="556"/>
      <point x="833" y="611"/>
      <point x="833" y="611" type="curve"/>
    </contour>
    <contour>
      <point x="111" y="722" type="curve" smooth="yes"/>
      <point x="111" y="753"/>
      <point x="136" y="778"/>
      <point x="167" y="778" type="curve" smooth="yes"/>
      <point x="198" y="778"/>
      <point x="222" y="753"/>
      <point x="222" y="722" type="curve" smooth="yes"/>
      <point x="222" y="691"/>
      <point x="198" y="667"/>
      <point x="167" y="667" type="curve" smooth="yes"/>
      <point x="136" y="667"/>
      <point x="111" y="691"/>
    </contour>
    <contour>
      <point x="333" y="667" type="line"/>
      <point x="222" y="667" type="line"/>
      <point x="222" y="729"/>
      <point x="271" y="778"/>
      <point x="333" y="778" type="curve"/>
    </contour>
    <contour>
      <point x="333" y="722" type="curve" smooth="yes"/>
      <point x="333" y="753"/>
      <point x="358" y="778"/>
      <point x="389" y="778" type="curve" smooth="yes"/>
      <point x="420" y="778"/>
      <point x="444" y="753"/>
      <point x="444" y="722" type="curve" smooth="yes"/>
      <point x="444" y="691"/>
      <point x="420" y="667"/>
      <point x="389" y="667" type="curve" smooth="yes"/>
      <point x="358" y="667"/>
      <point x="333" y="691"/>
    </contour>
    <contour>
      <point x="889" y="722" type="curve" smooth="yes"/>
      <point x="889" y="753"/>
      <point x="913" y="778"/>
      <point x="944" y="778" type="curve" smooth="yes"/>
      <point x="976" y="778"/>
      <point x="1000" y="753"/>
      <point x="1000" y="722" type="curve" smooth="yes"/>
      <point x="1000" y="691"/>
      <point x="976" y="667"/>
      <point x="944" y="667" type="curve" smooth="yes"/>
      <point x="913" y="667"/>
      <point x="889" y="691"/>
    </contour>
  </outline>
</glyph>
<glyph name="quotesingle" format="1">
  <advance width="333.33333333333337"/>
  <unicode hex="0027"/>
  <outline>
    <contour>
      <point x="111" y="500" type="curve" smooth="yes"/>
      <point x="111" y="531"/>
      <point x="136" y="556"/>
      <point x="167" y="556" type="curve" smooth="yes"/>
      <point x="198" y="556"/>
      <point x="222" y="531"/>
      <point x="222" y="500" type="curve" smooth="yes"/>
      <point x="222" y="469"/>
      <point x="198" y="444"/>
      <point x="167" y="444" type="curve" smooth="yes"/>
      <point x="136" y="444"/>
      <point x="111" y="469"/>
    </contour>
    <contour>
      <point x="111" y="611" type="curve" smooth="yes"/>
      <point x="111" y="642"/>
      <point x="136" y="667"/>
      <point x="167" y="667" type="curve" smooth="yes"/>
      <point x="198" y="667"/>
      <point x="222" y="642"/>
      <point x="222" y="611" type="curve" smooth="yes"/>
      <point x="222" y="580"/>
      <point x="198" y="556"/>
      <point x="167" y="556" type="curve" smooth="yes"/>
      <point x="136" y="556"/>
      <point x="111" y="580"/>
    </contour>
    <contour>
      <point x="111" y="722" type="curve" smooth="yes"/>
      <point x="111" y="753"/>
      <point x="136" y="778"/>
      <point x="167" y="778" type="curve" smooth="yes"/>
      <point x="198" y="778"/>
      <point x="222" y="753"/>
      <point x="222" y="722" type="curve" smooth="yes"/>
      <point x="222" y="691"/>
      <point x="198" y="667"/>
      <point x="167" y="667" type="curve" smooth="yes"/>
      <point x="136" y="667"/>
      <point x="111" y="691"/>
    </contour>
  </outline>
</glyph>
<glyph name="parenleft" format="1">
  <advance width="555.5555555555555"/>
  <unicode hex="0028"/>
  <outline>
    <contour>
      <point x="333" y="0" type="line"/>
      <point x="222" y="0" type="line"/>
      <point x="222" y="62"/>
      <point x="271" y="111"/>
      <point x="333" y="111" type="curve"/>
    </contour>
    <contour>
      <point x="444" y="0" type="line"/>
      <point x="333" y="0" type="line"/>
      <point x="333" y="62"/>
      <point x="382" y="111"/>
      <point x="444" y="111" type="curve"/>
    </contour>
    <contour>
      <point x="222" y="111" type="line"/>
      <point x="111" y="111" type="line"/>
      <point x="111" y="173"/>
      <point x="160" y="222"/>
      <point x="222" y="222" type="curve"/>
    </contour>
    <contour>
      <point x="111" y="278" type="curve" smooth="yes"/>
      <point x="111" y="309"/>
      <point x="136" y="333"/>
      <point x="167" y="333" type="curve" smooth="yes"/>
      <point x="198" y="333"/>
      <point x="222" y="309"/>
      <point x="222" y="278" type="curve" smooth="yes"/>
      <point x="222" y="247"/>
      <point x="198" y="222"/>
      <point x="167" y="222" type="curve" smooth="yes"/>
      <point x="136" y="222"/>
      <point x="111" y="247"/>
    </contour>
    <contour>
      <point x="111" y="389" type="line"/>
      <point x="111" y="420"/>
      <point x="136" y="444"/>
      <point x="167" y="444" type="curve" smooth="yes"/>
      <point x="198" y="444"/>
      <point x="222" y="420"/>
      <point x="222" y="389" type="curve"/>
      <point x="167" y="389" type="line"/>
      <point x="198" y="389"/>
      <point x="222" y="364"/>
      <point x="222" y="333" type="curve"/>
      <point x="111" y="333" type="line"/>
      <point x="111" y="364"/>
      <point x="136" y="389"/>
      <point x="167" y="389" type="curve"/>
    </contour>
    <contour>
      <point x="222" y="444" type="line"/>
      <point x="111" y="444" type="line"/>
      <point x="111" y="507"/>
      <point x="160" y="556"/>
      <point x="222" y="556" type="curve"/>
    </contour>
    <contour>
      <point x="111" y="611" type="curve" smooth="yes"/>
      <point x="111" y="642"/>
      <point x="136" y="667"/>
      <point x="167" y="667" type="curve" smooth="yes"/>
      <point x="198" y="667"/>
      <point x="222" y="642"/>
      <point x="222" y="611" type="curve" smooth="yes"/>
      <point x="222" y="580"/>
      <point x="198" y="556"/>
      <point x="167" y="556" type="curve" smooth="yes"/>
      <point x="136" y="556"/>
      <point x="111" y="580"/>
    </contour>
    <contour>
      <point x="222" y="722" type="line"/>
      <point x="222" y="722"/>
      <point x="278" y="778"/>
      <point x="278" y="778" type="curve"/>
      <point x="278" y="778"/>
      <point x="333" y="722"/>
      <point x="333" y="722" type="curve"/>
      <point x="278" y="722" type="line"/>
      <point x="278" y="722"/>
      <point x="333" y="667"/>
      <point x="333" y="667" type="curve"/>
      <point x="222" y="667" type="line"/>
      <point x="222" y="667"/>
      <point x="278" y="722"/>
      <point x="278" y="722" type="curve"/>
    </contour>
    <contour>
      <point x="444" y="667" type="line"/>
      <point x="333" y="667" type="line"/>
      <point x="333" y="729"/>
      <point x="382" y="778"/>
      <point x="444" y="778" type="curve"/>
    </contour>
  </outline>
</glyph>
<glyph name="parenright" format="1">
  <advance width="555.5555555555555"/>
  <unicode hex="0029"/>
  <outline>
    <contour>
      <point x="222" y="0" type="line"/>
      <point x="111" y="0" type="line"/>
      <point x="111" y="62"/>
      <point x="160" y="111"/>
      <point x="222" y="111" type="curve"/>
    </contour>
    <contour>
      <point x="333" y="0" type="line"/>
      <point x="222" y="0" type="line"/>
      <point x="222" y="62"/>
      <point x="271" y="111"/>
      <point x="333" y="111" type="curve"/>
    </contour>
    <contour>
      <point x="333" y="167" type="line"/>
      <point x="333" y="167"/>
      <point x="389" y="222"/>
      <point x="389" y="222" type="curve"/>
      <point x="389" y="222"/>
      <point x="444" y="167"/>
      <point x="444" y="167" type="curve"/>
      <point x="389" y="167" type="line"/>
      <point x="389" y="167"/>
      <point x="444" y="111"/>
      <point x="444" y="111" type="curve"/>
      <point x="333" y="111" type="line"/>
      <point x="333" y="111"/>
      <point x="389" y="167"/>
      <point x="389" y="167" type="curve"/>
    </contour>
    <contour>
      <point x="444" y="222" type="line"/>
      <point x="333" y="222" type="line"/>
      <point x="333" y="284"/>
      <point x="382" y="333"/>
      <point x="444" y="333" type="curve"/>
    </contour>
    <contour>
      <point x="333" y="389" type="curve" smooth="yes"/>
      <point x="333" y="420"/>
      <point x="358" y="444"/>
      <point x="389" y="444" type="curve" smooth="yes"/>
      <point x="420" y="444"/>
      <point x="444" y="420"/>
      <point x="444" y="389" type="curve" smooth="yes"/>
      <point x="444" y="358"/>
      <point x="420" y="333"/>
      <point x="389" y="333" type="curve" smooth="yes"/>
      <point x="358" y="333"/>
      <point x="333" y="358"/>
    </contour>
    <contour>
      <point x="333" y="444" type="line"/>
      <point x="333" y="556" type="line"/>
      <point x="444" y="556" type="line"/>
      <point x="444" y="444" type="line"/>
    </contour>
    <contour>
      <point x="444" y="556" type="line"/>
      <point x="333" y="556" type="line"/>
      <point x="333" y="618"/>
      <point x="382" y="667"/>
      <point x="444" y="667" type="curve"/>
    </contour>
    <contour>
      <point x="111" y="722" type="curve" smooth="yes"/>
      <point x="111" y="753"/>
      <point x="136" y="778"/>
      <point x="167" y="778" type="curve" smooth="yes"/>
      <point x="198" y="778"/>
      <point x="222" y="753"/>
      <point x="222" y="722" type="curve" smooth="yes"/>
      <point x="222" y="691"/>
      <point x="198" y="667"/>
      <point x="167" y="667" type="curve" smooth="yes"/>
      <point x="136" y="667"/>
      <point x="111" y="691"/>
    </contour>
    <contour>
      <point x="222" y="722" type="line"/>
      <point x="222" y="722"/>
      <point x="278" y="778"/>
      <point x="278" y="778" type="curve"/>
      <point x="278" y="778"/>
      <point x="333" y="722"/>
      <point x="333" y="722" type="curve"/>
      <point x="278" y="722" type="line"/>
      <point x="278" y="722"/>
      <point x="333" y="667"/>
      <point x="333" y="667" type="curve"/>
      <point x="222" y="667" type="line"/>
      <point x="222" y="667"/>
      <point x="278" y="722"/>
      <point x="278" y="722" type="curve"/>
    </contour>
  </outline>
</glyph>
<glyph name="plus" format="1">
  <advance width="555.5555555555555"/>
  <unicode hex="002B"/>
  <outline>
    <contour>
      <point x="222" y="111" type="line"/>
      <point x="222" y="222" type="line"/>
      <point x="333" y="222" type="line"/>
      <point x="333" y="111" type="line"/>
    </contour>
    <contour>
      <point x="111" y="222" type="line"/>
      <point x="111" y="333" type="line"/>
      <point x="222" y="333" type="line"/>
      <point x="222" y="222" type="line"/>
    </contour>
    <contour>
      <point x="222" y="222" type="line"/>
      <point x="222" y="333" type="line"/>
      <point x="333" y="333" type="line"/>
      <point x="333" y="222" type="line"/>
    </contour>
    <contour>
      <point x="333" y="278" type="line"/>
      <point x="333" y="309"/>
      <point x="358" y="333"/>
      <point x="389" y="333" type="curve" smooth="yes"/>
      <point x="420" y="333"/>
      <point x="444" y="309"/>
      <point x="444" y="278" type="curve"/>
      <point x="389" y="278" type="line"/>
      <point x="420" y="278"/>
      <point x="444" y="253"/>
      <point x="444" y="222" type="curve"/>
      <point x="333" y="222" type="line"/>
      <point x="333" y="253"/>
      <point x="358" y="278"/>
      <point x="389" y="278" type="curve"/>
    </contour>
    <contour>
      <point x="222" y="389" type="line"/>
      <point x="222" y="420"/>
      <point x="247" y="444"/>
      <point x="278" y="444" type="curve" smooth="yes"/>
      <point x="309" y="444"/>
      <point x="333" y="420"/>
      <point x="333" y="389" type="curve"/>
      <point x="278" y="389" type="line"/>
      <point x="309" y="389"/>
      <point x="333" y="364"/>
      <point x="333" y="333" type="curve"/>
      <point x="222" y="333" type="line"/>
      <point x="222" y="364"/>
      <point x="247" y="389"/>
      <point x="278" y="389" type="curve"/>
    </contour>
  </outline>
</glyph>
<glyph name="comma" format="1">
  <advance width="444.44444444444446"/>
  <unicode hex="002C"/>
  <outline>
    <contour>
      <point x="111" y="-222" type="line"/>
      <point x="111" y="-111" type="line"/>
      <point x="222" y="-111" type="line"/>
      <point x="222" y="-222" type="line"/>
    </contour>
    <contour>
      <point x="222" y="-167" type="line"/>
      <point x="222" y="-136"/>
      <point x="247" y="-111"/>
      <point x="278" y="-111" type="curve" smooth="yes"/>
      <point x="309" y="-111"/>
      <point x="333" y="-136"/>
      <point x="333" y="-167" type="curve"/>
      <point x="278" y="-167" type="line"/>
      <point x="309" y="-167"/>
      <point x="333" y="-191"/>
      <point x="333" y="-222" type="curve"/>
      <point x="222" y="-222" type="line"/>
      <point x="222" y="-191"/>
      <point x="247" y="-167"/>
      <point x="278" y="-167" type="curve"/>
    </contour>
    <contour>
      <point x="222" y="-56" type="line"/>
      <point x="222" y="-56"/>
      <point x="278" y="0"/>
      <point x="278" y="0" type="curve"/>
      <point x="278" y="0"/>
      <point x="333" y="-56"/>
      <point x="333" y="-56" type="curve"/>
      <point x="278" y="-56" type="line"/>
      <point x="278" y="-56"/>
      <point x="333" y="-111"/>
      <point x="333" y="-111" type="curve"/>
      <point x="222" y="-111" type="line"/>
      <point x="222" y="-111"/>
      <point x="278" y="-56"/>
      <point x="278" y="-56" type="curve"/>
    </contour>
    <contour>
      <point x="333" y="0" type="line"/>
      <point x="222" y="0" type="line"/>
      <point x="222" y="62"/>
      <point x="271" y="111"/>
      <point x="333" y="111" type="curve"/>
    </contour>
  </outline>
</glyph>
<glyph name="hyphen" format="1">
  <advance width="555.5555555555555"/>
  <unicode hex="002D"/>
  <outline>
    <contour>
      <point x="222" y="222" type="line"/>
      <point x="111" y="222" type="line"/>
      <point x="111" y="284"/>
      <point x="160" y="333"/>
      <point x="222" y="333" type="curve"/>
    </contour>
    <contour>
      <point x="222" y="278" type="line"/>
      <point x="222" y="278"/>
      <point x="278" y="333"/>
      <point x="278" y="333" type="curve"/>
      <point x="278" y="333"/>
      <point x="333" y="278"/>
      <point x="333" y="278" type="curve"/>
      <point x="278" y="278" type="line"/>
      <point x="278" y="278"/>
      <point x="333" y="222"/>
      <point x="333" y="222" type="curve"/>
      <point x="222" y="222" type="line"/>
      <point x="222" y="222"/>
      <point x="278" y="278"/>
      <point x="278" y="278" type="curve"/>
    </contour>
    <contour>
      <point x="333" y="278" type="curve" smooth="yes"/>
      <point x="333" y="309"/>
      <point x="358" y="333"/>
      <point x="389" y="333" type="curve" smooth="yes"/>
      <point x="420" y="333"/>
      <point x="444" y="309"/>
      <point x="444" y="278" type="curve" smooth="yes"/>
      <point x="444" y="247"/>
      <point x="420" y="222"/>
      <point x="389" y="222" type="curve" smooth="yes"/>
      <point x="358" y="222"/>
      <point x="333" y="247"/>
    </contour>
  </outline>
</glyph>
<glyph name="period" format="1">
  <advance width="333.33333333333337"/>
  <unicode hex="002E"/>
  <outline>
    <contour>
      <point x="222" y="0" type="line"/>
      <point x="111" y="0" type="line"/>
      <point x="111" y="62"/>
      <point x="160" y="111"/>
      <point x="222" y="111" type="curve"/>
    </contour>
  </outline>
</glyph>
<glyph name="slash" format="1">
  <advance width="1000.0"/>
  <unicode hex="002F"/>
  <outline>
    <contour>
      <point x="111" y="56" type="line"/>
      <point x="111" y="87"/>
      <point x="136" y="111"/>
      <point x="167" y="111" type="curve" smooth="yes"/>
      <point x="198" y="111"/>
      <point x="222" y="87"/>
      <point x="222" y="56" type="curve"/>
      <point x="167" y="56" type="line"/>
      <point x="198" y="56"/>
      <point x="222" y="31"/>
      <point x="222" y="0" type="curve"/>
      <point x="111" y="0" type="line"/>
      <point x="111" y="31"/>
      <point x="136" y="56"/>
      <point x="167" y="56" type="curve"/>
    </contour>
    <contour>
      <point x="222" y="167" type="line"/>
      <point x="222" y="167"/>
      <point x="278" y="222"/>
      <point x="278" y="222" type="curve"/>
      <point x="278" y="222"/>
      <point x="333" y="167"/>
      <point x="333" y="167" type="curve"/>
      <point x="278" y="167" type="line"/>
      <point x="278" y="167"/>
      <point x="333" y="111"/>
      <point x="333" y="111" type="curve"/>
      <point x="222" y="111" type="line"/>
      <point x="222" y="111"/>
      <point x="278" y="167"/>
      <point x="278" y="167" type="curve"/>
    </contour>
    <contour>
      <point x="333" y="278" type="line"/>
      <point x="333" y="278"/>
      <point x="389" y="333"/>
      <point x="389" y="333" type="curve"/>
      <point x="389" y="333"/>
      <point x="444" y="278"/>
      <point x="444" y="278" type="curve"/>
      <point x="389" y="278" type="line"/>
      <point x="389" y="278"/>
      <point x="444" y="222"/>
      <point x="444" y="222" type="curve"/>
      <point x="333" y="222" type="line"/>
      <point x="333" y="222"/>
      <point x="389" y="278"/>
      <point x="389" y="278" type="curve"/>
    </contour>
    <contour>
      <point x="444" y="389" type="line"/>
      <point x="444" y="420"/>
      <point x="469" y="444"/>
      <point x="500" y="444" type="curve" smooth="yes"/>
      <point x="531" y="444"/>
      <point x="556" y="420"/>
      <point x="556" y="389" type="curve"/>
      <point x="500" y="389" type="line"/>
      <point x="531" y="389"/>
      <point x="556" y="364"/>
      <point x="556" y="333" type="curve"/>
      <point x="444" y="333" type="line"/>
      <point x="444" y="364"/>
      <point x="469" y="389"/>
      <point x="500" y="389" type="curve"/>
    </contour>
    <contour>
      <point x="556" y="500" type="line"/>
      <point x="556" y="500"/>
      <point x="611" y="556"/>
      <point x="611" y="556" type="curve"/>
      <point x="611" y="556"/>
      <point x="667" y="500"/>
      <point x="667" y="500" type="curve"/>
      <point x="611" y="500" type="line"/>
      <point x="611" y="500"/>
      <point x="667" y="444"/>
      <point x="667" y="444" type="curve"/>
      <point x="556" y="444" type="line"/>
      <point x="556" y="444"/>
      <point x="611" y="500"/>
      <point x="611" y="500" type="curve"/>
    </contour>
    <contour>
      <point x="667" y="611" type="line"/>
      <point x="667" y="642"/>
      <point x="691" y="667"/>
      <point x="722" y="667" type="curve" smooth="yes"/>
      <point x="753" y="667"/>
      <point x="778" y="642"/>
      <point x="778" y="611" type="curve"/>
      <point x="722" y="611" type="line"/>
      <point x="753" y="611"/>
      <point x="778" y="587"/>
      <point x="778" y="556" type="curve"/>
      <point x="667" y="556" type="line"/>
      <point x="667" y="587"/>
      <point x="691" y="611"/>
      <point x="722" y="611" type="curve"/>
    </contour>
    <contour>
      <point x="778" y="722" type="line"/>
      <point x="778" y="722"/>
      <point x="833" y="778"/>
      <point x="833" y="778" type="curve"/>
      <point x="833" y="778"/>
      <point x="889" y="722"/>
      <point x="889" y="722" type="curve"/>
      <point x="833" y="722" type="line"/>
      <point x="833" y="722"/>
      <point x="889" y="667"/>
      <point x="889" y="667" type="curve"/>
      <point x="778" y="667" type="line"/>
      <point x="778" y="667"/>
      <point x="833" y="722"/>
      <point x="833" y="722" type="curve"/>
    </contour>
  </outline>
</glyph>
<glyph name="five" format="1">
  <advance width="777.7777777777778"/>
  <unicode hex="0035"/>
  <outline>
    <contour>
      <point x="111" y="0" type="line"/>
      <point x="111" y="111" type="line"/>
      <point x="222" y="111" type="line"/>
      <point x="222" y="0" type="line"/>
    </contour>
    <contour>
      <point x="222" y="56" type="line"/>
      <point x="222" y="56"/>
      <point x="278" y="111"/>
      <point x="278" y="111" type="curve"/>
      <point x="278" y="111"/>
      <point x="333" y="56"/>
      <point x="333" y="56" type="curve"/>
      <point x="278" y="56" type="line"/>
      <point x="278" y="56"/>
      <point x="333" y="0"/>
      <point x="333" y="0" type="curve"/>
      <point x="222" y="0" type="line"/>
      <point x="222" y="0"/>
      <point x="278" y="56"/>
      <point x="278" y="56" type="curve"/>
    </contour>
    <contour>
      <point x="444" y="0" type="line"/>
      <point x="333" y="0" type="line"/>
      <point x="333" y="62"/>
      <point x="382" y="111"/>
      <point x="444" y="111" type="curve"/>
    </contour>
    <contour>
      <point x="556" y="0" type="line"/>
      <point x="444" y="0" type="line"/>
      <point x="444" y="62"/>
      <point x="493" y="111"/>
      <point x="556" y="111" type="curve"/>
    </contour>
    <contour>
      <point x="222" y="111" type="line"/>
      <point x="111" y="111" type="line"/>
      <point x="111" y="173"/>
      <point x="160" y="222"/>
      <point x="222" y="222" type="curve"/>
    </contour>
    <contour>
      <point x="556" y="167" type="curve" smooth="yes"/>
      <point x="556" y="198"/>
      <point x="580" y="222"/>
      <point x="611" y="222" type="curve" smooth="yes"/>
      <point x="642" y="222"/>
      <point x="667" y="198"/>
      <point x="667" y="167" type="curve" smooth="yes"/>
      <point x="667" y="136"/>
      <point x="642" y="111"/>
      <point x="611" y="111" type="curve" smooth="yes"/>
      <point x="580" y="111"/>
      <point x="556" y="136"/>
    </contour>
    <contour>
      <point x="556" y="278" type="line"/>
      <point x="556" y="309"/>
      <point x="580" y="333"/>
      <point x="611" y="333" type="curve" smooth="yes"/>
      <point x="642" y="333"/>
      <point x="667" y="309"/>
      <point x="667" y="278" type="curve"/>
      <point x="611" y="278" type="line"/>
      <point x="642" y="278"/>
      <point x="667" y="253"/>
      <point x="667" y="222" type="curve"/>
      <point x="556" y="222" type="line"/>
      <point x="556" y="253"/>
      <point x="580" y="278"/>
      <point x="611" y="278" type="curve"/>
    </contour>
    <contour>
      <point x="111" y="389" type="line"/>
      <point x="111" y="420"/>
      <point x="136" y="444"/>
      <point x="167" y="444" type="curve" smooth="yes"/>
      <point x="198" y="444"/>
      <point x="222" y="420"/>
      <point x="222" y="389" type="curve"/>
      <point x="167" y="389" type="line"/>
      <point x="198" y="389"/>
      <point x="222" y="364"/>
      <point x="222" y="333" type="curve"/>
      <point x="111" y="333" type="line"/>
      <point x="111" y="364"/>
      <point x="136" y="389"/>
      <point x="167" y="389" type="curve"/>
    </contour>
    <contour>
      <point x="333" y="333" type="line"/>
      <point x="222" y="333" type="line"/>
      <point x="222" y="396"/>
      <point x="271" y="444"/>
      <point x="333" y="444" type="curve"/>
    </contour>
    <contour>
      <point x="333" y="389" type="line"/>
      <point x="333" y="420"/>
      <point x="358" y="444"/>
      <point x="389" y="444" type="curve" smooth="yes"/>
      <point x="420" y="444"/>
      <point x="444" y="420"/>
      <point x="444" y="389" type="curve"/>
      <point x="389" y="389" type="line"/>
      <point x="420" y="389"/>
      <point x="444" y="364"/>
      <point x="444" y="333" type="curve"/>
      <point x="333" y="333" type="line"/>
      <point x="333" y="364"/>
      <point x="358" y="389"/>
      <point x="389" y="389" type="curve"/>
    </contour>
    <contour>
      <point x="556" y="333" type="line"/>
      <point x="444" y="333" type="line"/>
      <point x="444" y="396"/>
      <point x="493" y="444"/>
      <point x="556" y="444" type="curve"/>
    </contour>
    <contour>
      <point x="222" y="444" type="line"/>
      <point x="111" y="444" type="line"/>
      <point x="111" y="507"/>
      <point x="160" y="556"/>
      <point x="222" y="556" type="curve"/>
    </contour>
    <contour>
      <point x="111" y="556" type="line"/>
      <point x="111" y="667" type="line"/>
      <point x="222" y="667" type="line"/>
      <point x="222" y="556" type="line"/>
    </contour>
    <contour>
      <point x="556" y="611" type="line"/>
      <point x="556" y="611"/>
      <point x="611" y="667"/>
      <point x="611" y="667" type="curve"/>
      <point x="611" y="667"/>
      <point x="667" y="611"/>
      <point x="667" y="611" type="curve"/>
      <point x="611" y="611" type="line"/>
      <point x="611" y="611"/>
      <point x="667" y="556"/>
      <point x="667" y="556" type="curve"/>
      <point x="556" y="556" type="line"/>
      <point x="556" y="556"/>
      <point x="611" y="611"/>
      <point x="611" y="611" type="curve"/>
    </contour>
    <contour>
      <point x="111" y="722" type="line"/>
      <point x="111" y="722"/>
      <point x="167" y="778"/>
      <point x="167" y="778" type="curve"/>
      <point x="167" y="778"/>
      <point x="222" y="722"/>
      <point x="222" y="722" type="curve"/>
      <point x="167" y="722" type="line"/>
      <point x="167" y="722"/>
      <point x="222" y="667"/>
      <point x="222" y="667" type="curve"/>
      <point x="111" y="667" type="line"/>
      <point x="111" y="667"/>
      <point x="167" y="722"/>
      <point x="167" y="722" type="curve"/>
    </contour>
    <contour>
      <point x="222" y="722" type="line"/>
      <point x="222" y="722"/>
      <point x="278" y="778"/>
      <point x="278" y="778" type="curve"/>
      <point x="278" y="778"/>
      <point x="333" y="722"/>
      <point x="333" y="722" type="curve"/>
      <point x="278" y="722" type="line"/>
      <point x="278" y="722"/>
      <point x="333" y="667"/>
      <point x="333" y="667" type="curve"/>
      <point x="222" y="667" type="line"/>
      <point x="222" y="667"/>
      <point x="278" y="722"/>
      <point x="278" y="722" type="curve"/>
    </contour>
    <contour>
      <point x="333" y="722" type="line"/>
      <point x="333" y="753"/>
      <point x="358" y="778"/>
      <point x="389" y="778" type="curve" smooth="yes"/>
      <point x="420" y="778"/>
      <point x="444" y="753"/>
      <point x="444" y="722" type="curve"/>
      <point x="389" y="722" type="line"/>
      <point x="420" y="722"/>
      <point x="444" y="698"/>
      <point x="444" y="667" type="curve"/>
      <point x="333" y="667" type="line"/>
      <point x="333" y="698"/>
      <point x="358" y="722"/>
      <point x="389" y="722" type="curve"/>
    </contour>
    <contour>
      <point x="444" y="667" type="line"/>
      <point x="444" y="778" type="line"/>
      <point x="556" y="778" type="line"/>
      <point x="556" y="667" type="line"/>
    </contour>
    <contour>
      <point x="556" y="722" type="line"/>
      <point x="556" y="753"/>
      <point x="580" y="778"/>
      <point x="611" y="778" type="curve" smooth="yes"/>
      <point x="642" y="778"/>
      <point x="667" y="753"/>
      <point x="667" y="722" type="curve"/>
      <point x="611" y="722" type="line"/>
      <point x="642" y="722"/>
      <point x="667" y="698"/>
      <point x="667" y="667" type="curve"/>
      <point x="556" y="667" type="line"/>
      <point x="556" y="698"/>
      <point x="580" y="722"/>
      <point x="611" y="722" type="curve"/>
    </contour>
  </outline>
</glyph>
<glyph name="seven" format="1">
  <advance width="666.6666666666667"/>
  <unicode hex="0037"/>
  <outline>
    <contour>
      <point x="222" y="56" type="line"/>
      <point x="222" y="87"/>
      <point x="247" y="111"/>
      <point x="278" y="111" type="curve" smooth="yes"/>
      <point x="309" y="111"/>
      <point x="333" y="87"/>
      <point x="333" y="56" type="curve"/>
      <point x="278" y="56" type="line"/>
      <point x="309" y="56"/>
      <point x="333" y="31"/>
      <point x="333" y="0" type="curve"/>
      <point x="222" y="0" type="line"/>
      <point x="222" y="31"/>
      <point x="247" y="56"/>
      <point x="278" y="56" type="curve"/>
    </contour>
    <contour>
      <point x="333" y="111" type="line"/>
      <point x="222" y="111" type="line"/>
      <point x="222" y="173"/>
      <point x="271" y="222"/>
      <point x="333" y="222" type="curve"/>
    </contour>
    <contour>
      <point x="222" y="222" type="line"/>
      <point x="222" y="333" type="line"/>
      <point x="333" y="333" type="line"/>
      <point x="333" y="222" type="line"/>
    </contour>
    <contour>
      <point x="333" y="333" type="line"/>
      <point x="222" y="333" type="line"/>
      <point x="222" y="396"/>
      <point x="271" y="444"/>
      <point x="333" y="444" type="curve"/>
    </contour>
    <contour>
      <point x="333" y="500" type="curve" smooth="yes"/>
      <point x="333" y="531"/>
      <point x="358" y="556"/>
      <point x="389" y="556" type="curve" smooth="yes"/>
      <point x="420" y="556"/>
      <point x="444" y="531"/>
      <point x="444" y="500" type="curve" smooth="yes"/>
      <point x="444" y="469"/>
      <point x="420" y="444"/>
      <point x="389" y="444" type="curve" smooth="yes"/>
      <point x="358" y="444"/>
      <point x="333" y="469"/>
    </contour>
    <contour>
      <point x="444" y="611" type="curve" smooth="yes"/>
      <point x="444" y="642"/>
      <point x="469" y="667"/>
      <point x="500" y="667" type="curve" smooth="yes"/>
      <point x="531" y="667"/>
      <point x="556" y="642"/>
      <point x="556" y="611" type="curve" smooth="yes"/>
      <point x="556" y="580"/>
      <point x="531" y="556"/>
      <point x="500" y="556" type="curve" smooth="yes"/>
      <point x="469" y="556"/>
      <point x="444" y="580"/>
    </contour>
    <contour>
      <point x="111" y="722" type="line"/>
      <point x="111" y="722"/>
      <point x="167" y="778"/>
      <point x="167" y="778" type="curve"/>
      <point x="167" y="778"/>
      <point x="222" y="722"/>
      <point x="222" y="722" type="curve"/>
      <point x="167" y="722" type="line"/>
      <point x="167" y="722"/>
      <point x="222" y="667"/>
      <point x="222" y="667" type="curve"/>
      <point x="111" y="667" type="line"/>
      <point x="111" y="667"/>
      <point x="167" y="722"/>
      <point x="167" y="722" type="curve"/>
    </contour>
    <contour>
      <point x="222" y="667" type="line"/>
      <point x="222" y="778" type="line"/>
      <point x="333" y="778" type="line"/>
      <point x="333" y="667" type="line"/>
    </contour>
    <contour>
      <point x="333" y="722" type="line"/>
      <point x="333" y="722"/>
      <point x="389" y="778"/>
      <point x="389" y="778" type="curve"/>
      <point x="389" y="778"/>
      <point x="444" y="722"/>
      <point x="444" y="722" type="curve"/>
      <point x="389" y="722" type="line"/>
      <point x="389" y="722"/>
      <point x="444" y="667"/>
      <point x="444" y="667" type="curve"/>
      <point x="333" y="667" type="line"/>
      <point x="333" y="667"/>
      <point x="389" y="722"/>
      <point x="389" y="722" type="curve"/>
    </contour>
    <contour>
      <point x="444" y="722" type="line"/>
      <point x="444" y="722"/>
      <point x="500" y="778"/>
      <point x="500" y="778" type="curve"/>
      <point x="500" y="778"/>
      <point x="556" y="722"/>
      <point x="556" y="722" type="curve"/>
      <point x="500" y="722" type="line"/>
      <point x="500" y="722"/>
      <point x="556" y="667"/>
      <point x="556" y="667" type="curve"/>
      <point x="444" y="667" type="line"/>
      <point x="444" y="667"/>
      <point x="500" y="722"/>
      <point x="500" y="722" type="curve"/>
    </contour>
  </outline>
</glyph>
<glyph name="eight" format="1">
  <advance width="777.7777777777778"/>
  <unicode hex="0038"/>
  <outline>
    <contour>
      <point x="333" y="0" type="line"/>
      <point x="222" y="0" type="line"/>
      <point x="222" y="62"/>
      <point x="271" y="111"/>
      <point x="333" y="111" type="curve"/>
    </contour>
    <contour>
      <point x="333" y="0" type="line"/>
      <point x="333" y="111" type="line"/>
      <point x="444" y="111" type="line"/>
      <point x="444" y="0" type="line"/>
    </contour>
    <contour>
      <point x="444" y="56" type="line"/>
      <point x="444" y="87"/>
      <point x="469" y="111"/>
      <point x="500" y="111" type="curve" smooth="yes"/>
      <point x="531" y="111"/>
      <point x="556" y="87"/>
      <point x="556" y="56" type="curve"/>
      <point x="500" y="56" type="line"/>
      <point x="531" y="56"/>
      <point x="556" y="31"/>
      <point x="556" y="0" type="curve"/>
      <point x="444" y="0" type="line"/>
      <point x="444" y="31"/>
      <point x="469" y="56"/>
      <point x="500" y="56" type="curve"/>
    </contour>
    <contour>
      <point x="111" y="167" type="line"/>
      <point x="111" y="167"/>
      <point x="167" y="222"/>
      <point x="167" y="222" type="curve"/>
      <point x="167" y="222"/>
      <point x="222" y="167"/>
      <point x="222" y="167" type="curve"/>
      <point x="167" y="167" type="line"/>
      <point x="167" y="167"/>
      <point x="222" y="111"/>
      <point x="222" y="111" type="curve"/>
      <point x="111" y="111" type="line"/>
      <point x="111" y="111"/>
      <point x="167" y="167"/>
      <point x="167" y="167" type="curve"/>
    </contour>
    <contour>
      <point x="556" y="167" type="line"/>
      <point x="556" y="198"/>
      <point x="580" y="222"/>
      <point x="611" y="222" type="curve" smooth="yes"/>
      <point x="642" y="222"/>
      <point x="667" y="198"/>
      <point x="667" y="167" type="curve"/>
      <point x="611" y="167" type="line"/>
      <point x="642" y="167"/>
      <point x="667" y="142"/>
      <point x="667" y="111" type="curve"/>
      <point x="556" y="111" type="line"/>
      <point x="556" y="142"/>
      <point x="580" y="167"/>
      <point x="611" y="167" type="curve"/>
    </contour>
    <contour>
      <point x="111" y="278" type="line"/>
      <point x="111" y="278"/>
      <point x="167" y="333"/>
      <point x="167" y="333" type="curve"/>
      <point x="167" y="333"/>
      <point x="222" y="278"/>
      <point x="222" y="278" type="curve"/>
      <point x="167" y="278" type="line"/>
      <point x="167" y="278"/>
      <point x="222" y="222"/>
      <point x="222" y="222" type="curve"/>
      <point x="111" y="222" type="line"/>
      <point x="111" y="222"/>
      <point x="167" y="278"/>
      <point x="167" y="278" type="curve"/>
    </contour>
    <contour>
      <point x="556" y="278" type="line"/>
      <point x="556" y="278"/>
      <point x="611" y="333"/>
      <point x="611" y="333" type="curve"/>
      <point x="611" y="333"/>
      <point x="667" y="278"/>
      <point x="667" y="278" type="curve"/>
      <point x="611" y="278" type="line"/>
      <point x="611" y="278"/>
      <point x="667" y="222"/>
      <point x="667" y="222" type="curve"/>
      <point x="556" y="222" type="line"/>
      <point x="556" y="222"/>
      <point x="611" y="278"/>
      <point x="611" y="278" type="curve"/>
    </contour>
    <contour>
      <point x="333" y="333" type="line"/>
      <point x="222" y="333" type="line"/>
      <point x="222" y="396"/>
      <point x="271" y="444"/>
      <point x="333" y="444" type="curve"/>
    </contour>
    <contour>
      <point x="333" y="389" type="line"/>
      <point x="333" y="420"/>
      <point x="358" y="444"/>
      <point x="389" y="444" type="curve" smooth="yes"/>
      <point x="420" y="444"/>
      <point x="444" y="420"/>
      <point x="444" y="389" type="curve"/>
      <point x="389" y="389" type="line"/>
      <point x="420" y="389"/>
      <point x="444" y="364"/>
      <point x="444" y="333" type="curve"/>
      <point x="333" y="333" type="line"/>
      <point x="333" y="364"/>
      <point x="358" y="389"/>
      <point x="389" y="389" type="curve"/>
    </contour>
    <contour>
      <point x="444" y="389" type="curve" smooth="yes"/>
      <point x="444" y="420"/>
      <point x="469" y="444"/>
      <point x="500" y="444" type="curve" smooth="yes"/>
      <point x="531" y="444"/>
      <point x="556" y="420"/>
      <point x="556" y="389" type="curve" smooth="yes"/>
      <point x="556" y="358"/>
      <point x="531" y="333"/>
      <point x="500" y="333" type="curve" smooth="yes"/>
      <point x="469" y="333"/>
      <point x="444" y="358"/>
    </contour>
    <contour>
      <point x="111" y="444" type="line"/>
      <point x="111" y="556" type="line"/>
      <point x="222" y="556" type="line"/>
      <point x="222" y="444" type="line"/>
    </contour>
    <contour>
      <point x="556" y="500" type="curve" smooth="yes"/>
      <point x="556" y="531"/>
      <point x="580" y="556"/>
      <point x="611" y="556" type="curve" smooth="yes"/>
      <point x="642" y="556"/>
      <point x="667" y="531"/>
      <point x="667" y="500" type="curve" smooth="yes"/>
      <point x="667" y="469"/>
      <point x="642" y="444"/>
      <point x="611" y="444" type="curve" smooth="yes"/>
      <point x="580" y="444"/>
      <point x="556" y="469"/>
    </contour>
    <contour>
      <point x="111" y="611" type="line"/>
      <point x="111" y="611"/>
      <point x="167" y="667"/>
      <point x="167" y="667" type="curve"/>
      <point x="167" y="667"/>
      <point x="222" y="611"/>
      <point x="222" y="611" type="curve"/>
      <point x="167" y="611" type="line"/>
      <point x="167" y="611"/>
      <point x="222" y="556"/>
      <point x="222" y="556" type="curve"/>
      <point x="111" y="556" type="line"/>
      <point x="111" y="556"/>
      <point x="167" y="611"/>
      <point x="167" y="611" type="curve"/>
    </contour>
    <contour>
      <point x="556" y="556" type="line"/>
      <point x="556" y="667" type="line"/>
      <point x="667" y="667" type="line"/>
      <point x="667" y="556" type="line"/>
    </contour>
    <contour>
      <point x="333" y="667" type="line"/>
      <point x="222" y="667" type="line"/>
      <point x="222" y="729"/>
      <point x="271" y="778"/>
      <point x="333" y="778" type="curve"/>
    </contour>
    <contour>
      <point x="444" y="667" type="line"/>
      <point x="333" y="667" type="line"/>
      <point x="333" y="729"/>
      <point x="382" y="778"/>
      <point x="444" y="778" type="curve"/>
    </contour>
    <contour>
      <point x="444" y="722" type="curve" smooth="yes"/>
      <point x="444" y="753"/>
      <point x="469" y="778"/>
      <point x="500" y="778" type="curve" smooth="yes"/>
      <point x="531" y="778"/>
      <point x="556" y="753"/>
      <point x="556" y="722" type="curve" smooth="yes"/>
      <point x="556" y="691"/>
      <point x="531" y="667"/>
      <point x="500" y="667" type="curve" smooth="yes"/>
      <point x="469" y="667"/>
      <point x="444" y="691"/>
    </contour>
  </outline>
</glyph>
<glyph name="semicolon" format="1">
  <advance width="444.44444444444446"/>
  <unicode hex="003B"/>
  <outline>
    <contour>
      <point x="111" y="-167" type="curve" smooth="yes"/>
      <point x="111" y="-136"/>
      <point x="136" y="-111"/>
      <point x="167" y="-111" type="curve" smooth="yes"/>
      <point x="198" y="-111"/>
      <point x="222" y="-136"/>
      <point x="222" y="-167" type="curve" smooth="yes"/>
      <point x="222" y="-198"/>
      <point x="198" y="-222"/>
      <point x="167" y="-222" type="curve" smooth="yes"/>
      <point x="136" y="-222"/>
      <point x="111" y="-198"/>
    </contour>
    <contour>
      <point x="333" y="-222" type="line"/>
      <point x="222" y="-222" type="line"/>
      <point x="222" y="-160"/>
      <point x="271" y="-111"/>
      <point x="333" y="-111" type="curve"/>
    </contour>
    <contour>
      <point x="222" y="-56" type="line"/>
      <point x="222" y="-56"/>
      <point x="278" y="0"/>
      <point x="278" y="0" type="curve"/>
      <point x="278" y="0"/>
      <point x="333" y="-56"/>
      <point x="333" y="-56" type="curve"/>
      <point x="278" y="-56" type="line"/>
      <point x="278" y="-56"/>
      <point x="333" y="-111"/>
      <point x="333" y="-111" type="curve"/>
      <point x="222" y="-111" type="line"/>
      <point x="222" y="-111"/>
      <point x="278" y="-56"/>
      <point x="278" y="-56" type="curve"/>
    </contour>
    <contour>
      <point x="222" y="56" type="line"/>
      <point x="222" y="87"/>
      <point x="247" y="111"/>
      <point x="278" y="111" type="curve" smooth="yes"/>
      <point x="309" y="111"/>
      <point x="333" y="87"/>
      <point x="333" y="56" type="curve"/>
      <point x="278" y="56" type="line"/>
      <point x="309" y="56"/>
      <point x="333" y="31"/>
      <point x="333" y="0" type="curve"/>
      <point x="222" y="0" type="line"/>
      <point x="222" y="31"/>
      <point x="247" y="56"/>
      <point x="278" y="56" type="curve"/>
    </contour>
    <contour>
      <point x="222" y="389" type="line"/>
      <point x="222" y="420"/>
      <point x="247" y="444"/>
      <point x="278" y="444" type="curve" smooth="yes"/>
      <point x="309" y="444"/>
      <point x="333" y="420"/>
      <point x="333" y="389" type="curve"/>
      <point x="278" y="389" type="line"/>
      <point x="309" y="389"/>
      <point x="333" y="364"/>
      <point x="333" y="333" type="curve"/>
      <point x="222" y="333" type="line"/>
      <point x="222" y="364"/>
      <point x="247" y="389"/>
      <point x="278" y="389" type="curve"/>
    </contour>
  </outline>
</glyph>
<glyph name="equal" format="1">
  <advance width="555.5555555555555"/>
  <unicode hex="003D"/>
  <outline>
    <contour>
      <point x="111" y="0" type="line"/>
      <point x="111" y="111" type="line"/>
      <point x="222" y="111" type="line"/>
      <point x="222" y="0" type="line"/>
    </contour>
    <contour>
      <point x="222" y="56" type="curve" smooth="yes"/>
      <point x="222" y="87"/>
      <point x="247" y="111"/>
      <point x="278" y="111" type="curve" smooth="yes"/>
      <point x="309" y="111"/>
      <point x="333" y="87"/>
      <point x="333" y="56" type="curve" smooth="yes"/>
      <point x="333" y="24"/>
      <point x="309" y="0"/>
      <point x="278" y="0" type="curve" smooth="yes"/>
      <point x="247" y="0"/>
      <point x="222" y="24"/>
    </contour>
    <contour>
      <point x="333" y="0" type="line"/>
      <point x="333" y="111" type="line"/>
      <point x="444" y="111" type="line"/>
      <point x="444" y="0" type="line"/>
    </contour>
    <contour>
      <point x="111" y="278" type="line"/>
      <point x="111" y="309"/>
      <point x="136" y="333"/>
      <point x="167" y="333" type="curve" smooth="yes"/>
      <point x="198" y="333"/>
      <point x="222" y="309"/>
      <point x="222" y="278" type="curve"/>
      <point x="167" y="278" type="line"/>
      <point x="198" y="278"/>
      <point x="222" y="253"/>
      <point x="222" y="222" type="curve"/>
      <point x="111" y="222" type="line"/>
      <point x="111" y="253"/>
      <point x="136" y="278"/>
      <point x="167" y="278" type="curve"/>
    </contour>
    <contour>
      <point x="333" y="222" type="line"/>
      <point x="222" y="222" type="line"/>
      <point x="222" y="284"/>
      <point x="271" y="333"/>
      <point x="333" y="333" type="curve"/>
    </contour>
    <contour>
      <point x="333" y="278" type="curve" smooth="yes"/>
      <point x="333" y="309"/>
      <point x="358" y="333"/>
      <point x="389" y="333" type="curve" smooth="yes"/>
      <point x="420" y="333"/>
      <point x="444" y="309"/>
      <point x="444" y="278" type="curve" smooth="yes"/>
      <point x="444" y="247"/>
      <point x="420" y="222"/>
      <point x="389" y="222" type="curve" smooth="yes"/>
      <point x="358" y="222"/>
      <point x="333" y="247"/>
    </contour>
  </outline>
</glyph>
<glyph name="question" format="1">
  <advance width="777.7777777777778"/>
  <unicode hex="003F"/>
  <outline>
    <contour>
      <point x="333" y="56" type="line"/>
      <point x="333" y="56"/>
      <point x="389" y="111"/>
      <point x="389" y="111" type="curve"/>
      <point x="389" y="111"/>
      <point x="444" y="56"/>
      <point x="444" y="56" type="curve"/>
      <point x="389" y="56" type="line"/>
      <point x="389" y="56"/>
      <point x="444" y="0"/>
      <point x="444" y="0" type="curve"/>
      <point x="333" y="0" type="line"/>
      <point x="333" y="0"/>
      <point x="389" y="56"/>
      <point x="389" y="56" type="curve"/>
    </contour>
    <contour>
      <point x="333" y="222" type="line"/>
      <point x="333" y="333" type="line"/>
      <point x="444" y="333" type="line"/>
      <point x="444" y="222" type="line"/>
    </contour>
    <contour>
      <point x="444" y="389" type="line"/>
      <point x="444" y="389"/>
      <point x="500" y="444"/>
      <point x="500" y="444" type="curve"/>
      <point x="500" y="444"/>
      <point x="556" y="389"/>
      <point x="556" y="389" type="curve"/>
      <point x="500" y="389" type="line"/>
      <point x="500" y="389"/>
      <point x="556" y="333"/>
      <point x="556" y="333" type="curve"/>
      <point x="444" y="333" type="line"/>
      <point x="444" y="333"/>
      <point x="500" y="389"/>
      <point x="500" y="389" type="curve"/>
    </contour>
    <contour>
      <point x="556" y="444" type="line"/>
      <point x="556" y="556" type="line"/>
      <point x="667" y="556" type="line"/>
      <point x="667" y="444" type="line"/>
    </contour>
    <contour>
      <point x="111" y="611" type="curve" smooth="yes"/>
      <point x="111" y="642"/>
      <point x="136" y="667"/>
      <point x="167" y="667" type="curve" smooth="yes"/>
      <point x="198" y="667"/>
      <point x="222" y="642"/>
      <point x="222" y="611" type="curve" smooth="yes"/>
      <point x="222" y="580"/>
      <point x="198" y="556"/>
      <point x="167" y="556" type="curve" smooth="yes"/>
      <point x="136" y="556"/>
      <point x="111" y="580"/>
    </contour>
    <contour>
      <point x="556" y="611" type="line"/>
      <point x="556" y="611"/>
      <point x="611" y="667"/>
      <point x="611" y="667" type="curve"/>
      <point x="611" y="667"/>
      <point x="667" y="611"/>
      <point x="667" y="611" type="curve"/>
      <point x="611" y="611" type="line"/>
      <point x="611" y="611"/>
      <point x="667" y="556"/>
      <point x="667" y="556" type="curve"/>
      <point x="556" y="556" type="line"/>
      <point x="556" y="556"/>
      <point x="611" y="611"/>
      <point x="611" y="611" type="curve"/>
    </contour>
    <contour>
      <point x="333" y="667" type="line"/>
      <point x="222" y="667" type="line"/>
      <point x="222" y="729"/>
      <point x="271" y="778"/>
      <point x="333" y="778" type="curve"/>
    </contour>
    <contour>
      <point x="333" y="722" type="line"/>
      <point x="333" y="722"/>
      <point x="389" y="778"/>
      <point x="389" y="778" type="curve"/>
      <point x="389" y="778"/>
      <point x="444" y="722"/>
      <point x="444" y="722" type="curve"/>
      <point x="389" y="722" type="line"/>
      <point x="389" y="722"/>
      <point x="444" y="667"/>
      <point x="444" y="667" type="curve"/>
      <point x="333" y="667" type="line"/>
      <point x="333" y="667"/>
      <point x="389" y="722"/>
      <point x="389" y="722" type="curve"/>
    </contour>
    <contour>
      <point x="444" y="722" type="line"/>
      <point x="444" y="722"/>
      <point x="500" y="778"/>
      <point x="500" y="778" type="curve"/>
      <point x="500" y="778"/>
      <point x="556" y="722"/>
      <point x="556" y="722" type="curve"/>
      <point x="500" y="722" type="line"/>
      <point x="500" y="722"/>
      <point x="556" y="667"/>
      <point x="556" y="667" type="curve"/>
      <point x="444" y="667" type="line"/>
      <point x="444" y="667"/>
      <point x="500" y="722"/>
      <point x="500" y="722" type="curve"/>
    </contour>
  </outline>
</glyph>
<glyph name="I" format="1">
  <advance width="555.5555555555555"/>
  <unicode hex="0049"/>
  <outline>
    <contour>
      <point x="111" y="56" type="curve" smooth="yes"/>
      <point x="111" y="87"/>
      <point x="136" y="111"/>
      <point x="167" y="111" type="curve" smooth="yes"/>
      <point x="198" y="111"/>
      <point x="222" y="87"/>
      <point x="222" y="56" type="curve" smooth="yes"/>
      <point x="222" y="24"/>
      <point x="198" y="0"/>
      <point x="167" y="0" type="curve" smooth="yes"/>
      <point x="136" y="0"/>
      <point x="111" y="24"/>
    </contour>
    <contour>
      <point x="333" y="0" type="line"/>
      <point x="222" y="0" type="line"/>
      <point x="222" y="62"/>
      <point x="271" y="111"/>
      <point x="333" y="111" type="curve"/>
    </contour>
    <contour>
      <point x="333" y="0" type="line"/>
      <point x="333" y="111" type="line"/>
      <point x="444" y="111" type="line"/>
      <point x="444" y="0" type="line"/>
    </contour>
    <contour>
      <point x="222" y="167" type="curve" smooth="yes"/>
      <point x="222" y="198"/>
      <point x="247" y="222"/>
      <point x="278" y="222" type="curve" smooth="yes"/>
      <point x="309" y="222"/>
      <point x="333" y="198"/>
      <point x="333" y="167" type="curve" smooth="yes"/>
      <point x="333" y="136"/>
      <point x="309" y="111"/>
      <point x="278" y="111" type="curve" smooth="yes"/>
      <point x="247" y="111"/>
      <point x="222" y="136"/>
    </contour>
    <contour>
      <point x="333" y="222" type="line"/>
      <point x="222" y="222" type="line"/>
      <point x="222" y="284"/>
      <point x="271" y="333"/>
      <point x="333" y="333" type="curve"/>
    </contour>
    <contour>
      <point x="222" y="333" type="line"/>
      <point x="222" y="444" type="line"/>
      <point x="333" y="444" type="line"/>
      <point x="333" y="333" type="line"/>
    </contour>
    <contour>
      <point x="222" y="500" type="line"/>
      <point x="222" y="531"/>
      <point x="247" y="556"/>
      <point x="278" y="556" type="curve" smooth="yes"/>
      <point x="309" y="556"/>
      <point x="333" y="531"/>
      <point x="333" y="500" type="curve"/>
      <point x="278" y="500" type="line"/>
      <point x="309" y="500"/>
      <point x="333" y="476"/>
      <point x="333" y="444" type="curve"/>
      <point x="222" y="444" type="line"/>
      <point x="222" y="476"/>
      <point x="247" y="500"/>
      <point x="278" y="500" type="curve"/>
    </contour>
    <contour>
      <point x="222" y="611" type="line"/>
      <point x="222" y="642"/>
      <point x="247" y="667"/>
      <point x="278" y="667" type="curve" smooth="yes"/>
      <point x="309" y="667"/>
      <point x="333" y="642"/>
      <point x="333" y="611" type="curve"/>
      <point x="278" y="611" type="line"/>
      <point x="309" y="611"/>
      <point x="333" y="587"/>
      <point x="333" y="556" type="curve"/>
      <point x="222" y="556" type="line"/>
      <point x="222" y="587"/>
      <point x="247" y="611"/>
      <point x="278" y="611" type="curve"/>
    </contour>
    <contour>
      <point x="111" y="667" type="line"/>
      <point x="111" y="778" type="line"/>
      <point x="222" y="778" type="line"/>
      <point x="222" y="667" type="line"/>
    </contour>
    <contour>
      <point x="222" y="667" type="line"/>
      <point x="222" y="778" type="line"/>
      <point x="333" y="778" type="line"/>
      <point x="333" y="667" type="line"/>
    </contour>
    <contour>
      <point x="333" y="722" type="curve" smooth="yes"/>
      <point x="333" y="753"/>
      <point x="358" y="778"/>
      <point x="389" y="778" type="curve" smooth="yes"/>
      <point x="420" y="778"/>
      <point x="444" y="753"/>
      <point x="444" y="722" type="curve" smooth="yes"/>
      <point x="444" y="691"/>
      <point x="420" y="667"/>
      <point x="389" y="667" type="curve" smooth="yes"/>
      <point x="358" y="667"/>
      <point x="333" y="691"/>
    </contour>
  </outline>
</glyph>
<glyph name="L" format="1">
  <advance width="888.8888888888889"/>
  <unicode hex="004C"/>
  <outline>
    <contour>
      <point x="111" y="56" type="line"/>
      <point x="111" y="87"/>
      <point x="136" y="111"/>
      <point x="167" y="111" type="curve" smooth="yes"/>
      <point x="198" y="111"/>
      <point x="222" y="87"/>
      <point x="222" y="56" type="curve"/>
      <point x="167" y="56" type="line"/>
      <point x="198" y="56"/>
      <point x="222" y="31"/>
      <point x="222" y="0" type="curve"/>
      <point x="111" y="0" type="line"/>
      <point x="111" y="31"/>
      <point x="136" y="56"/>
      <point x="167" y="56" type="curve"/>
    </contour>
    <contour>
      <point x="333" y="0" type="line"/>
      <point x="222" y="0" type="line"/>
      <point x="222" y="62"/>
      <point x="271" y="111"/>
      <point x="333" y="111" type="curve"/>
    </contour>
    <contour>
      <point x="444" y="0" type="line"/>
      <point x="333" y="0" type="line"/>
      <point x="333" y="62"/>
      <point x="382" y="111"/>
      <point x="444" y="111" type="curve"/>
    </contour>
    <contour>
      <point x="444" y="56" type="line"/>
      <point x="444" y="56"/>
      <point x="500" y="111"/>
      <point x="500" y="111" type="curve"/>
      <point x="500" y="111"/>
      <point x="556" y="56"/>
      <point x="556" y="56" type="curve"/>
      <point x="500" y="56" type="line"/>
      <point x="500" y="56"/>
      <point x="556" y="0"/>
      <point x="556" y="0" type="curve"/>
      <point x="444" y="0" type="line"/>
      <point x="444" y="0"/>
      <point x="500" y="56"/>
      <point x="500" y="56" type="curve"/>
    </contour>
    <contour>
      <point x="667" y="0" type="line"/>
      <point x="556" y="0" type="line"/>
      <point x="556" y="62"/>
      <point x="604" y="111"/>
      <point x="667" y="111" type="curve"/>
    </contour>
    <contour>
      <point x="667" y="56" type="line"/>
      <point x="667" y="56"/>
      <point x="722" y="111"/>
      <point x="722" y="111" type="curve"/>
      <point x="722" y="111"/>
      <point x="778" y="56"/>
      <point x="778" y="56" type="curve"/>
      <point x="722" y="56" type="line"/>
      <point x="722" y="56"/>
      <point x="778" y="0"/>
      <point x="778" y="0" type="curve"/>
      <point x="667" y="0" type="line"/>
      <point x="667" y="0"/>
      <point x="722" y="56"/>
      <point x="722" y="56" type="curve"/>
    </contour>
    <contour>
      <point x="333" y="111" type="line"/>
      <point x="222" y="111" type="line"/>
      <point x="222" y="173"/>
      <point x="271" y="222"/>
      <point x="333" y="222" type="curve"/>
    </contour>
    <contour>
      <point x="667" y="167" type="line"/>
      <point x="667" y="198"/>
      <point x="691" y="222"/>
      <point x="722" y="222" type="curve" smooth="yes"/>
      <point x="753" y="222"/>
      <point x="778" y="198"/>
      <point x="778" y="167" type="curve"/>
      <point x="722" y="167" type="line"/>
      <point x="753" y="167"/>
      <point x="778" y="142"/>
      <point x="778" y="111" type="curve"/>
      <point x="667" y="111" type="line"/>
      <point x="667" y="142"/>
      <point x="691" y="167"/>
      <point x="722" y="167" type="curve"/>
    </contour>
    <contour>
      <point x="222" y="278" type="curve" smooth="yes"/>
      <point x="222" y="309"/>
      <point x="247" y="333"/>
      <point x="278" y="333" type="curve" smooth="yes"/>
      <point x="309" y="333"/>
      <point x="333" y="309"/>
      <point x="333" y="278" type="curve" smooth="yes"/>
      <point x="333" y="247"/>
      <point x="309" y="222"/>
      <point x="278" y="222" type="curve" smooth="yes"/>
      <point x="247" y="222"/>
      <point x="222" y="247"/>
    </contour>
    <contour>
      <point x="222" y="333" type="line"/>
      <point x="222" y="444" type="line"/>
      <point x="333" y="444" type="line"/>
      <point x="333" y="333" type="line"/>
    </contour>
    <contour>
      <point x="222" y="444" type="line"/>
      <point x="222" y="556" type="line"/>
      <point x="333" y="556" type="line"/>
      <point x="333" y="444" type="line"/>
    </contour>
    <contour>
      <point x="222" y="556" type="line"/>
      <point x="222" y="667" type="line"/>
      <point x="333" y="667" type="line"/>
      <point x="333" y="556" type="line"/>
    </contour>
    <contour>
      <point x="222" y="667" type="line"/>
      <point x="111" y="667" type="line"/>
      <point x="111" y="729"/>
      <point x="160" y="778"/>
      <point x="222" y="778" type="curve"/>
    </contour>
    <contour>
      <point x="333" y="667" type="line"/>
      <point x="222" y="667" type="line"/>
      <point x="222" y="729"/>
      <point x="271" y="778"/>
      <point x="333" y="778" type="curve"/>
    </contour>
    <contour>
      <point x="333" y="722" type="curve" smooth="yes"/>
      <point x="333" y="753"/>
      <point x="358" y="778"/>
      <point x="389" y="778" type="curve" smooth="yes"/>
      <point x="420" y="778"/>
      <point x="444" y="753"/>
      <point x="444" y="722" type="curve" smooth="yes"/>
      <point x="444" y="691"/>
      <point x="420" y="667"/>
      <point x="389" y="667" type="curve" smooth="yes"/>
      <point x="358" y="667"/>
      <point x="333" y="691"/>
    </contour>
  </outline>
</glyph>
<glyph name="M" format="1">
  <advance width="1000.0"/>
  <unicode hex="004D"/>
  <outline>
    <contour>
      <point x="222" y="0" type="line"/>
      <point x="111" y="0" type="line"/>
      <point x="111" y="62"/>
      <point x="160" y="111"/>
      <point x="222" y="111" type="curve"/>
    </contour>
    <contour>
      <point x="222" y="0" type="line"/>
      <point x="222" y="111" type="line"/>
      <point x="333" y="111" type="line"/>
      <point x="333" y="0" type="line"/>
    </contour>
    <contour>
      <point x="667" y="0" type="line"/>
      <point x="667" y="111" type="line"/>
      <point x="778" y="111" type="line"/>
      <point x="778" y="0" type="line"/>
    </contour>
    <contour>
      <point x="778" y="56" type="curve" smooth="yes"/>
      <point x="778" y="87"/>
      <point x="802" y="111"/>
      <point x="833" y="111" type="curve" smooth="yes"/>
      <point x="864" y="111"/>
      <point x="889" y="87"/>
      <point x="889" y="56" type="curve" smooth="yes"/>
      <point x="889" y="24"/>
      <point x="864" y="0"/>
      <point x="833" y="0" type="curve" smooth="yes"/>
      <point x="802" y="0"/>
      <point x="778" y="24"/>
    </contour>
    <contour>
      <point x="333" y="111" type="line"/>
      <point x="222" y="111" type="line"/>
      <point x="222" y="173"/>
      <point x="271" y="222"/>
      <point x="333" y="222" type="curve"/>
    </contour>
    <contour>
      <point x="667" y="111" type="line"/>
      <point x="667" y="222" type="line"/>
      <point x="778" y="222" type="line"/>
      <point x="778" y="111" type="line"/>
    </contour>
    <contour>
      <point x="222" y="222" type="line"/>
      <point x="222" y="333" type="line"/>
      <point x="333" y="333" type="line"/>
      <point x="333" y="222" type="line"/>
    </contour>
    <contour>
      <point x="667" y="278" type="line"/>
      <point x="667" y="309"/>
      <point x="691" y="333"/>
      <point x="722" y="333" type="curve" smooth="yes"/>
      <point x="753" y="333"/>
      <point x="778" y="309"/>
      <point x="778" y="278" type="curve"/>
      <point x="722" y="278" type="line"/>
      <point x="753" y="278"/>
      <point x="778" y="253"/>
      <point x="778" y="222" type="curve"/>
      <point x="667" y="222" type="line"/>
      <point x="667" y="253"/>
      <point x="691" y="278"/>
      <point x="722" y="278" type="curve"/>
    </contour>
    <contour>
      <point x="333" y="333" type="line"/>
      <point x="222" y="333" type="line"/>
      <point x="222" y="396"/>
      <point x="271" y="444"/>
      <point x="333" y="444" type="curve"/>
    </contour>
    <contour>
      <point x="444" y="333" type="line"/>
      <point x="444" y="444" type="line"/>
      <point x="556" y="444" type="line"/>
      <point x="556" y="333" type="line"/>
    </contour>
    <contour>
      <point x="667" y="389" type="line"/>
      <point x="667" y="389"/>
      <point x="722" y="444"/>
      <point x="722" y="444" type="curve"/>
      <point x="722" y="444"/>
      <point x="778" y="389"/>
      <point x="778" y="389" type="curve"/>
      <point x="722" y="389" type="line"/>
      <point x="722" y="389"/>
      <point x="778" y="333"/>
      <point x="778" y="333" type="curve"/>
      <point x="667" y="333" type="line"/>
      <point x="667" y="333"/>
      <point x="722" y="389"/>
      <point x="722" y="389" type="curve"/>
    </contour>
    <contour>
      <point x="222" y="444" type="line"/>
      <point x="222" y="556" type="line"/>
      <point x="333" y="556" type="line"/>
      <point x="333" y="444" type="line"/>
    </contour>
    <contour>
      <point x="444" y="500" type="curve" smooth="yes"/>
      <point x="444" y="531"/>
      <point x="469" y="556"/>
      <point x="500" y="556" type="curve" smooth="yes"/>
      <point x="531" y="556"/>
      <point x="556" y="531"/>
      <point x="556" y="500" type="curve" smooth="yes"/>
      <point x="556" y="469"/>
      <point x="531" y="444"/>
      <point x="500" y="444" type="curve" smooth="yes"/>
      <point x="469" y="444"/>
      <point x="444" y="469"/>
    </contour>
    <contour>
      <point x="667" y="500" type="curve" smooth="yes"/>
      <point x="667" y="531"/>
      <point x="691" y="556"/>
      <point x="722" y="556" type="curve" smooth="yes"/>
      <point x="753" y="556"/>
      <point x="778" y="531"/>
      <point x="778" y="500" type="curve" smooth="yes"/>
      <point x="778" y="469"/>
      <point x="753" y="444"/>
      <point x="722" y="444" type="curve" smooth="yes"/>
      <point x="691" y="444"/>
      <point x="667" y="469"/>
    </contour>
    <contour>
      <point x="222" y="556" type="line"/>
      <point x="222" y="667" type="line"/>
      <point x="333" y="667" type="line"/>
      <point x="333" y="556" type="line"/>
    </contour>
    <contour>
      <point x="444" y="611" type="line"/>
      <point x="444" y="642"/>
      <point x="469" y="667"/>
      <point x="500" y="667" type="curve" smooth="yes"/>
      <point x="531" y="667"/>
      <point x="556" y="642"/>
      <point x="556" y="611" type="curve"/>
      <point x="500" y="611" type="line"/>
      <point x="531" y="611"/>
      <point x="556" y="587"/>
      <point x="556" y="556" type="curve"/>
      <point x="444" y="556" type="line"/>
      <point x="444" y="587"/>
      <point x="469" y="611"/>
      <point x="500" y="611" type="curve"/>
    </contour>
    <contour>
      <point x="667" y="611" type="line"/>
      <point x="667" y="642"/>
      <point x="691" y="667"/>
      <point x="722" y="667" type="curve" smooth="yes"/>
      <point x="753" y="667"/>
      <point x="778" y="642"/>
      <point x="778" y="611" type="curve"/>
      <point x="722" y="611" type="line"/>
      <point x="753" y="611"/>
      <point x="778" y="587"/>
      <point x="778" y="556" type="curve"/>
      <point x="667" y="556" type="line"/>
      <point x="667" y="587"/>
      <point x="691" y="611"/>
      <point x="722" y="611" type="curve"/>
    </contour>
    <contour>
      <point x="111" y="667" type="line"/>
      <point x="111" y="778" type="line"/>
      <point x="222" y="778" type="line"/>
      <point x="222" y="667" type="line"/>
    </contour>
    <contour>
      <point x="222" y="722" type="line"/>
      <point x="222" y="753"/>
      <point x="247" y="778"/>
      <point x="278" y="778" type="curve" smooth="yes"/>
      <point x="309" y="778"/>
      <point x="333" y="753"/>
      <point x="333" y="722" type="curve"/>
      <point x="278" y="722" type="line"/>
      <point x="309" y="722"/>
      <point x="333" y="698"/>
      <point x="333" y="667" type="curve"/>
      <point x="222" y="667" type="line"/>
      <point x="222" y="698"/>
      <point x="247" y="722"/>
      <point x="278" y="722" type="curve"/>
    </contour>
    <contour>
      <point x="333" y="722" type="curve" smooth="yes"/>
      <point x="333" y="753"/>
      <point x="358" y="778"/>
      <point x="389" y="778" type="curve" smooth="yes"/>
      <point x="420" y="778"/>
      <point x="444" y="753"/>
      <point x="444" y="722" type="curve" smooth="yes"/>
      <point x="444" y="691"/>
      <point x="420" y="667"/>
      <point x="389" y="667" type="curve" smooth="yes"/>
      <point x="358" y="667"/>
      <point x="333" y="691"/>
    </contour>
    <contour>
      <point x="444" y="722" type="line"/>
      <point x="444" y="753"/>
      <point x="469" y="778"/>
      <point x="500" y="778" type="curve" smooth="yes"/>
      <point x="531" y="778"/>
      <point x="556" y="753"/>
      <point x="556" y="722" type="curve"/>
      <point x="500" y="722" type="line"/>
      <point x="531" y="722"/>
      <point x="556" y="698"/>
      <point x="556" y="667" type="curve"/>
      <point x="444" y="667" type="line"/>
      <point x="444" y="698"/>
      <point x="469" y="722"/>
      <point x="500" y="722" type="curve"/>
    </contour>
    <contour>
      <point x="556" y="722" type="line"/>
      <point x="556" y="722"/>
      <point x="611" y="778"/>
      <point x="611" y="778" type="curve"/>
      <point x="611" y="778"/>
      <point x="667" y="722"/>
      <point x="667" y="722" type="curve"/>
      <point x="611" y="722" type="line"/>
      <point x="611" y="722"/>
      <point x="667" y="667"/>
      <point x="667" y="667" type="curve"/>
      <point x="556" y="667" type="line"/>
      <point x="556" y="667"/>
      <point x="611" y="722"/>
      <point x="611" y="722" type="curve"/>
    </contour>
    <contour>
      <point x="667" y="722" type="line"/>
      <point x="667" y="722"/>
      <point x="722" y="778"/>
      <point x="722" y="778" type="curve"/>
      <point x="722" y="778"/>
      <point x="778" y="722"/>
      <point x="778" y="722" type="curve"/>
      <point x="722" y="722" type="line"/>
      <point x="722" y="722"/>
      <point x="778" y="667"/>
      <point x="778" y="667" type="curve"/>
      <point x="667" y="667" type="line"/>
      <point x="667" y="667"/>
      <point x="722" y="722"/>
      <point x="722" y="722" type="curve"/>
    </contour>
    <contour>
      <point x="778" y="722" type="line"/>
      <point x="778" y="753"/>
      <point x="802" y="778"/>
      <point x="833" y="778" type="curve" smooth="yes"/>
      <point x="864" y="778"/>
      <point x="889" y="753"/>
      <point x="889" y="722" type="curve"/>
      <point x="833" y="722" type="line"/>
      <point x="864" y="722"/>
      <point x="889" y="698"/>
      <point x="889" y="667" type="curve"/>
      <point x="778" y="667" type="line"/>
      <point x="778" y="698"/>
      <point x="802" y="722"/>
      <point x="833" y="722" type="curve"/>
    </contour>
  </outline>
</glyph>
<glyph name="T" format="1">
  <advance width="1000.0"/>
  <unicode hex="0054"/>
  <outline>
    <contour>
      <point x="333" y="0" type="line"/>
      <point x="333" y="111" type="line"/>
      <point x="444" y="111" type="line"/>
      <point x="444" y="0" type="line"/>
    </contour>
    <contour>
      <point x="556" y="0" type="line"/>
      <point x="444" y="0" type="line"/>
      <point x="444" y="62"/>
      <point x="493" y="111"/>
      <point x="556" y="111" type="curve"/>
    </contour>
    <contour>
      <point x="556" y="56" type="line"/>
      <point x="556" y="87"/>
      <point x="580" y="111"/>
      <point x="611" y="111" type="curve" smooth="yes"/>
      <point x="642" y="111"/>
      <point x="667" y="87"/>
      <point x="667" y="56" type="curve"/>
      <point x="611" y="56" type="line"/>
      <point x="642" y="56"/>
      <point x="667" y="31"/>
      <point x="667" y="0" type="curve"/>
      <point x="556" y="0" type="line"/>
      <point x="556" y="31"/>
      <point x="580" y="56"/>
      <point x="611" y="56" type="curve"/>
    </contour>
    <contour>
      <point x="556" y="111" type="line"/>
      <point x="444" y="111" type="line"/>
      <point x="444" y="173"/>
      <point x="493" y="222"/>
      <point x="556" y="222" type="curve"/>
    </contour>
    <contour>
      <point x="444" y="222" type="line"/>
      <point x="444" y="333" type="line"/>
      <point x="556" y="333" type="line"/>
      <point x="556" y="222" type="line"/>
    </contour>
    <contour>
      <point x="444" y="333" type="line"/>
      <point x="444" y="444" type="line"/>
      <point x="556" y="444" type="line"/>
      <point x="556" y="333" type="line"/>
    </contour>
    <contour>
      <point x="444" y="444" type="line"/>
      <point x="444" y="556" type="line"/>
      <point x="556" y="556" type="line"/>
      <point x="556" y="444" type="line"/>
    </contour>
    <contour>
      <point x="111" y="611" type="line"/>
      <point x="111" y="642"/>
      <point x="136" y="667"/>
      <point x="167" y="667" type="curve" smooth="yes"/>
      <point x="198" y="667"/>
      <point x="222" y="642"/>
      <point x="222" y="611" type="curve"/>
      <point x="167" y="611" type="line"/>
      <point x="198" y="611"/>
      <point x="222" y="587"/>
      <point x="222" y="556" type="curve"/>
      <point x="111" y="556" type="line"/>
      <point x="111" y="587"/>
      <point x="136" y="611"/>
      <point x="167" y="611" type="curve"/>
    </contour>
    <contour>
      <point x="444" y="611" type="line"/>
      <point x="444" y="611"/>
      <point x="500" y="667"/>
      <point x="500" y="667" type="curve"/>
      <point x="500" y="667"/>
      <point x="556" y="611"/>
      <point x="556" y="611" type="curve"/>
      <point x="500" y="611" type="line"/>
      <point x="500" y="611"/>
      <point x="556" y="556"/>
      <point x="556" y="556" type="curve"/>
      <point x="444" y="556" type="line"/>
      <point x="444" y="556"/>
      <point x="500" y="611"/>
      <point x="500" y="611" type="curve"/>
    </contour>
    <contour>
      <point x="778" y="556" type="line"/>
      <point x="778" y="667" type="line"/>
      <point x="889" y="667" type="line"/>
      <point x="889" y="556" type="line"/>
    </contour>
    <contour>
      <point x="111" y="722" type="line"/>
      <point x="111" y="753"/>
      <point x="136" y="778"/>
      <point x="167" y="778" type="curve" smooth="yes"/>
      <point x="198" y="778"/>
      <point x="222" y="753"/>
      <point x="222" y="722" type="curve"/>
      <point x="167" y="722" type="line"/>
      <point x="198" y="722"/>
      <point x="222" y="698"/>
      <point x="222" y="667" type="curve"/>
      <point x="111" y="667" type="line"/>
      <point x="111" y="698"/>
      <point x="136" y="722"/>
      <point x="167" y="722" type="curve"/>
    </contour>
    <contour>
      <point x="222" y="722" type="line"/>
      <point x="222" y="753"/>
      <point x="247" y="778"/>
      <point x="278" y="778" type="curve" smooth="yes"/>
      <point x="309" y="778"/>
      <point x="333" y="753"/>
      <point x="333" y="722" type="curve"/>
      <point x="278" y="722" type="line"/>
      <point x="309" y="722"/>
      <point x="333" y="698"/>
      <point x="333" y="667" type="curve"/>
      <point x="222" y="667" type="line"/>
      <point x="222" y="698"/>
      <point x="247" y="722"/>
      <point x="278" y="722" type="curve"/>
    </contour>
    <contour>
      <point x="333" y="722" type="line"/>
      <point x="333" y="753"/>
      <point x="358" y="778"/>
      <point x="389" y="778" type="curve" smooth="yes"/>
      <point x="420" y="778"/>
      <point x="444" y="753"/>
      <point x="444" y="722" type="curve"/>
      <point x="389" y="722" type="line"/>
      <point x="420" y="722"/>
      <point x="444" y="698"/>
      <point x="444" y="667" type="curve"/>
      <point x="333" y="667" type="line"/>
      <point x="333" y="698"/>
      <point x="358" y="722"/>
      <point x="389" y="722" type="curve"/>
    </contour>
    <contour>
      <point x="444" y="722" type="line"/>
      <point x="444" y="753"/>
      <point x="469" y="778"/>
      <point x="500" y="778" type="curve" smooth="yes"/>
      <point x="531" y="778"/>
      <point x="556" y="753"/>
      <point x="556" y="722" type="curve"/>
      <point x="500" y="722" type="line"/>
      <point x="531" y="722"/>
      <point x="556" y="698"/>
      <point x="556" y="667" type="curve"/>
      <point x="444" y="667" type="line"/>
      <point x="444" y="698"/>
      <point x="469" y="722"/>
      <point x="500" y="722" type="curve"/>
    </contour>
    <contour>
      <point x="667" y="667" type="line"/>
      <point x="556" y="667" type="line"/>
      <point x="556" y="729"/>
      <point x="604" y="778"/>
      <point x="667" y="778" type="curve"/>
    </contour>
    <contour>
      <point x="667" y="722" type="line"/>
      <point x="667" y="753"/>
      <point x="691" y="778"/>
      <point x="722" y="778" type="curve" smooth="yes"/>
      <point x="753" y="778"/>
      <point x="778" y="753"/>
      <point x="778" y="722" type="curve"/>
      <point x="722" y="722" type="line"/>
      <point x="753" y="722"/>
      <point x="778" y="698"/>
      <point x="778" y="667" type="curve"/>
      <point x="667" y="667" type="line"/>
      <point x="667" y="698"/>
      <point x="691" y="722"/>
      <point x="722" y="722" type="curve"/>
    </contour>
    <contour>
      <point x="778" y="722" type="curve" smooth="yes"/>
      <point x="778" y="753"/>
      <point x="802" y="778"/>
      <point x="833" y="778" type="curve" smooth="yes"/>
      <point x="864" y="778"/>
      <point x="889" y="753"/>
      <point x="889" y="722" type="curve" smooth="yes"/>
      <point x="889" y="691"/>
      <point x="864" y="667"/>
      <point x="833" y="667" type="curve" smooth="yes"/>
      <point x="802" y="667"/>
      <point x="778" y="691"/>
    </contour>
  </outline>
</glyph>
<glyph name="V" format="1">
  <advance width="1000.0"/>
  <unicode hex="0056"/>
  <outline>
    <contour>
      <point x="444" y="56" type="curve" smooth="yes"/>
      <point x="444" y="87"/>
      <point x="469" y="111"/>
      <point x="500" y="111" type="curve" smooth="yes"/>
      <point x="531" y="111"/>
      <point x="556" y="87"/>
      <point x="556" y="56" type="curve" smooth="yes"/>
      <point x="556" y="24"/>
      <point x="531" y="0"/>
      <point x="500" y="0" type="curve" smooth="yes"/>
      <point x="469" y="0"/>
      <point x="444" y="24"/>
    </contour>
    <contour>
      <point x="333" y="111" type="line"/>
      <point x="333" y="222" type="line"/>
      <point x="444" y="222" type="line"/>
      <point x="444" y="111" type="line"/>
    </contour>
    <contour>
      <point x="556" y="167" type="curve" smooth="yes"/>
      <point x="556" y="198"/>
      <point x="580" y="222"/>
      <point x="611" y="222" type="curve" smooth="yes"/>
      <point x="642" y="222"/>
      <point x="667" y="198"/>
      <point x="667" y="167" type="curve" smooth="yes"/>
      <point x="667" y="136"/>
      <point x="642" y="111"/>
      <point x="611" y="111" type="curve" smooth="yes"/>
      <point x="580" y="111"/>
      <point x="556" y="136"/>
    </contour>
    <contour>
      <point x="333" y="222" type="line"/>
      <point x="222" y="222" type="line"/>
      <point x="222" y="284"/>
      <point x="271" y="333"/>
      <point x="333" y="333" type="curve"/>
    </contour>
    <contour>
      <point x="667" y="278" type="line"/>
      <point x="667" y="309"/>
      <point x="691" y="333"/>
      <point x="722" y="333" type="curve" smooth="yes"/>
      <point x="753" y="333"/>
      <point x="778" y="309"/>
      <point x="778" y="278" type="curve"/>
      <point x="722" y="278" type="line"/>
      <point x="753" y="278"/>
      <point x="778" y="253"/>
      <point x="778" y="222" type="curve"/>
      <point x="667" y="222" type="line"/>
      <point x="667" y="253"/>
      <point x="691" y="278"/>
      <point x="722" y="278" type="curve"/>
    </contour>
    <contour>
      <point x="222" y="333" type="line"/>
      <point x="222" y="444" type="line"/>
      <point x="333" y="444" type="line"/>
      <point x="333" y="333" type="line"/>
    </contour>
    <contour>
      <point x="778" y="333" type="line"/>
      <point x="667" y="333" type="line"/>
      <point x="667" y="396"/>
      <point x="716" y="444"/>
      <point x="778" y="444" type="curve"/>
    </contour>
    <contour>
      <point x="333" y="444" type="line"/>
      <point x="222" y="444" type="line"/>
      <point x="222" y="507"/>
      <point x="271" y="556"/>
      <point x="333" y="556" type="curve"/>
    </contour>
    <contour>
      <point x="667" y="500" type="line"/>
      <point x="667" y="531"/>
      <point x="691" y="556"/>
      <point x="722" y="556" type="curve" smooth="yes"/>
      <point x="753" y="556"/>
      <point x="778" y="531"/>
      <point x="778" y="500" type="curve"/>
      <point x="722" y="500" type="line"/>
      <point x="753" y="500"/>
      <point x="778" y="476"/>
      <point x="778" y="444" type="curve"/>
      <point x="667" y="444" type="line"/>
      <point x="667" y="476"/>
      <point x="691" y="500"/>
      <point x="722" y="500" type="curve"/>
    </contour>
    <contour>
      <point x="222" y="611" type="line"/>
      <point x="222" y="611"/>
      <point x="278" y="667"/>
      <point x="278" y="667" type="curve"/>
      <point x="278" y="667"/>
      <point x="333" y="611"/>
      <point x="333" y="611" type="curve"/>
      <point x="278" y="611" type="line"/>
      <point x="278" y="611"/>
      <point x="333" y="556"/>
      <point x="333" y="556" type="curve"/>
      <point x="222" y="556" type="line"/>
      <point x="222" y="556"/>
      <point x="278" y="611"/>
      <point x="278" y="611" type="curve"/>
    </contour>
    <contour>
      <point x="667" y="611" type="curve" smooth="yes"/>
      <point x="667" y="642"/>
      <point x="691" y="667"/>
      <point x="722" y="667" type="curve" smooth="yes"/>
      <point x="753" y="667"/>
      <point x="778" y="642"/>
      <point x="778" y="611" type="curve" smooth="yes"/>
      <point x="778" y="580"/>
      <point x="753" y="556"/>
      <point x="722" y="556" type="curve" smooth="yes"/>
      <point x="691" y="556"/>
      <point x="667" y="580"/>
    </contour>
    <contour>
      <point x="111" y="722" type="curve" smooth="yes"/>
      <point x="111" y="753"/>
      <point x="136" y="778"/>
      <point x="167" y="778" type="curve" smooth="yes"/>
      <point x="198" y="778"/>
      <point x="222" y="753"/>
      <point x="222" y="722" type="curve" smooth="yes"/>
      <point x="222" y="691"/>
      <point x="198" y="667"/>
      <point x="167" y="667" type="curve" smooth="yes"/>
      <point x="136" y="667"/>
      <point x="111" y="691"/>
    </contour>
    <contour>
      <point x="222" y="667" type="line"/>
      <point x="222" y="778" type="line"/>
      <point x="333" y="778" type="line"/>
      <point x="333" y="667" type="line"/>
    </contour>
    <contour>
      <point x="667" y="722" type="line"/>
      <point x="667" y="753"/>
      <point x="691" y="778"/>
      <point x="722" y="778" type="curve" smooth="yes"/>
      <point x="753" y="778"/>
      <point x="778" y="753"/>
      <point x="778" y="722" type="curve"/>
      <point x="722" y="722" type="line"/>
      <point x="753" y="722"/>
      <point x="778" y="698"/>
      <point x="778" y="667" type="curve"/>
      <point x="667" y="667" type="line"/>
      <point x="667" y="698"/>
      <point x="691" y="722"/>
      <point x="722" y="722" type="curve"/>
    </contour>
    <contour>
      <point x="778" y="722" type="line"/>
      <point x="778" y="722"/>
      <point x="833" y="778"/>
      <point x="833" y="778" type="curve"/>
      <point x="833" y="778"/>
      <point x="889" y="722"/>
      <point x="889" y="722" type="curve"/>
      <point x="833" y="722" type="line"/>
      <point x="833" y="722"/>
      <point x="889" y="667"/>
      <point x="889" y="667" type="curve"/>
      <point x="778" y="667" type="line"/>
      <point x="778" y="667"/>
      <point x="833" y="722"/>
      <point x="833" y="722" type="curve"/>
    </contour>
  </outline>
</glyph>
<glyph name="X" format="1">
  <advance width="1000.0"/>
  <unicode hex="0058"/>
  <outline>
    <contour>
      <point x="222" y="0" type="line"/>
      <point x="111" y="0" type="line"/>
      <point x="111" y="62"/>
      <point x="160" y="111"/>
      <point x="222" y="111" type="curve"/>
    </contour>
    <contour>
      <point x="333" y="0" type="line"/>
      <point x="222" y="0" type="line"/>
      <point x="222" y="62"/>
      <point x="271" y="111"/>
      <point x="333" y="111" type="curve"/>
    </contour>
    <contour>
      <point x="667" y="0" type="line"/>
      <point x="667" y="111" type="line"/>
      <point x="778" y="111" type="line"/>
      <point x="778" y="0" type="line"/>
    </contour>
    <contour>
      <point x="778" y="56" type="line"/>
      <point x="778" y="87"/>
      <point x="802" y="111"/>
      <point x="833" y="111" type="curve" smooth="yes"/>
      <point x="864" y="111"/>
      <point x="889" y="87"/>
      <point x="889" y="56" type="curve"/>
      <point x="833" y="56" type="line"/>
      <point x="864" y="56"/>
      <point x="889" y="31"/>
      <point x="889" y="0" type="curve"/>
      <point x="778" y="0" type="line"/>
      <point x="778" y="31"/>
      <point x="802" y="56"/>
      <point x="833" y="56" type="curve"/>
    </contour>
    <contour>
      <point x="333" y="111" type="line"/>
      <point x="222" y="111" type="line"/>
      <point x="222" y="173"/>
      <point x="271" y="222"/>
      <point x="333" y="222" type="curve"/>
    </contour>
    <contour>
      <point x="778" y="111" type="line"/>
      <point x="667" y="111" type="line"/>
      <point x="667" y="173"/>
      <point x="716" y="222"/>
      <point x="778" y="222" type="curve"/>
    </contour>
    <contour>
      <point x="333" y="278" type="curve" smooth="yes"/>
      <point x="333" y="309"/>
      <point x="358" y="333"/>
      <point x="389" y="333" type="curve" smooth="yes"/>
      <point x="420" y="333"/>
      <point x="444" y="309"/>
      <point x="444" y="278" type="curve" smooth="yes"/>
      <point x="444" y="247"/>
      <point x="420" y="222"/>
      <point x="389" y="222" type="curve" smooth="yes"/>
      <point x="358" y="222"/>
      <point x="333" y="247"/>
    </contour>
    <contour>
      <point x="556" y="278" type="curve" smooth="yes"/>
      <point x="556" y="309"/>
      <point x="580" y="333"/>
      <point x="611" y="333" type="curve" smooth="yes"/>
      <point x="642" y="333"/>
      <point x="667" y="309"/>
      <point x="667" y="278" type="curve" smooth="yes"/>
      <point x="667" y="247"/>
      <point x="642" y="222"/>
      <point x="611" y="222" type="curve" smooth="yes"/>
      <point x="580" y="222"/>
      <point x="556" y="247"/>
    </contour>
    <contour>
      <point x="444" y="389" type="line"/>
      <point x="444" y="389"/>
      <point x="500" y="444"/>
      <point x="500" y="444" type="curve"/>
      <point x="500" y="444"/>
      <point x="556" y="389"/>
      <point x="556" y="389" type="curve"/>
      <point x="500" y="389" type="line"/>
      <point x="500" y="389"/>
      <point x="556" y="333"/>
      <point x="556" y="333" type="curve"/>
      <point x="444" y="333" type="line"/>
      <point x="444" y="333"/>
      <point x="500" y="389"/>
      <point x="500" y="389" type="curve"/>
    </contour>
    <contour>
      <point x="444" y="444" type="line"/>
      <point x="333" y="444" type="line"/>
      <point x="333" y="507"/>
      <point x="382" y="556"/>
      <point x="444" y="556" type="curve"/>
    </contour>
    <contour>
      <point x="667" y="444" type="line"/>
      <point x="556" y="444" type="line"/>
      <point x="556" y="507"/>
      <point x="604" y="556"/>
      <point x="667" y="556" type="curve"/>
    </contour>
    <contour>
      <point x="333" y="556" type="line"/>
      <point x="222" y="556" type="line"/>
      <point x="222" y="618"/>
      <point x="271" y="667"/>
      <point x="333" y="667" type="curve"/>
    </contour>
    <contour>
      <point x="778" y="556" type="line"/>
      <point x="667" y="556" type="line"/>
      <point x="667" y="618"/>
      <point x="716" y="667"/>
      <point x="778" y="667" type="curve"/>
    </contour>
    <contour>
      <point x="111" y="667" type="line"/>
      <point x="111" y="778" type="line"/>
      <point x="222" y="778" type="line"/>
      <point x="222" y="667" type="line"/>
    </contour>
    <contour>
      <point x="222" y="667" type="line"/>
      <point x="222" y="778" type="line"/>
      <point x="333" y="778" type="line"/>
      <point x="333" y="667" type="line"/>
    </contour>
    <contour>
      <point x="667" y="722" type="line"/>
      <point x="667" y="722"/>
      <point x="722" y="778"/>
      <point x="722" y="778" type="curve"/>
      <point x="722" y="778"/>
      <point x="778" y="722"/>
      <point x="778" y="722" type="curve"/>
      <point x="722" y="722" type="line"/>
      <point x="722" y="722"/>
      <point x="778" y="667"/>
      <point x="778" y="667" type="curve"/>
      <point x="667" y="667" type="line"/>
      <point x="667" y="667"/>
      <point x="722" y="722"/>
      <point x="722" y="722" type="curve"/>
    </contour>
    <contour>
      <point x="889" y="667" type="line"/>
      <point x="778" y="667" type="line"/>
      <point x="778" y="729"/>
      <point x="827" y="778"/>
      <point x="889" y="778" type="curve"/>
    </contour>
  </outline>
</glyph>
<glyph name="Y" format="1">
  <advance width="1000.0"/>
  <unicode hex="0059"/>
  <outline>
    <contour>
      <point x="333" y="56" type="line"/>
      <point x="333" y="87"/>
      <point x="358" y="111"/>
      <point x="389" y="111" type="curve" smooth="yes"/>
      <point x="420" y="111"/>
      <point x="444" y="87"/>
      <point x="444" y="56" type="curve"/>
      <point x="389" y="56" type="line"/>
      <point x="420" y="56"/>
      <point x="444" y="31"/>
      <point x="444" y="0" type="curve"/>
      <point x="333" y="0" type="line"/>
      <point x="333" y="31"/>
      <point x="358" y="56"/>
      <point x="389" y="56" type="curve"/>
    </contour>
    <contour>
      <point x="444" y="0" type="line"/>
      <point x="444" y="111" type="line"/>
      <point x="556" y="111" type="line"/>
      <point x="556" y="0" type="line"/>
    </contour>
    <contour>
      <point x="556" y="0" type="line"/>
      <point x="556" y="111" type="line"/>
      <point x="667" y="111" type="line"/>
      <point x="667" y="0" type="line"/>
    </contour>
    <contour>
      <point x="444" y="167" type="line"/>
      <point x="444" y="198"/>
      <point x="469" y="222"/>
      <point x="500" y="222" type="curve" smooth="yes"/>
      <point x="531" y="222"/>
      <point x="556" y="198"/>
      <point x="556" y="167" type="curve"/>
      <point x="500" y="167" type="line"/>
      <point x="531" y="167"/>
      <point x="556" y="142"/>
      <point x="556" y="111" type="curve"/>
      <point x="444" y="111" type="line"/>
      <point x="444" y="142"/>
      <point x="469" y="167"/>
      <point x="500" y="167" type="curve"/>
    </contour>
    <contour>
      <point x="444" y="278" type="line"/>
      <point x="444" y="309"/>
      <point x="469" y="333"/>
      <point x="500" y="333" type="curve" smooth="yes"/>
      <point x="531" y="333"/>
      <point x="556" y="309"/>
      <point x="556" y="278" type="curve"/>
      <point x="500" y="278" type="line"/>
      <point x="531" y="278"/>
      <point x="556" y="253"/>
      <point x="556" y="222" type="curve"/>
      <point x="444" y="222" type="line"/>
      <point x="444" y="253"/>
      <point x="469" y="278"/>
      <point x="500" y="278" type="curve"/>
    </contour>
    <contour>
      <point x="333" y="389" type="line"/>
      <point x="333" y="389"/>
      <point x="389" y="444"/>
      <point x="389" y="444" type="curve"/>
      <point x="389" y="444"/>
      <point x="444" y="389"/>
      <point x="444" y="389" type="curve"/>
      <point x="389" y="389" type="line"/>
      <point x="389" y="389"/>
      <point x="444" y="333"/>
      <point x="444" y="333" type="curve"/>
      <point x="333" y="333" type="line"/>
      <point x="333" y="333"/>
      <point x="389" y="389"/>
      <point x="389" y="389" type="curve"/>
    </contour>
    <contour>
      <point x="556" y="389" type="curve" smooth="yes"/>
      <point x="556" y="420"/>
      <point x="580" y="444"/>
      <point x="611" y="444" type="curve" smooth="yes"/>
      <point x="642" y="444"/>
      <point x="667" y="420"/>
      <point x="667" y="389" type="curve" smooth="yes"/>
      <point x="667" y="358"/>
      <point x="642" y="333"/>
      <point x="611" y="333" type="curve" smooth="yes"/>
      <point x="580" y="333"/>
      <point x="556" y="358"/>
    </contour>
    <contour>
      <point x="222" y="500" type="curve" smooth="yes"/>
      <point x="222" y="531"/>
      <point x="247" y="556"/>
      <point x="278" y="556" type="curve" smooth="yes"/>
      <point x="309" y="556"/>
      <point x="333" y="531"/>
      <point x="333" y="500" type="curve" smooth="yes"/>
      <point x="333" y="469"/>
      <point x="309" y="444"/>
      <point x="278" y="444" type="curve" smooth="yes"/>
      <point x="247" y="444"/>
      <point x="222" y="469"/>
    </contour>
    <contour>
      <point x="778" y="444" type="line"/>
      <point x="667" y="444" type="line"/>
      <point x="667" y="507"/>
      <point x="716" y="556"/>
      <point x="778" y="556" type="curve"/>
    </contour>
    <contour>
      <point x="333" y="556" type="line"/>
      <point x="222" y="556" type="line"/>
      <point x="222" y="618"/>
      <point x="271" y="667"/>
      <point x="333" y="667" type="curve"/>
    </contour>
    <contour>
      <point x="778" y="556" type="line"/>
      <point x="667" y="556" type="line"/>
      <point x="667" y="618"/>
      <point x="716" y="667"/>
      <point x="778" y="667" type="curve"/>
    </contour>
    <contour>
      <point x="111" y="722" type="line"/>
      <point x="111" y="753"/>
      <point x="136" y="778"/>
      <point x="167" y="778" type="curve" smooth="yes"/>
      <point x="198" y="778"/>
      <point x="222" y="753"/>
      <point x="222" y="722" type="curve"/>
      <point x="167" y="722" type="line"/>
      <point x="198" y="722"/>
      <point x="222" y="698"/>
      <point x="222" y="667" type="curve"/>
      <point x="111" y="667" type="line"/>
      <point x="111" y="698"/>
      <point x="136" y="722"/>
      <point x="167" y="722" type="curve"/>
    </contour>
    <contour>
      <point x="222" y="722" type="curve" smooth="yes"/>
      <point x="222" y="753"/>
      <point x="247" y="778"/>
      <point x="278" y="778" type="curve" smooth="yes"/>
      <point x="309" y="778"/>
      <point x="333" y="753"/>
      <point x="333" y="722" type="curve" smooth="yes"/>
      <point x="333" y="691"/>
      <point x="309" y="667"/>
      <point x="278" y="667" type="curve" smooth="yes"/>
      <point x="247" y="667"/>
      <point x="222" y="691"/>
    </contour>
    <contour>
      <point x="667" y="722" type="line"/>
      <point x="667" y="722"/>
      <point x="722" y="778"/>
      <point x="722" y="778" type="curve"/>
      <point x="722" y="778"/>
      <point x="778" y="722"/>
      <point x="778" y="722" type="curve"/>
      <point x="722" y="722" type="line"/>
      <point x="722" y="722"/>
      <point x="778" y="667"/>
      <point x="778" y="667" type="curve"/>
      <point x="667" y="667" type="line"/>
      <point x="667" y="667"/>
      <point x="722" y="722"/>
      <point x="722" y="722" type="curve"/>
    </contour>
    <contour>
      <point x="778" y="722" type="line"/>
      <point x="778" y="753"/>
      <point x="802" y="778"/>
      <point x="833" y="778" type="curve" smooth="yes"/>
      <point x="864" y="778"/>
      <point x="889" y="753"/>
      <point x="889" y="722" type="curve"/>
      <point x="833" y="722" type="line"/>
      <point x="864" y="722"/>
      <point x="889" y="698"/>
      <point x="889" y="667" type="curve"/>
      <point x="778" y="667" type="line"/>
      <point x="778" y="698"/>
      <point x="802" y="722"/>
      <point x="833" y="722" type="curve"/>
    </contour>
  </outline>
</glyph>
<glyph name="backslash" format="1">
  <advance width="1000.0"/>
  <unicode hex="005C"/>
  <outline>
    <contour>
      <point x="778" y="56" type="line"/>
      <point x="778" y="56"/>
      <point x="833" y="111"/>
      <point x="833" y="111" type="curve"/>
      <point x="833" y="111"/>
      <point x="889" y="56"/>
      <point x="889" y="56" type="curve"/>
      <point x="833" y="56" type="line"/>
      <point x="833" y="56"/>
      <point x="889" y="0"/>
      <point x="889" y="0" type="curve"/>
      <point x="778" y="0" type="line"/>
      <point x="778" y="0"/>
      <point x="833" y="56"/>
      <point x="833" y="56" type="curve"/>
    </contour>
    <contour>
      <point x="667" y="167" type="line"/>
      <point x="667" y="167"/>
      <point x="722" y="222"/>
      <point x="722" y="222" type="curve"/>
      <point x="722" y="222"/>
      <point x="778" y="167"/>
      <point x="778" y="167" type="curve"/>
      <point x="722" y="167" type="line"/>
      <point x="722" y="167"/>
      <point x="778" y="111"/>
      <point x="778" y="111" type="curve"/>
      <point x="667" y="111" type="line"/>
      <point x="667" y="111"/>
      <point x="722" y="167"/>
      <point x="722" y="167" type="curve"/>
    </contour>
    <contour>
      <point x="667" y="222" type="line"/>
      <point x="556" y="222" type="line"/>
      <point x="556" y="284"/>
      <point x="604" y="333"/>
      <point x="667" y="333" type="curve"/>
    </contour>
    <contour>
      <point x="444" y="389" type="line"/>
      <point x="444" y="389"/>
      <point x="500" y="444"/>
      <point x="500" y="444" type="curve"/>
      <point x="500" y="444"/>
      <point x="556" y="389"/>
      <point x="556" y="389" type="curve"/>
      <point x="500" y="389" type="line"/>
      <point x="500" y="389"/>
      <point x="556" y="333"/>
      <point x="556" y="333" type="curve"/>
      <point x="444" y="333" type="line"/>
      <point x="444" y="333"/>
      <point x="500" y="389"/>
      <point x="500" y="389" type="curve"/>
    </contour>
    <contour>
      <point x="333" y="500" type="curve" smooth="yes"/>
      <point x="333" y="531"/>
      <point x="358" y="556"/>
      <point x="389" y="556" type="curve" smooth="yes"/>
      <point x="420" y="556"/>
      <point x="444" y="531"/>
      <point x="444" y="500" type="curve" smooth="yes"/>
      <point x="444" y="469"/>
      <point x="420" y="444"/>
      <point x="389" y="444" type="curve" smooth="yes"/>
      <point x="358" y="444"/>
      <point x="333" y="469"/>
    </contour>
    <contour>
      <point x="222" y="611" type="line"/>
      <point x="222" y="611"/>
      <point x="278" y="667"/>
      <point x="278" y="667" type="curve"/>
      <point x="278" y="667"/>
      <point x="333" y="611"/>
      <point x="333" y="611" type="curve"/>
      <point x="278" y="611" type="line"/>
      <point x="278" y="611"/>
      <point x="333" y="556"/>
      <point x="333" y="556" type="curve"/>
      <point x="222" y="556" type="line"/>
      <point x="222" y="556"/>
      <point x="278" y="611"/>
      <point x="278" y="611" type="curve"/>
    </contour>
    <contour>
      <point x="111" y="667" type="line"/>
      <point x="111" y="778" type="line"/>
      <point x="222" y="778" type="line"/>
      <point x="222" y="667" type="line"/>
    </contour>
  </outline>
</glyph>
<glyph name="b" format="1">
  <advance width="888.8888888888889"/>
  <unicode hex="0062"/>
  <outline>
    <contour>
      <point x="222" y="56" type="line"/>
      <point x="222" y="56"/>
      <point x="278" y="111"/>
      <point x="278" y="111" type="curve"/>
      <point x="278" y="111"/>
      <point x="333" y="56"/>
      <point x="333" y="56" type="curve"/>
      <point x="278" y="56" type="line"/>
      <point x="278" y="56"/>
      <point x="333" y="0"/>
      <point x="333" y="0" type="curve"/>
      <point x="222" y="0" type="line"/>
      <point x="222" y="0"/>
      <point x="278" y="56"/>
      <point x="278" y="56" type="curve"/>
    </contour>
    <contour>
      <point x="333" y="56" type="line"/>
      <point x="333" y="87"/>
      <point x="358" y="111"/>
      <point x="389" y="111" type="curve" smooth="yes"/>
      <point x="420" y="111"/>
      <point x="444" y="87"/>
      <point x="444" y="56" type="curve"/>
      <point x="389" y="56" type="line"/>
      <point x="420" y="56"/>
      <point x="444" y="31"/>
      <point x="444" y="0" type="curve"/>
      <point x="333" y="0" type="line"/>
      <point x="333" y="31"/>
      <point x="358" y="56"/>
      <point x="389" y="56" type="curve"/>
    </contour>
    <contour>
      <point x="444" y="56" type="line"/>
      <point x="444" y="87"/>
      <point x="469" y="111"/>
      <point x="500" y="111" type="curve" smooth="yes"/>
      <point x="531" y="111"/>
      <point x="556" y="87"/>
      <point x="556" y="56" type="curve"/>
      <point x="500" y="56" type="line"/>
      <point x="531" y="56"/>
      <point x="556" y="31"/>
      <point x="556" y="0" type="curve"/>
      <point x="444" y="0" type="line"/>
      <point x="444" y="31"/>
      <point x="469" y="56"/>
      <point x="500" y="56" type="curve"/>
    </contour>
    <contour>
      <point x="667" y="0" type="line"/>
      <point x="556" y="0" type="line"/>
      <point x="556" y="62"/>
      <point x="604" y="111"/>
      <point x="667" y="111" type="curve"/>
    </contour>
    <contour>
      <point x="222" y="111" type="line"/>
      <point x="222" y="222" type="line"/>
      <point x="333" y="222" type="line"/>
      <point x="333" y="111" type="line"/>
    </contour>
    <contour>
      <point x="667" y="167" type="line"/>
      <point x="667" y="198"/>
      <point x="691" y="222"/>
      <point x="722" y="222" type="curve" smooth="yes"/>
      <point x="753" y="222"/>
      <point x="778" y="198"/>
      <point x="778" y="167" type="curve"/>
      <point x="722" y="167" type="line"/>
      <point x="753" y="167"/>
      <point x="778" y="142"/>
      <point x="778" y="111" type="curve"/>
      <point x="667" y="111" type="line"/>
      <point x="667" y="142"/>
      <point x="691" y="167"/>
      <point x="722" y="167" type="curve"/>
    </contour>
    <contour>
      <point x="222" y="278" type="curve" smooth="yes"/>
      <point x="222" y="309"/>
      <point x="247" y="333"/>
      <point x="278" y="333" type="curve" smooth="yes"/>
      <point x="309" y="333"/>
      <point x="333" y="309"/>
      <point x="333" y="278" type="curve" smooth="yes"/>
      <point x="333" y="247"/>
      <point x="309" y="222"/>
      <point x="278" y="222" type="curve" smooth="yes"/>
      <point x="247" y="222"/>
      <point x="222" y="247"/>
    </contour>
    <contour>
      <point x="667" y="278" type="line"/>
      <point x="667" y="309"/>
      <point x="691" y="333"/>
      <point x="722" y="333" type="curve" smooth="yes"/>
      <point x="753" y="333"/>
      <point x="778" y="309"/>
      <point x="778" y="278" type="curve"/>
      <point x="722" y="278" type="line"/>
      <point x="753" y="278"/>
      <point x="778" y="253"/>
      <point x="778" y="222" type="curve"/>
      <point x="667" y="222" type="line"/>
      <point x="667" y="253"/>
      <point x="691" y="278"/>
      <point x="722" y="278" type="curve"/>
    </contour>
    <contour>
      <point x="222" y="389" type="line"/>
      <point x="222" y="420"/>
      <point x="247" y="444"/>
      <point x="278" y="444" type="curve" smooth="yes"/>
      <point x="309" y="444"/>
      <point x="333" y="420"/>
      <point x="333" y="389" type="curve"/>
      <point x="278" y="389" type="line"/>
      <point x="309" y="389"/>
      <point x="333" y="364"/>
      <point x="333" y="333" type="curve"/>
      <point x="222" y="333" type="line"/>
      <point x="222" y="364"/>
      <point x="247" y="389"/>
      <point x="278" y="389" type="curve"/>
    </contour>
    <contour>
      <point x="333" y="389" type="line"/>
      <point x="333" y="420"/>
      <point x="358" y="444"/>
      <point x="389" y="444" type="curve" smooth="yes"/>
      <point x="420" y="444"/>
      <point x="444" y="420"/>
      <point x="444" y="389" type="curve"/>
      <point x="389" y="389" type="line"/>
      <point x="420" y="389"/>
      <point x="444" y="364"/>
      <point x="444" y="333" type="curve"/>
      <point x="333" y="333" type="line"/>
      <point x="333" y="364"/>
      <point x="358" y="389"/>
      <point x="389" y="389" type="curve"/>
    </contour>
    <contour>
      <point x="667" y="389" type="line"/>
      <point x="667" y="389"/>
      <point x="722" y="444"/>
      <point x="722" y="444" type="curve"/>
      <point x="722" y="444"/>
      <point x="778" y="389"/>
      <point x="778" y="389" type="curve"/>
      <point x="722" y="389" type="line"/>
      <point x="722" y="389"/>
      <point x="778" y="333"/>
      <point x="778" y="333" type="curve"/>
      <point x="667" y="333" type="line"/>
      <point x="667" y="333"/>
      <point x="722" y="389"/>
      <point x="722" y="389" type="curve"/>
    </contour>
    <contour>
      <point x="222" y="500" type="curve" smooth="yes"/>
      <point x="222" y="531"/>
      <point x="247" y="556"/>
      <point x="278" y="556" type="curve" smooth="yes"/>
      <point x="309" y="556"/>
      <point x="333" y="531"/>
      <point x="333" y="500" type="curve" smooth="yes"/>
      <point x="333" y="469"/>
      <point x="309" y="444"/>
      <point x="278" y="444" type="curve" smooth="yes"/>
      <point x="247" y="444"/>
      <point x="222" y="469"/>
    </contour>
    <contour>
      <point x="444" y="500" type="curve" smooth="yes"/>
      <point x="444" y="531"/>
      <point x="469" y="556"/>
      <point x="500" y="556" type="curve" smooth="yes"/>
      <point x="531" y="556"/>
      <point x="556" y="531"/>
      <point x="556" y="500" type="curve" smooth="yes"/>
      <point x="556" y="469"/>
      <point x="531" y="444"/>
      <point x="500" y="444" type="curve" smooth="yes"/>
      <point x="469" y="444"/>
      <point x="444" y="469"/>
    </contour>
    <contour>
      <point x="556" y="500" type="curve" smooth="yes"/>
      <point x="556" y="531"/>
      <point x="580" y="556"/>
      <point x="611" y="556" type="curve" smooth="yes"/>
      <point x="642" y="556"/>
      <point x="667" y="531"/>
      <point x="667" y="500" type="curve" smooth="yes"/>
      <point x="667" y="469"/>
      <point x="642" y="444"/>
      <point x="611" y="444" type="curve" smooth="yes"/>
      <point x="580" y="444"/>
      <point x="556" y="469"/>
    </contour>
    <contour>
      <point x="222" y="611" type="curve" smooth="yes"/>
      <point x="222" y="642"/>
      <point x="247" y="667"/>
      <point x="278" y="667" type="curve" smooth="yes"/>
      <point x="309" y="667"/>
      <point x="333" y="642"/>
      <point x="333" y="611" type="curve" smooth="yes"/>
      <point x="333" y="580"/>
      <point x="309" y="556"/>
      <point x="278" y="556" type="curve" smooth="yes"/>
      <point x="247" y="556"/>
      <point x="222" y="580"/>
    </contour>
    <contour>
      <point x="111" y="722" type="line"/>
      <point x="111" y="722"/>
      <point x="167" y="778"/>
      <point x="167" y="778" type="curve"/>
      <point x="167" y="778"/>
      <point x="222" y="722"/>
      <point x="222" y="722" type="curve"/>
      <point x="167" y="722" type="line"/>
      <point x="167" y="722"/>
      <point x="222" y="667"/>
      <point x="222" y="667" type="curve"/>
      <point x="111" y="667" type="line"/>
      <point x="111" y="667"/>
      <point x="167" y="722"/>
      <point x="167" y="722" type="curve"/>
    </contour>
    <contour>
      <point x="222" y="667" type="line"/>
      <point x="222" y="778" type="line"/>
      <point x="333" y="778" type="line"/>
      <point x="333" y="667" type="line"/>
    </contour>
  </outline>
</glyph>
<glyph name="n" format="1">
  <advance width="1000.0"/>
  <unicode hex="006E"/>
  <outline>
    <contour>
      <point x="111" y="0" type="line"/>
      <point x="111" y="111" type="line"/>
      <point x="222" y="111" type="line"/>
      <point x="222" y="0" type="line"/>
    </contour>
    <contour>
      <point x="333" y="0" type="line"/>
      <point x="222" y="0" type="line"/>
      <point x="222" y="62"/>
      <point x="271" y="111"/>
      <point x="333" y="111" type="curve"/>
    </contour>
    <contour>
      <point x="667" y="56" type="curve" smooth="yes"/>
      <point x="667" y="87"/>
      <point x="691" y="111"/>
      <point x="722" y="111" type="curve" smooth="yes"/>
      <point x="753" y="111"/>
      <point x="778" y="87"/>
      <point x="778" y="56" type="curve" smooth="yes"/>
      <point x="778" y="24"/>
      <point x="753" y="0"/>
      <point x="722" y="0" type="curve" smooth="yes"/>
      <point x="691" y="0"/>
      <point x="667" y="24"/>
    </contour>
    <contour>
      <point x="778" y="56" type="line"/>
      <point x="778" y="56"/>
      <point x="833" y="111"/>
      <point x="833" y="111" type="curve"/>
      <point x="833" y="111"/>
      <point x="889" y="56"/>
      <point x="889" y="56" type="curve"/>
      <point x="833" y="56" type="line"/>
      <point x="833" y="56"/>
      <point x="889" y="0"/>
      <point x="889" y="0" type="curve"/>
      <point x="778" y="0" type="line"/>
      <point x="778" y="0"/>
      <point x="833" y="56"/>
      <point x="833" y="56" type="curve"/>
    </contour>
    <contour>
      <point x="333" y="111" type="line"/>
      <point x="222" y="111" type="line"/>
      <point x="222" y="173"/>
      <point x="271" y="222"/>
      <point x="333" y="222" type="curve"/>
    </contour>
    <contour>
      <point x="667" y="167" type="line"/>
      <point x="667" y="167"/>
      <point x="722" y="222"/>
      <point x="722" y="222" type="curve"/>
      <point x="722" y="222"/>
      <point x="778" y="167"/>
      <point x="778" y="167" type="curve"/>
      <point x="722" y="167" type="line"/>
      <point x="722" y="167"/>
      <point x="778" y="111"/>
      <point x="778" y="111" type="curve"/>
      <point x="667" y="111" type="line"/>
      <point x="667" y="111"/>
      <point x="722" y="167"/>
      <point x="722" y="167" type="curve"/>
    </contour>
    <contour>
      <point x="333" y="222" type="line"/>
      <point x="222" y="222" type="line"/>
      <point x="222" y="284"/>
      <point x="271" y="333"/>
      <point x="333" y="333" type="curve"/>
    </contour>
    <contour>
      <point x="667" y="278" type="curve" smooth="yes"/>
      <point x="667" y="309"/>
      <point x="691" y="333"/>
      <point x="722" y="333" type="curve" smooth="yes"/>
      <point x="753" y="333"/>
      <point x="778" y="309"/>
      <point x="778" y="278" type="curve" smooth="yes"/>
      <point x="778" y="247"/>
      <point x="753" y="222"/>
      <point x="722" y="222" type="curve" smooth="yes"/>
      <point x="691" y="222"/>
      <point x="667" y="247"/>
    </contour>
    <contour>
      <point x="333" y="333" type="line"/>
      <point x="222" y="333" type="line"/>
      <point x="222" y="396"/>
      <point x="271" y="444"/>
      <point x="333" y="444" type="curve"/>
    </contour>
    <contour>
      <point x="333" y="389" type="curve" smooth="yes"/>
      <point x="333" y="420"/>
      <point x="358" y="444"/>
      <point x="389" y="444" type="curve" smooth="yes"/>
      <point x="420" y="444"/>
      <point x="444" y="420"/>
      <point x="444" y="389" type="curve" smooth="yes"/>
      <point x="444" y="358"/>
      <point x="420" y="333"/>
      <point x="389" y="333" type="curve" smooth="yes"/>
      <point x="358" y="333"/>
      <point x="333" y="358"/>
    </contour>
    <contour>
      <point x="667" y="389" type="line"/>
      <point x="667" y="420"/>
      <point x="691" y="444"/>
      <point x="722" y="444" type="curve" smooth="yes"/>
      <point x="753" y="444"/>
      <point x="778" y="420"/>
      <point x="778" y="389" type="curve"/>
      <point x="722" y="389" type="line"/>
      <point x="753" y="389"/>
      <point x="778" y="364"/>
      <point x="778" y="333" type="curve"/>
      <point x="667" y="333" type="line"/>
      <point x="667" y="364"/>
      <point x="691" y="389"/>
      <point x="722" y="389" type="curve"/>
    </contour>
    <contour>
      <point x="111" y="444" type="line"/>
      <point x="111" y="556" type="line"/>
      <point x="222" y="556" type="line"/>
      <point x="222" y="444" type="line"/>
    </contour>
    <contour>
      <point x="333" y="444" type="line"/>
      <point x="222" y="444" type="line"/>
      <point x="222" y="507"/>
      <point x="271" y="556"/>
      <point x="333" y="556" type="curve"/>
    </contour>
    <contour>
      <point x="444" y="500" type="line"/>
      <point x="444" y="531"/>
      <point x="469" y="556"/>
      <point x="500" y="556" type="curve" smooth="yes"/>
      <point x="531" y="556"/>
      <point x="556" y="531"/>
      <point x="556" y="500" type="curve"/>
      <point x="500" y="500" type="line"/>
      <point x="531" y="500"/>
      <point x="556" y="476"/>
      <point x="556" y="444" type="curve"/>
      <point x="444" y="444" type="line"/>
      <point x="444" y="476"/>
      <point x="469" y="500"/>
      <point x="500" y="500" type="curve"/>
    </contour>
    <contour>
      <point x="556" y="500" type="line"/>
      <point x="556" y="500"/>
      <point x="611" y="556"/>
      <point x="611" y="556" type="curve"/>
      <point x="611" y="556"/>
      <point x="667" y="500"/>
      <point x="667" y="500" type="curve"/>
      <point x="611" y="500" type="line"/>
      <point x="611" y="500"/>
      <point x="667" y="444"/>
      <point x="667" y="444" type="curve"/>
      <point x="556" y="444" type="line"/>
      <point x="556" y="444"/>
      <point x="611" y="500"/>
      <point x="611" y="500" type="curve"/>
    </contour>
  </outline>
</glyph>
<glyph name="o" format="1">
  <advance width="777.7777777777778"/>
  <unicode hex="006F"/>
  <outline>
    <contour>
      <point x="222" y="0" type="line"/>
      <point x="222" y="111" type="line"/>
      <point x="333" y="111" type="line"/>
      <point x="333" y="0" type="line"/>
    </contour>
    <contour>
      <point x="333" y="56" type="line"/>
      <point x="333" y="87"/>
      <point x="358" y="111"/>
      <point x="389" y="111" type="curve" smooth="yes"/>
      <point x="420" y="111"/>
      <point x="444" y="87"/>
      <point x="444" y="56" type="curve"/>
      <point x="389" y="56" type="line"/>
      <point x="420" y="56"/>
      <point x="444" y="31"/>
      <point x="444" y="0" type="curve"/>
      <point x="333" y="0" type="line"/>
      <point x="333" y="31"/>
      <point x="358" y="56"/>
      <point x="389" y="56" type="curve"/>
    </contour>
    <contour>
      <point x="444" y="56" type="line"/>
      <point x="444" y="56"/>
      <point x="500" y="111"/>
      <point x="500" y="111" type="curve"/>
      <point x="500" y="111"/>
      <point x="556" y="56"/>
      <point x="556" y="56" type="curve"/>
      <point x="500" y="56" type="line"/>
      <point x="500" y="56"/>
      <point x="556" y="0"/>
      <point x="556" y="0" type="curve"/>
      <point x="444" y="0" type="line"/>
      <point x="444" y="0"/>
      <point x="500" y="56"/>
      <point x="500" y="56" type="curve"/>
    </contour>
    <contour>
      <point x="111" y="167" type="curve" smooth="yes"/>
      <point x="111" y="198"/>
      <point x="136" y="222"/>
      <point x="167" y="222" type="curve" smooth="yes"/>
      <point x="198" y="222"/>
      <point x="222" y="198"/>
      <point x="222" y="167" type="curve" smooth="yes"/>
      <point x="222" y="136"/>
      <point x="198" y="111"/>
      <point x="167" y="111" type="curve" smooth="yes"/>
      <point x="136" y="111"/>
      <point x="111" y="136"/>
    </contour>
    <contour>
      <point x="556" y="111" type="line"/>
      <point x="556" y="222" type="line"/>
      <point x="667" y="222" type="line"/>
      <point x="667" y="111" type="line"/>
    </contour>
    <contour>
      <point x="111" y="278" type="line"/>
      <point x="111" y="278"/>
      <point x="167" y="333"/>
      <point x="167" y="333" type="curve"/>
      <point x="167" y="333"/>
      <point x="222" y="278"/>
      <point x="222" y="278" type="curve"/>
      <point x="167" y="278" type="line"/>
      <point x="167" y="278"/>
      <point x="222" y="222"/>
      <point x="222" y="222" type="curve"/>
      <point x="111" y="222" type="line"/>
      <point x="111" y="222"/>
      <point x="167" y="278"/>
      <point x="167" y="278" type="curve"/>
    </contour>
    <contour>
      <point x="556" y="222" type="line"/>
      <point x="556" y="333" type="line"/>
      <point x="667" y="333" type="line"/>
      <point x="667" y="222" type="line"/>
    </contour>
    <contour>
      <point x="111" y="389" type="curve" smooth="yes"/>
      <point x="111" y="420"/>
      <point x="136" y="444"/>
      <point x="167" y="444" type="curve" smooth="yes"/>
      <point x="198" y="444"/>
      <point x="222" y="420"/>
      <point x="222" y="389" type="curve" smooth="yes"/>
      <point x="222" y="358"/>
      <point x="198" y="333"/>
      <point x="167" y="333" type="curve" smooth="yes"/>
      <point x="136" y="333"/>
      <point x="111" y="358"/>
    </contour>
    <contour>
      <point x="556" y="389" type="curve" smooth="yes"/>
      <point x="556" y="420"/>
      <point x="580" y="444"/>
      <point x="611" y="444" type="curve" smooth="yes"/>
      <point x="642" y="444"/>
      <point x="667" y="420"/>
      <point x="667" y="389" type="curve" smooth="yes"/>
      <point x="667" y="358"/>
      <point x="642" y="333"/>
      <point x="611" y="333" type="curve" smooth="yes"/>
      <point x="580" y="333"/>
      <point x="556" y="358"/>
    </contour>
    <contour>
      <point x="222" y="444" type="line"/>
      <point x="222" y="556" type="line"/>
      <point x="333" y="556" type="line"/>
      <point x="333" y="444" type="line"/>
    </contour>
    <contour>
      <point x="333" y="444" type="line"/>
      <point x="333" y="556" type="line"/>
      <point x="444" y="556" type="line"/>
      <point x="444" y="444" type="line"/>
    </contour>
    <contour>
      <point x="444" y="500" type="line"/>
      <point x="444" y="500"/>
      <point x="500" y="556"/>
      <point x="500" y="556" type="curve"/>
      <point x="500" y="556"/>
      <point x="556" y="500"/>
      <point x="556" y="500" type="curve"/>
      <point x="500" y="500" type="line"/>
      <point x="500" y="500"/>
      <point x="556" y="444"/>
      <point x="556" y="444" type="curve"/>
      <point x="444" y="444" type="line"/>
      <point x="444" y="444"/>
      <point x="500" y="500"/>
      <point x="500" y="500" type="curve"/>
    </contour>
  </outline>
</glyph>
<glyph name="s" format="1">
  <advance width="666.6666666666667"/>
  <unicode hex="0073"/>
  <outline>
    <contour>
      <point x="111" y="0" type="line"/>
      <point x="111" y="111" type="line"/>
      <point x="222" y="111" type="line"/>
      <point x="222" y="0" type="line"/>
    </contour>
    <contour>
      <point x="222" y="0" type="line"/>
      <point x="222" y="111" type="line"/>
      <point x="333" y="111" type="line"/>
      <point x="333" y="0" type="line"/>
    </contour>
    <contour>
      <point x="333" y="0" type="line"/>
      <point x="333" y="111" type="line"/>
      <point x="444" y="111" type="line"/>
      <point x="444" y="0" type="line"/>
    </contour>
    <contour>
      <point x="444" y="167" type="line"/>
      <point x="444" y="198"/>
      <point x="469" y="222"/>
      <point x="500" y="222" type="curve" smooth="yes"/>
      <point x="531" y="222"/>
      <point x="556" y="198"/>
      <point x="556" y="167" type="curve"/>
      <point x="500" y="167" type="line"/>
      <point x="531" y="167"/>
      <point x="556" y="142"/>
      <point x="556" y="111" type="curve"/>
      <point x="444" y="111" type="line"/>
      <point x="444" y="142"/>
      <point x="469" y="167"/>
      <point x="500" y="167" type="curve"/>
    </contour>
    <contour>
      <point x="333" y="222" type="line"/>
      <point x="222" y="222" type="line"/>
      <point x="222" y="284"/>
      <point x="271" y="333"/>
      <point x="333" y="333" type="curve"/>
    </contour>
    <contour>
      <point x="333" y="278" type="line"/>
      <point x="333" y="278"/>
      <point x="389" y="333"/>
      <point x="389" y="333" type="curve"/>
      <point x="389" y="333"/>
      <point x="444" y="278"/>
      <point x="444" y="278" type="curve"/>
      <point x="389" y="278" type="line"/>
      <point x="389" y="278"/>
      <point x="444" y="222"/>
      <point x="444" y="222" type="curve"/>
      <point x="333" y="222" type="line"/>
      <point x="333" y="222"/>
      <point x="389" y="278"/>
      <point x="389" y="278" type="curve"/>
    </contour>
    <contour>
      <point x="111" y="389" type="curve" smooth="yes"/>
      <point x="111" y="420"/>
      <point x="136" y="444"/>
      <point x="167" y="444" type="curve" smooth="yes"/>
      <point x="198" y="444"/>
      <point x="222" y="420"/>
      <point x="222" y="389" type="curve" smooth="yes"/>
      <point x="222" y="358"/>
      <point x="198" y="333"/>
      <point x="167" y="333" type="curve" smooth="yes"/>
      <point x="136" y="333"/>
      <point x="111" y="358"/>
    </contour>
    <contour>
      <point x="222" y="500" type="line"/>
      <point x="222" y="531"/>
      <point x="247" y="556"/>
      <point x="278" y="556" type="curve" smooth="yes"/>
      <point x="309" y="556"/>
      <point x="333" y="531"/>
      <point x="333" y="500" type="curve"/>
      <point x="278" y="500" type="line"/>
      <point x="309" y="500"/>
      <point x="333" y="476"/>
      <point x="333" y="444" type="curve"/>
      <point x="222" y="444" type="line"/>
      <point x="222" y="476"/>
      <point x="247" y="500"/>
      <point x="278" y="500" type="curve"/>
    </contour>
    <contour>
      <point x="444" y="444" type="line"/>
      <point x="333" y="444" type="line"/>
      <point x="333" y="507"/>
      <point x="382" y="556"/>
      <point x="444" y="556" type="curve"/>
    </contour>
    <contour>
      <point x="444" y="444" type="line"/>
      <point x="444" y="556" type="line"/>
      <point x="556" y="556" type="line"/>
      <point x="556" y="444" type="line"/>
    </contour>
  </outline>
</glyph>
<glyph name="t" format="1">
  <advance width="666.6666666666667"/>
  <unicode hex="0074"/>
  <outline>
    <contour>
      <point x="333" y="56" type="line"/>
      <point x="333" y="56"/>
      <point x="389" y="111"/>
      <point x="389" y="111" type="curve"/>
      <point x="389" y="111"/>
      <point x="444" y="56"/>
      <point x="444" y="56" type="curve"/>
      <point x="389" y="56" type="line"/>
      <point x="389" y="56"/>
      <point x="444" y="0"/>
      <point x="444" y="0" type="curve"/>
      <point x="333" y="0" type="line"/>
      <point x="333" y="0"/>
      <point x="389" y="56"/>
      <point x="389" y="56" type="curve"/>
    </contour>
    <contour>
      <point x="444" y="56" type="line"/>
      <point x="444" y="87"/>
      <point x="469" y="111"/>
      <point x="500" y="111" type="curve" smooth="yes"/>
      <point x="531" y="111"/>
      <point x="556" y="87"/>
      <point x="556" y="56" type="curve"/>
      <point x="500" y="56" type="line"/>
      <point x="531" y="56"/>
      <point x="556" y="31"/>
      <point x="556" y="0" type="curve"/>
      <point x="444" y="0" type="line"/>
      <point x="444" y="31"/>
      <point x="469" y="56"/>
      <point x="500" y="56" type="curve"/>
    </contour>
    <contour>
      <point x="222" y="167" type="line"/>
      <point x="222" y="198"/>
      <point x="247" y="222"/>
      <point x="278" y="222" type="curve" smooth="yes"/>
      <point x="309" y="222"/>
      <point x="333" y="198"/>
      <point x="333" y="167" type="curve"/>
      <point x="278" y="167" type="line"/>
      <point x="309" y="167"/>
      <point x="333" y="142"/>
      <point x="333" y="111" type="curve"/>
      <point x="222" y="111" type="line"/>
      <point x="222" y="142"/>
      <point x="247" y="167"/>
      <point x="278" y="167" type="curve"/>
    </contour>
    <contour>
      <point x="333" y="222" type="line"/>
      <point x="222" y="222" type="line"/>
      <point x="222" y="284"/>
      <point x="271" y="333"/>
      <point x="333" y="333" type="curve"/>
    </contour>
    <contour>
      <point x="333" y="333" type="line"/>
      <point x="222" y="333" type="line"/>
      <point x="222" y="396"/>
      <point x="271" y="444"/>
      <point x="333" y="444" type="curve"/>
    </contour>
    <contour>
      <point x="111" y="444" type="line"/>
      <point x="111" y="556" type="line"/>
      <point x="222" y="556" type="line"/>
      <point x="222" y="444" type="line"/>
    </contour>
    <contour>
      <point x="222" y="500" type="curve" smooth="yes"/>
      <point x="222" y="531"/>
      <point x="247" y="556"/>
      <point x="278" y="556" type="curve" smooth="yes"/>
      <point x="309" y="556"/>
      <point x="333" y="531"/>
      <point x="333" y="500" type="curve" smooth="yes"/>
      <point x="333" y="469"/>
      <point x="309" y="444"/>
      <point x="278" y="444" type="curve" smooth="yes"/>
      <point x="247" y="444"/>
      <point x="222" y="469"/>
    </contour>
    <contour>
      <point x="333" y="500" type="line"/>
      <point x="333" y="531"/>
      <point x="358" y="556"/>
      <point x="389" y="556" type="curve" smooth="yes"/>
      <point x="420" y="556"/>
      <point x="444" y="531"/>
      <point x="444" y="500" type="curve"/>
      <point x="389" y="500" type="line"/>
      <point x="420" y="500"/>
      <point x="444" y="476"/>
      <point x="444" y="444" type="curve"/>
      <point x="333" y="444" type="line"/>
      <point x="333" y="476"/>
      <point x="358" y="500"/>
      <point x="389" y="500" type="curve"/>
    </contour>
    <contour>
      <point x="444" y="500" type="line"/>
      <point x="444" y="531"/>
      <point x="469" y="556"/>
      <point x="500" y="556" type="curve" smooth="yes"/>
      <point x="531" y="556"/>
      <point x="556" y="531"/>
      <point x="556" y="500" type="curve"/>
      <point x="500" y="500" type="line"/>
      <point x="531" y="500"/>
      <point x="556" y="476"/>
      <point x="556" y="444" type="curve"/>
      <point x="444" y="444" type="line"/>
      <point x="444" y="476"/>
      <point x="469" y="500"/>
      <point x="500" y="500" type="curve"/>
    </contour>
    <contour>
      <point x="222" y="556" type="line"/>
      <point x="222" y="667" type="line"/>
      <point x="333" y="667" type="line"/>
      <point x="333" y="556" type="line"/>
    </contour>
  </outline>
</glyph>
<glyph name="w" format="1">
  <advance width="1222.2222222222222"/>
  <unicode hex="0077"/>
  <outline>
    <contour>
      <point x="222" y="56" type="line"/>
      <point x="222" y="87"/>
      <point x="247" y="111"/>
      <point x="278" y="111" type="curve" smooth="yes"/>
      <point x="309" y="111"/>
      <point x="333" y="87"/>
      <point x="333" y="56" type="curve"/>
      <point x="278" y="56" type="line"/>
      <point x="309" y="56"/>
      <point x="333" y="31"/>
      <point x="333" y="0" type="curve"/>
      <point x="222" y="0" type="line"/>
      <point x="222" y="31"/>
      <point x="247" y="56"/>
      <point x="278" y="56" type="curve"/>
    </contour>
    <contour>
      <point x="333" y="56" type="line"/>
      <point x="333" y="56"/>
      <point x="389" y="111"/>
      <point x="389" y="111" type="curve"/>
      <point x="389" y="111"/>
      <point x="444" y="56"/>
      <point x="444" y="56" type="curve"/>
      <point x="389" y="56" type="line"/>
      <point x="389" y="56"/>
      <point x="444" y="0"/>
      <point x="444" y="0" type="curve"/>
      <point x="333" y="0" type="line"/>
      <point x="333" y="0"/>
      <point x="389" y="56"/>
      <point x="389" y="56" type="curve"/>
    </contour>
    <contour>
      <point x="444" y="0" type="line"/>
      <point x="444" y="111" type="line"/>
      <point x="556" y="111" type="line"/>
      <point x="556" y="0" type="line"/>
    </contour>
    <contour>
      <point x="556" y="0" type="line"/>
      <point x="556" y="111" type="line"/>
      <point x="667" y="111" type="line"/>
      <point x="667" y="0" type="line"/>
    </contour>
    <contour>
      <point x="778" y="0" type="line"/>
      <point x="667" y="0" type="line"/>
      <point x="667" y="62"/>
      <point x="716" y="111"/>
      <point x="778" y="111" type="curve"/>
    </contour>
    <contour>
      <point x="778" y="56" type="line"/>
      <point x="778" y="87"/>
      <point x="802" y="111"/>
      <point x="833" y="111" type="curve" smooth="yes"/>
      <point x="864" y="111"/>
      <point x="889" y="87"/>
      <point x="889" y="56" type="curve"/>
      <point x="833" y="56" type="line"/>
      <point x="864" y="56"/>
      <point x="889" y="31"/>
      <point x="889" y="0" type="curve"/>
      <point x="778" y="0" type="line"/>
      <point x="778" y="31"/>
      <point x="802" y="56"/>
      <point x="833" y="56" type="curve"/>
    </contour>
    <contour>
      <point x="889" y="56" type="line"/>
      <point x="889" y="56"/>
      <point x="944" y="111"/>
      <point x="944" y="111" type="curve"/>
      <point x="944" y="111"/>
      <point x="1000" y="56"/>
      <point x="1000" y="56" type="curve"/>
      <point x="944" y="56" type="line"/>
      <point x="944" y="56"/>
      <point x="1000" y="0"/>
      <point x="1000" y="0" type="curve"/>
      <point x="889" y="0" type="line"/>
      <point x="889" y="0"/>
      <point x="944" y="56"/>
      <point x="944" y="56" type="curve"/>
    </contour>
    <contour>
      <point x="222" y="167" type="line"/>
      <point x="222" y="198"/>
      <point x="247" y="222"/>
      <point x="278" y="222" type="curve" smooth="yes"/>
      <point x="309" y="222"/>
      <point x="333" y="198"/>
      <point x="333" y="167" type="curve"/>
      <point x="278" y="167" type="line"/>
      <point x="309" y="167"/>
      <point x="333" y="142"/>
      <point x="333" y="111" type="curve"/>
      <point x="222" y="111" type="line"/>
      <point x="222" y="142"/>
      <point x="247" y="167"/>
      <point x="278" y="167" type="curve"/>
    </contour>
    <contour>
      <point x="556" y="167" type="line"/>
      <point x="556" y="167"/>
      <point x="611" y="222"/>
      <point x="611" y="222" type="curve"/>
      <point x="611" y="222"/>
      <point x="667" y="167"/>
      <point x="667" y="167" type="curve"/>
      <point x="611" y="167" type="line"/>
      <point x="611" y="167"/>
      <point x="667" y="111"/>
      <point x="667" y="111" type="curve"/>
      <point x="556" y="111" type="line"/>
      <point x="556" y="111"/>
      <point x="611" y="167"/>
      <point x="611" y="167" type="curve"/>
    </contour>
    <contour>
      <point x="1000" y="111" type="line"/>
      <point x="889" y="111" type="line"/>
      <point x="889" y="173"/>
      <point x="938" y="222"/>
      <point x="1000" y="222" type="curve"/>
    </contour>
    <contour>
      <point x="222" y="278" type="line"/>
      <point x="222" y="278"/>
      <point x="278" y="333"/>
      <point x="278" y="333" type="curve"/>
      <point x="278" y="333"/>
      <point x="333" y="278"/>
      <point x="333" y="278" type="curve"/>
      <point x="278" y="278" type="line"/>
      <point x="278" y="278"/>
      <point x="333" y="222"/>
      <point x="333" y="222" type="curve"/>
      <point x="222" y="222" type="line"/>
      <point x="222" y="222"/>
      <point x="278" y="278"/>
      <point x="278" y="278" type="curve"/>
    </contour>
    <contour>
      <point x="556" y="278" type="curve" smooth="yes"/>
      <point x="556" y="309"/>
      <point x="580" y="333"/>
      <point x="611" y="333" type="curve" smooth="yes"/>
      <point x="642" y="333"/>
      <point x="667" y="309"/>
      <point x="667" y="278" type="curve" smooth="yes"/>
      <point x="667" y="247"/>
      <point x="642" y="222"/>
      <point x="611" y="222" type="curve" smooth="yes"/>
      <point x="580" y="222"/>
      <point x="556" y="247"/>
    </contour>
    <contour>
      <point x="889" y="278" type="curve" smooth="yes"/>
      <point x="889" y="309"/>
      <point x="913" y="333"/>
      <point x="944" y="333" type="curve" smooth="yes"/>
      <point x="976" y="333"/>
      <point x="1000" y="309"/>
      <point x="1000" y="278" type="curve" smooth="yes"/>
      <point x="1000" y="247"/>
      <point x="976" y="222"/>
      <point x="944" y="222" type="curve" smooth="yes"/>
      <point x="913" y="222"/>
      <point x="889" y="247"/>
    </contour>
    <contour>
      <point x="222" y="333" type="line"/>
      <point x="222" y="444" type="line"/>
      <point x="333" y="444" type="line"/>
      <point x="333" y="333" type="line"/>
    </contour>
    <contour>
      <point x="667" y="333" type="line"/>
      <point x="556" y="333" type="line"/>
      <point x="556" y="396"/>
      <point x="604" y="444"/>
      <point x="667" y="444" type="curve"/>
    </contour>
    <contour>
      <point x="889" y="389" type="curve" smooth="yes"/>
      <point x="889" y="420"/>
      <point x="913" y="444"/>
      <point x="944" y="444" type="curve" smooth="yes"/>
      <point x="976" y="444"/>
      <point x="1000" y="420"/>
      <point x="1000" y="389" type="curve" smooth="yes"/>
      <point x="1000" y="358"/>
      <point x="976" y="333"/>
      <point x="944" y="333" type="curve" smooth="yes"/>
      <point x="913" y="333"/>
      <point x="889" y="358"/>
    </contour>
    <contour>
      <point x="111" y="500" type="line"/>
      <point x="111" y="531"/>
      <point x="136" y="556"/>
      <point x="167" y="556" type="curve" smooth="yes"/>
      <point x="198" y="556"/>
      <point x="222" y="531"/>
      <point x="222" y="500" type="curve"/>
      <point x="167" y="500" type="line"/>
      <point x="198" y="500"/>
      <point x="222" y="476"/>
      <point x="222" y="444" type="curve"/>
      <point x="111" y="444" type="line"/>
      <point x="111" y="476"/>
      <point x="136" y="500"/>
      <point x="167" y="500" type="curve"/>
    </contour>
    <contour>
      <point x="222" y="444" type="line"/>
      <point x="222" y="556" type="line"/>
      <point x="333" y="556" type="line"/>
      <point x="333" y="444" type="line"/>
    </contour>
    <contour>
      <point x="889" y="444" type="line"/>
      <point x="889" y="556" type="line"/>
      <point x="1000" y="556" type="line"/>
      <point x="1000" y="444" type="line"/>
    </contour>
    <contour>
      <point x="1000" y="500" type="curve" smooth="yes"/>
      <point x="1000" y="531"/>
      <point x="1024" y="556"/>
      <point x="1056" y="556" type="curve" smooth="yes"/>
      <point x="1087" y="556"/>
      <point x="1111" y="531"/>
      <point x="1111" y="500" type="curve" smooth="yes"/>
      <point x="1111" y="469"/>
      <point x="1087" y="444"/>
      <point x="1056" y="444" type="curve" smooth="yes"/>
      <point x="1024" y="444"/>
      <point x="1000" y="469"/>
    </contour>
  </outline>
</glyph>
<glyph name="x" format="1">
  <advance width="1000.0"/>
  <unicode hex="0078"/>
  <outline>
    <contour>
      <point x="111" y="56" type="line"/>
      <point x="111" y="56"/>
      <point x="167" y="111"/>
      <point x="167" y="111" type="curve"/>
      <point x="167" y="111"/>
      <point x="222" y="56"/>
      <point x="222" y="56" type="curve"/>
      <point x="167" y="56" type="line"/>
      <point x="167" y="56"/>
      <point x="222" y="0"/>
      <point x="222" y="0" type="curve"/>
      <point x="111" y="0" type="line"/>
      <point x="111" y="0"/>
      <point x="167" y="56"/>
      <point x="167" y="56" type="curve"/>
    </contour>
    <contour>
      <point x="222" y="56" type="line"/>
      <point x="222" y="56"/>
      <point x="278" y="111"/>
      <point x="278" y="111" type="curve"/>
      <point x="278" y="111"/>
      <point x="333" y="56"/>
      <point x="333" y="56" type="curve"/>
      <point x="278" y="56" type="line"/>
      <point x="278" y="56"/>
      <point x="333" y="0"/>
      <point x="333" y="0" type="curve"/>
      <point x="222" y="0" type="line"/>
      <point x="222" y="0"/>
      <point x="278" y="56"/>
      <point x="278" y="56" type="curve"/>
    </contour>
    <contour>
      <point x="667" y="56" type="line"/>
      <point x="667" y="56"/>
      <point x="722" y="111"/>
      <point x="722" y="111" type="curve"/>
      <point x="722" y="111"/>
      <point x="778" y="56"/>
      <point x="778" y="56" type="curve"/>
      <point x="722" y="56" type="line"/>
      <point x="722" y="56"/>
      <point x="778" y="0"/>
      <point x="778" y="0" type="curve"/>
      <point x="667" y="0" type="line"/>
      <point x="667" y="0"/>
      <point x="722" y="56"/>
      <point x="722" y="56" type="curve"/>
    </contour>
    <contour>
      <point x="778" y="0" type="line"/>
      <point x="778" y="111" type="line"/>
      <point x="889" y="111" type="line"/>
      <point x="889" y="0" type="line"/>
    </contour>
    <contour>
      <point x="333" y="167" type="line"/>
      <point x="333" y="167"/>
      <point x="389" y="222"/>
      <point x="389" y="222" type="curve"/>
      <point x="389" y="222"/>
      <point x="444" y="167"/>
      <point x="444" y="167" type="curve"/>
      <point x="389" y="167" type="line"/>
      <point x="389" y="167"/>
      <point x="444" y="111"/>
      <point x="444" y="111" type="curve"/>
      <point x="333" y="111" type="line"/>
      <point x="333" y="111"/>
      <point x="389" y="167"/>
      <point x="389" y="167" type="curve"/>
    </contour>
    <contour>
      <point x="556" y="167" type="line"/>
      <point x="556" y="167"/>
      <point x="611" y="222"/>
      <point x="611" y="222" type="curve"/>
      <point x="611" y="222"/>
      <point x="667" y="167"/>
      <point x="667" y="167" type="curve"/>
      <point x="611" y="167" type="line"/>
      <point x="611" y="167"/>
      <point x="667" y="111"/>
      <point x="667" y="111" type="curve"/>
      <point x="556" y="111" type="line"/>
      <point x="556" y="111"/>
      <point x="611" y="167"/>
      <point x="611" y="167" type="curve"/>
    </contour>
    <contour>
      <point x="444" y="278" type="curve" smooth="yes"/>
      <point x="444" y="309"/>
      <point x="469" y="333"/>
      <point x="500" y="333" type="curve" smooth="yes"/>
      <point x="531" y="333"/>
      <point x="556" y="309"/>
      <point x="556" y="278" type="curve" smooth="yes"/>
      <point x="556" y="247"/>
      <point x="531" y="222"/>
      <point x="500" y="222" type="curve" smooth="yes"/>
      <point x="469" y="222"/>
      <point x="444" y="247"/>
    </contour>
    <contour>
      <point x="333" y="389" type="line"/>
      <point x="333" y="389"/>
      <point x="389" y="444"/>
      <point x="389" y="444" type="curve"/>
      <point x="389" y="444"/>
      <point x="444" y="389"/>
      <point x="444" y="389" type="curve"/>
      <point x="389" y="389" type="line"/>
      <point x="389" y="389"/>
      <point x="444" y="333"/>
      <point x="444" y="333" type="curve"/>
      <point x="333" y="333" type="line"/>
      <point x="333" y="333"/>
      <point x="389" y="389"/>
      <point x="389" y="389" type="curve"/>
    </contour>
    <contour>
      <point x="556" y="389" type="curve" smooth="yes"/>
      <point x="556" y="420"/>
      <point x="580" y="444"/>
      <point x="611" y="444" type="curve" smooth="yes"/>
      <point x="642" y="444"/>
      <point x="667" y="420"/>
      <point x="667" y="389" type="curve" smooth="yes"/>
      <point x="667" y="358"/>
      <point x="642" y="333"/>
      <point x="611" y="333" type="curve" smooth="yes"/>
      <point x="580" y="333"/>
      <point x="556" y="358"/>
    </contour>
    <contour>
      <point x="111" y="444" type="line"/>
      <point x="111" y="556" type="line"/>
      <point x="222" y="556" type="line"/>
      <point x="222" y="444" type="line"/>
    </contour>
    <contour>
      <point x="222" y="444" type="line"/>
      <point x="222" y="556" type="line"/>
      <point x="333" y="556" type="line"/>
      <point x="333" y="444" type="line"/>
    </contour>
    <contour>
      <point x="667" y="500" type="curve" smooth="yes"/>
      <point x="667" y="531"/>
      <point x="691" y="556"/>
      <point x="722" y="556" type="curve" smooth="yes"/>
      <point x="753" y="556"/>
      <point x="778" y="531"/>
      <point x="778" y="500" type="curve" smooth="yes"/>
      <point x="778" y="469"/>
      <point x="753" y="444"/>
      <point x="722" y="444" type="curve" smooth="yes"/>
      <point x="691" y="444"/>
      <point x="667" y="469"/>
    </contour>
    <contour>
      <point x="778" y="500" type="line"/>
      <point x="778" y="531"/>
      <point x="802" y="556"/>
      <point x="833" y="556" type="curve" smooth="yes"/>
      <point x="864" y="556"/>
      <point x="889" y="531"/>
      <point x="889" y="500" type="curve"/>
      <point x="833" y="500" type="line"/>
      <point x="864" y="500"/>
      <point x="889" y="476"/>
      <point x="889" y="444" type="curve"/>
      <point x="778" y="444" type="line"/>
      <point x="778" y="476"/>
      <point x="802" y="500"/>
      <point x="833" y="500" type="curve"/>
    </contour>
  </outline>
</glyph>
<glyph name="y" format="1">
  <advance width="1000.0"/>
  <unicode hex="0079"/>
  <outline>
    <contour>
      <point x="222" y="-167" type="line"/>
      <point x="222" y="-167"/>
      <point x="278" y="-111"/>
      <point x="278" y="-111" type="curve"/>
      <point x="278" y="-111"/>
      <point x="333" y="-167"/>
      <point x="333" y="-167" type="curve"/>
      <point x="278" y="-167" type="line"/>
      <point x="278" y="-167"/>
      <point x="333" y="-222"/>
      <point x="333" y="-222" type="curve"/>
      <point x="222" y="-222" type="line"/>
      <point x="222" y="-222"/>
      <point x="278" y="-167"/>
      <point x="278" y="-167" type="curve"/>
    </contour>
    <contour>
      <point x="333" y="-167" type="curve" smooth="yes"/>
      <point x="333" y="-136"/>
      <point x="358" y="-111"/>
      <point x="389" y="-111" type="curve" smooth="yes"/>
      <point x="420" y="-111"/>
      <point x="444" y="-136"/>
      <point x="444" y="-167" type="curve" smooth="yes"/>
      <point x="444" y="-198"/>
      <point x="420" y="-222"/>
      <point x="389" y="-222" type="curve" smooth="yes"/>
      <point x="358" y="-222"/>
      <point x="333" y="-198"/>
    </contour>
    <contour>
      <point x="444" y="-56" type="curve" smooth="yes"/>
      <point x="444" y="-24"/>
      <point x="469" y="0"/>
      <point x="500" y="0" type="curve" smooth="yes"/>
      <point x="531" y="0"/>
      <point x="556" y="-24"/>
      <point x="556" y="-56" type="curve" smooth="yes"/>
      <point x="556" y="-87"/>
      <point x="531" y="-111"/>
      <point x="500" y="-111" type="curve" smooth="yes"/>
      <point x="469" y="-111"/>
      <point x="444" y="-87"/>
    </contour>
    <contour>
      <point x="444" y="56" type="curve" smooth="yes"/>
      <point x="444" y="87"/>
      <point x="469" y="111"/>
      <point x="500" y="111" type="curve" smooth="yes"/>
      <point x="531" y="111"/>
      <point x="556" y="87"/>
      <point x="556" y="56" type="curve" smooth="yes"/>
      <point x="556" y="24"/>
      <point x="531" y="0"/>
      <point x="500" y="0" type="curve" smooth="yes"/>
      <point x="469" y="0"/>
      <point x="444" y="24"/>
    </contour>
    <contour>
      <point x="444" y="111" type="line"/>
      <point x="333" y="111" type="line"/>
      <point x="333" y="173"/>
      <point x="382" y="222"/>
      <point x="444" y="222" type="curve"/>
    </contour>
    <contour>
      <point x="556" y="111" type="line"/>
      <point x="556" y="222" type="line"/>
      <point x="667" y="222" type="line"/>
      <point x="667" y="111" type="line"/>
    </contour>
    <contour>
      <point x="222" y="278" type="curve" smooth="yes"/>
      <point x="222" y="309"/>
      <point x="247" y="333"/>
      <point x="278" y="333" type="curve" smooth="yes"/>
      <point x="309" y="333"/>
      <point x="333" y="309"/>
      <point x="333" y="278" type="curve" smooth="yes"/>
      <point x="333" y="247"/>
      <point x="309" y="222"/>
      <point x="278" y="222" type="curve" smooth="yes"/>
      <point x="247" y="222"/>
      <point x="222" y="247"/>
    </contour>
    <contour>
      <point x="667" y="222" type="line"/>
      <point x="667" y="333" type="line"/>
      <point x="778" y="333" type="line"/>
      <point x="778" y="222" type="line"/>
    </contour>
    <contour>
      <point x="222" y="389" type="curve" smooth="yes"/>
      <point x="222" y="420"/>
      <point x="247" y="444"/>
      <point x="278" y="444" type="curve" smooth="yes"/>
      <point x="309" y="444"/>
      <point x="333" y="420"/>
      <point x="333" y="389" type="curve" smooth="yes"/>
      <point x="333" y="358"/>
      <point x="309" y="333"/>
      <point x="278" y="333" type="curve" smooth="yes"/>
      <point x="247" y="333"/>
      <point x="222" y="358"/>
    </contour>
    <contour>
      <point x="667" y="389" type="line"/>
      <point x="667" y="420"/>
      <point x="691" y="444"/>
      <point x="722" y="444" type="curve" smooth="yes"/>
      <point x="753" y="444"/>
      <point x="778" y="420"/>
      <point x="778" y="389" type="curve"/>
      <point x="722" y="389" type="line"/>
      <point x="753" y="389"/>
      <point x="778" y="364"/>
      <point x="778" y="333" type="curve"/>
      <point x="667" y="333" type="line"/>
      <point x="667" y="364"/>
      <point x="691" y="389"/>
      <point x="722" y="389" type="curve"/>
    </contour>
    <contour>
      <point x="111" y="500" type="line"/>
      <point x="111" y="531"/>
      <point x="136" y="556"/>
      <point x="167" y="556" type="curve" smooth="yes"/>
      <point x="198" y="556"/>
      <point x="222" y="531"/>
      <point x="222" y="500" type="curve"/>
      <point x="167" y="500" type="line"/>
      <point x="198" y="500"/>
      <point x="222" y="476"/>
      <point x="222" y="444" type="curve"/>
      <point x="111" y="444" type="line"/>
      <point x="111" y="476"/>
      <point x="136" y="500"/>
      <point x="167" y="500" type="curve"/>
    </contour>
    <contour>
      <point x="222" y="444" type="line"/>
      <point x="222" y="556" type="line"/>
      <point x="333" y="556" type="line"/>
      <point x="333" y="444" type="line"/>
    </contour>
    <contour>
      <point x="778" y="444" type="line"/>
      <point x="667" y="444" type="line"/>
      <point x="667" y="507"/>
      <point x="716" y="556"/>
      <point x="778" y="556" type="curve"/>
    </contour>
    <contour>
      <point x="778" y="500" type="line"/>
      <point x="778" y="500"/>
      <point x="833" y="556"/>
      <point x="833" y="556" type="curve"/>
      <point x="833" y="556"/>
      <point x="889" y="500"/>
      <point x="889" y="500" type="curve"/>
      <point x="833" y="500" type="line"/>
      <point x="833" y="500"/>
      <point x="889" y="444"/>
      <point x="889" y="444" type="curve"/>
      <point x="778" y="444" type="line"/>
      <point x="778" y="444"/>
      <point x="833" y="500"/>
      <point x="833" y="500" type="curve"/>
    </contour>
  </outline>
</glyph>
<glyph name="braceleft" format="1">
  <advance width="666.6666666666667"/>
  <unicode hex="007B"/>
  <outline>
    <contour>
      <point x="333" y="56" type="line"/>
      <point x="333" y="56"/>
      <point x="389" y="111"/>
      <point x="389" y="111" type="curve"/>
      <point x="389" y="111"/>
      <point x="444" y="56"/>
      <point x="444" y="56" type="curve"/>
      <point x="389" y="56" type="line"/>
      <point x="389" y="56"/>
      <point x="444" y="0"/>
      <point x="444" y="0" type="curve"/>
      <point x="333" y="0" type="line"/>
      <point x="333" y="0"/>
      <point x="389" y="56"/>
      <point x="389" y="56" type="curve"/>
    </contour>
    <contour>
      <point x="444" y="56" type="line"/>
      <point x="444" y="87"/>
      <point x="469" y="111"/>
      <point x="500" y="111" type="curve" smooth="yes"/>
      <point x="531" y="111"/>
      <point x="556" y="87"/>
      <point x="556" y="56" type="curve"/>
      <point x="500" y="56" type="line"/>
      <point x="531" y="56"/>
      <point x="556" y="31"/>
      <point x="556" y="0" type="curve"/>
      <point x="444" y="0" type="line"/>
      <point x="444" y="31"/>
      <point x="469" y="56"/>
      <point x="500" y="56" type="curve"/>
    </contour>
    <contour>
      <point x="222" y="167" type="curve" smooth="yes"/>
      <point x="222" y="198"/>
      <point x="247" y="222"/>
      <point x="278" y="222" type="curve" smooth="yes"/>
      <point x="309" y="222"/>
      <point x="333" y="198"/>
      <point x="333" y="167" type="curve" smooth="yes"/>
      <point x="333" y="136"/>
      <point x="309" y="111"/>
      <point x="278" y="111" type="curve" smooth="yes"/>
      <point x="247" y="111"/>
      <point x="222" y="136"/>
    </contour>
    <contour>
      <point x="222" y="278" type="line"/>
      <point x="222" y="278"/>
      <point x="278" y="333"/>
      <point x="278" y="333" type="curve"/>
      <point x="278" y="333"/>
      <point x="333" y="278"/>
      <point x="333" y="278" type="curve"/>
      <point x="278" y="278" type="line"/>
      <point x="278" y="278"/>
      <point x="333" y="222"/>
      <point x="333" y="222" type="curve"/>
      <point x="222" y="222" type="line"/>
      <point x="222" y="222"/>
      <point x="278" y="278"/>
      <point x="278" y="278" type="curve"/>
    </contour>
    <contour>
      <point x="222" y="333" type="line"/>
      <point x="111" y="333" type="line"/>
      <point x="111" y="396"/>
      <point x="160" y="444"/>
      <point x="222" y="444" type="curve"/>
    </contour>
    <contour>
      <point x="333" y="444" type="line"/>
      <point x="222" y="444" type="line"/>
      <point x="222" y="507"/>
      <point x="271" y="556"/>
      <point x="333" y="556" type="curve"/>
    </contour>
    <contour>
      <point x="333" y="556" type="line"/>
      <point x="222" y="556" type="line"/>
      <point x="222" y="618"/>
      <point x="271" y="667"/>
      <point x="333" y="667" type="curve"/>
    </contour>
    <contour>
      <point x="333" y="722" type="line"/>
      <point x="333" y="753"/>
      <point x="358" y="778"/>
      <point x="389" y="778" type="curve" smooth="yes"/>
      <point x="420" y="778"/>
      <point x="444" y="753"/>
      <point x="444" y="722" type="curve"/>
      <point x="389" y="722" type="line"/>
      <point x="420" y="722"/>
      <point x="444" y="698"/>
      <point x="444" y="667" type="curve"/>
      <point x="333" y="667" type="line"/>
      <point x="333" y="698"/>
      <point x="358" y="722"/>
      <point x="389" y="722" type="curve"/>
    </contour>
    <contour>
      <point x="444" y="722" type="line"/>
      <point x="444" y="753"/>
      <point x="469" y="778"/>
      <point x="500" y="778" type="curve" smooth="yes"/>
      <point x="531" y="778"/>
      <point x="556" y="753"/>
      <point x="556" y="722" type="curve"/>
      <point x="500" y="722" type="line"/>
      <point x="531" y="722"/>
      <point x="556" y="698"/>
      <point x="556" y="667" type="curve"/>
      <point x="444" y="667" type="line"/>
      <point x="444" y="698"/>
      <point x="469" y="722"/>
      <point x="500" y="722" type="curve"/>
    </contour>
  </outline>
</glyph>
<glyph name="degree" format="1">
  <advance width="555.5555555555555"/>
  <unicode hex="00B0"/>
  <outline>
    <contour>
      <point x="222" y="444" type="line"/>
      <point x="111" y="444" type="line"/>
      <point x="111" y="507"/>
      <point x="160" y="556"/>
      <point x="222" y="556" type="curve"/>
    </contour>
    <contour>
      <point x="333" y="444" type="line"/>
      <point x="222" y="444" type="line"/>
      <point x="222" y="507"/>
      <point x="271" y="556"/>
      <point x="333" y="556" type="curve"/>
    </contour>
    <contour>
      <point x="444" y="444" type="line"/>
      <point x="333" y="444" type="line"/>
      <point x="333" y="507"/>
      <point x="382" y="556"/>
      <point x="444" y="556" type="curve"/>
    </contour>
    <contour>
      <point x="111" y="556" type="line"/>
      <point x="111" y="667" type="line"/>
      <point x="222" y="667" type="line"/>
      <point x="222" y="556" type="line"/>
    </contour>
    <contour>
      <point x="333" y="611" type="curve" smooth="yes"/>
      <point x="333" y="642"/>
      <point x="358" y="667"/>
      <point x="389" y="667" type="curve" smooth="yes"/>
      <point x="420" y="667"/>
      <point x="444" y="642"/>
      <point x="444" y="611" type="curve" smooth="yes"/>
      <point x="444" y="580"/>
      <point x="420" y="556"/>
      <point x="389" y="556" type="curve" smooth="yes"/>
      <point x="358" y="556"/>
      <point x="333" y="580"/>
    </contour>
    <contour>
      <point x="111" y="667" type="line"/>
      <point x="111" y="778" type="line"/>
      <point x="222" y="778" type="line"/>
      <point x="222" y="667" type="line"/>
    </contour>
    <contour>
      <point x="222" y="722" type="curve" smooth="yes"/>
      <point x="222" y="753"/>
      <point x="247" y="778"/>
      <point x="278" y="778" type="curve" smooth="yes"/>
      <point x="309" y="778"/>
      <point x="333" y="753"/>
      <point x="333" y="722" type="curve" smooth="yes"/>
      <point x="333" y="691"/>
      <point x="309" y="667"/>
      <point x="278" y="667" type="curve" smooth="yes"/>
      <point x="247" y="667"/>
      <point x="222" y="691"/>
    </contour>
    <contour>
      <point x="333" y="722" type="line"/>
      <point x="333" y="753"/>
      <point x="358" y="778"/>
      <point x="389" y="778" type="curve" smooth="yes"/>
      <point x="420" y="778"/>
      <point x="444" y="753"/>
      <point x="444" y="722" type="curve"/>
      <point x="389" y="722" type="line"/>
      <point x="420" y="722"/>
      <point x="444" y="698"/>
      <point x="444" y="667" type="curve"/>
      <point x="333" y="667" type="line"/>
      <point x="333" y="698"/>
      <point x="358" y="722"/>
      <point x="389" y="722" type="curve"/>
    </contour>
  </outline>
</glyph>
<glyph name="acute" format="1">
  <advance width="555.5555555555555"/>
  <unicode hex="00B4"/>
  <outline>
    <contour>
      <point x="111" y="722" type="line"/>
      <point x="111" y="722"/>
      <point x="167" y="778"/>
      <point x="167" y="778" type="curve"/>
      <point x="167" y="778"/>
      <point x="222" y="722"/>
      <point x="222" y="722" type="curve"/>
      <point x="167" y="722" type="line"/>
      <point x="167" y="722"/>
      <point x="222" y="667"/>
      <point x="222" y="667" type="curve"/>
      <point x="111" y="667" type="line"/>
      <point x="111" y="667"/>
      <point x="167" y="722"/>
      <point x="167" y="722" type="curve"/>
    </contour>
    <contour>
      <point x="333" y="667" type="line"/>
      <point x="222" y="667" type="line"/>
      <point x="222" y="729"/>
      <point x="271" y="778"/>
      <point x="333" y="778" type="curve"/>
    </contour>
    <contour>
      <point x="222" y="833" type="line"/>
      <point x="222" y="833"/>
      <point x="278" y="889"/>
      <point x="278" y="889" type="curve"/>
      <point x="278" y="889"/>
      <point x="333" y="833"/>
      <point x="333" y="833" type="curve"/>
      <point x="278" y="833" type="line"/>
      <point x="278" y="833"/>
      <point x="333" y="778"/>
      <point x="333" y="778" type="curve"/>
      <point x="222" y="778" type="line"/>
      <point x="222" y="778"/>
      <point x="278" y="833"/>
      <point x="278" y="833" type="curve"/>
    </contour>
    <contour>
      <point x="444" y="778" type="line"/>
      <point x="333" y="778" type="line"/>
      <point x="333" y="840"/>
      <point x="382" y="889"/>
      <point x="444" y="889" type="curve"/>
    </contour>
  </outline>
</glyph>
<glyph name="circumflex" format="1">
  <advance width="555.5555555555555"/>
  <unicode hex="02C6"/>
  <outline>
    <contour>
      <point x="111" y="667" type="line"/>
      <point x="111" y="778" type="line"/>
      <point x="222" y="778" type="line"/>
      <point x="222" y="667" type="line"/>
    </contour>
    <contour>
      <point x="444" y="667" type="line"/>
      <point x="333" y="667" type="line"/>
      <point x="333" y="729"/>
      <point x="382" y="778"/>
      <point x="444" y="778" type="curve"/>
    </contour>
    <contour>
      <point x="222" y="833" type="line"/>
      <point x="222" y="833"/>
      <point x="278" y="889"/>
      <point x="278" y="889" type="curve"/>
      <point x="278" y="889"/>
      <point x="333" y="833"/>
      <point x="333" y="833" type="curve"/>
      <point x="278" y="833" type="line"/>
      <point x="278" y="833"/>
      <point x="333" y="778"/>
      <point x="333" y="778" type="curve"/>
      <point x="222" y="778" type="line"/>
      <point x="222" y="778"/>
      <point x="278" y="833"/>
      <point x="278" y="833" type="curve"/>
    </contour>
  </outline>
</glyph>
<glyph name="endash" format="1">
  <advance width="777.7777777777778"/>
  <unicode hex="2013"/>
  <outline>
    <contour>
      <point x="222" y="222" type="line"/>
      <point x="111" y="222" type="line"/>
      <point x="111" y="284"/>
      <point x="160" y="333"/>
      <point x="222" y="333" type="curve"/>
    </contour>
    <contour>
      <point x="222" y="278" type="curve" smooth="yes"/>
      <point x="222" y="309"/>
      <point x="247" y="333"/>
      <point x="278" y="333" type="curve" smooth="yes"/>
      <point x="309" y="333"/>
      <point x="333" y="309"/>
      <point x="333" y="278" type="curve" smooth="yes"/>
      <point x="333" y="247"/>
      <point x="309" y="222"/>
      <point x="278" y="222" type="curve" smooth="yes"/>
      <point x="247" y="222"/>
      <point x="222" y="247"/>
    </contour>
    <contour>
      <point x="444" y="222" type="line"/>
      <point x="333" y="222" type="line"/>
      <point x="333" y="284"/>
      <point x="382" y="333"/>
      <point x="444" y="333" type="curve"/>
    </contour>
    <contour>
      <point x="444" y="278" type="curve" smooth="yes"/>
      <point x="444" y="309"/>
      <point x="469" y="333"/>
      <point x="500" y="333" type="curve" smooth="yes"/>
      <point x="531" y="333"/>
      <point x="556" y="309"/>
      <point x="556" y="278" type="curve" smooth="yes"/>
      <point x="556" y="247"/>
      <point x="531" y="222"/>
      <point x="500" y="222" type="curve" smooth="yes"/>
      <point x="469" y="222"/>
      <point x="444" y="247"/>
    </contour>
    <contour>
      <point x="556" y="278" type="line"/>
      <point x="556" y="278"/>
      <point x="611" y="333"/>
      <point x="611" y="333" type="curve"/>
      <point x="611" y="333"/>
      <point x="667" y="278"/>
      <point x="667" y="278" type="curve"/>
      <point x="611" y="278" type="line"/>
      <point x="611" y="278"/>
      <point x="667" y="222"/>
      <point x="667" y="222" type="curve"/>
      <point x="556" y="222" type="line"/>
      <point x="556" y="222"/>
      <point x="611" y="278"/>
      <point x="611" y="278" type="curve"/>
    </contour>
  </outline>
</glyph>
<glyph name="emdash" format="1">
  <advance width="1000.0"/>
  <unicode hex="2014"/>
  <outline>
    <contour>
      <point x="111" y="278" type="line"/>
      <point x="111" y="309"/>
      <point x="136" y="333"/>
      <point x="167" y="333" type="curve" smooth="yes"/>
      <point x="198" y="333"/>
      <point x="222" y="309"/>
      <point x="222" y="278" type="curve"/>
      <point x="167" y="278" type="line"/>
      <point x="198" y="278"/>
      <point x="222" y="253"/>
      <point x="222" y="222" type="curve"/>
      <point x="111" y="222" type="line"/>
      <point x="111" y="253"/>
      <point x="136" y="278"/>
      <point x="167" y="278" type="curve"/>
    </contour>
    <contour>
      <point x="333" y="222" type="line"/>
      <point x="222" y="222" type="line"/>
      <point x="222" y="284"/>
      <point x="271" y="333"/>
      <point x="333" y="333" type="curve"/>
    </contour>
    <contour>
      <point x="333" y="222" type="line"/>
      <point x="333" y="333" type="line"/>
      <point x="444" y="333" type="line"/>
      <point x="444" y="222" type="line"/>
    </contour>
    <contour>
      <point x="444" y="278" type="curve" smooth="yes"/>
      <point x="444" y="309"/>
      <point x="469" y="333"/>
      <point x="500" y="333" type="curve" smooth="yes"/>
      <point x="531" y="333"/>
      <point x="556" y="309"/>
      <point x="556" y="278" type="curve" smooth="yes"/>
      <point x="556" y="247"/>
      <point x="531" y="222"/>
      <point x="500" y="222" type="curve" smooth="yes"/>
      <point x="469" y="222"/>
      <point x="444" y="247"/>
    </contour>
    <contour>
      <point x="556" y="278" type="line"/>
      <point x="556" y="278"/>
      <point x="611" y="333"/>
      <point x="611" y="333" type="curve"/>
      <point x="611" y="333"/>
      <point x="667" y="278"/>
      <point x="667" y="278" type="curve"/>
      <point x="611" y="278" type="line"/>
      <point x="611" y="278"/>
      <point x="667" y="222"/>
      <point x="667" y="222" type="curve"/>
      <point x="556" y="222" type="line"/>
      <point x="556" y="222"/>
      <point x="611" y="278"/>
      <point x="611" y="278" type="curve"/>
    </contour>
    <contour>
      <point x="667" y="278" type="line"/>
      <point x="667" y="278"/>
      <point x="722" y="333"/>
      <point x="722" y="333" type="curve"/>
      <point x="722" y="333"/>
      <point x="778" y="278"/>
      <point x="778" y="278" type="curve"/>
      <point x="722" y="278" type="line"/>
      <point x="722" y="278"/>
      <point x="778" y="222"/>
      <point x="778" y="222" type="curve"/>
      <point x="667" y="222" type="line"/>
      <point x="667" y="222"/>
      <point x="722" y="278"/>
      <point x="722" y="278" type="curve"/>
    </contour>
    <contour>
      <point x="889" y="222" type="line"/>
      <point x="778" y="222" type="line"/>
      <point x="778" y="284"/>
      <point x="827" y="333"/>
      <point x="889" y="333" type="curve"/>
    </contour>
  </outline>
</glyph>
<glyph name="quoteleft" format="1">
  <advance width="444.44444444444446"/>
  <unicode hex="2018"/>
  <outline>
    <contour>
      <point x="111" y="444" type="line"/>
      <point x="111" y="556" type="line"/>
      <point x="222" y="556" type="line"/>
      <point x="222" y="444" type="line"/>
    </contour>
    <contour>
      <point x="222" y="444" type="line"/>
      <point x="222" y="556" type="line"/>
      <point x="333" y="556" type="line"/>
      <point x="333" y="444" type="line"/>
    </contour>
    <contour>
      <point x="111" y="611" type="curve" smooth="yes"/>
      <point x="111" y="642"/>
      <point x="136" y="667"/>
      <point x="167" y="667" type="curve" smooth="yes"/>
      <point x="198" y="667"/>
      <point x="222" y="642"/>
      <point x="222" y="611" type="curve" smooth="yes"/>
      <point x="222" y="580"/>
      <point x="198" y="556"/>
      <point x="167" y="556" type="curve" smooth="yes"/>
      <point x="136" y="556"/>
      <point x="111" y="580"/>
    </contour>
    <contour>
      <point x="222" y="667" type="line"/>
      <point x="222" y="778" type="line"/>
      <point x="333" y="778" type="line"/>
      <point x="333" y="667" type="line"/>
    </contour>
  </outline>
</glyph>
<glyph name="arrowleft" format="1">
  <advance width="777.7777777777778"/>
  <unicode hex="2190"/>
  <outline>
    <contour>
      <point x="333" y="0" type="line"/>
      <point x="333" y="111" type="line"/>
      <point x="444" y="111" type="line"/>
      <point x="444" y="0" type="line"/>
    </contour>
    <contour>
      <point x="222" y="167" type="line"/>
      <point x="222" y="198"/>
      <point x="247" y="222"/>
      <point x="278" y="222" type="curve" smooth="yes"/>
      <point x="309" y="222"/>
      <point x="333" y="198"/>
      <point x="333" y="167" type="curve"/>
      <point x="278" y="167" type="line"/>
      <point x="309" y="167"/>
      <point x="333" y="142"/>
      <point x="333" y="111" type="curve"/>
      <point x="222" y="111" type="line"/>
      <point x="222" y="142"/>
      <point x="247" y="167"/>
      <point x="278" y="167" type="curve"/>
    </contour>
    <contour>
      <point x="222" y="222" type="line"/>
      <point x="111" y="222" type="line"/>
      <point x="111" y="284"/>
      <point x="160" y="333"/>
      <point x="222" y="333" type="curve"/>
    </contour>
    <contour>
      <point x="333" y="222" type="line"/>
      <point x="222" y="222" type="line"/>
      <point x="222" y="284"/>
      <point x="271" y="333"/>
      <point x="333" y="333" type="curve"/>
    </contour>
    <contour>
      <point x="333" y="278" type="line"/>
      <point x="333" y="309"/>
      <point x="358" y="333"/>
      <point x="389" y="333" type="curve" smooth="yes"/>
      <point x="420" y="333"/>
      <point x="444" y="309"/>
      <point x="444" y="278" type="curve"/>
      <point x="389" y="278" type="line"/>
      <point x="420" y="278"/>
      <point x="444" y="253"/>
      <point x="444" y="222" type="curve"/>
      <point x="333" y="222" type="line"/>
      <point x="333" y="253"/>
      <point x="358" y="278"/>
      <point x="389" y="278" type="curve"/>
    </contour>
    <contour>
      <point x="444" y="278" type="curve" smooth="yes"/>
      <point x="444" y="309"/>
      <point x="469" y="333"/>
      <point x="500" y="333" type="curve" smooth="yes"/>
      <point x="531" y="333"/>
      <point x="556" y="309"/>
      <point x="556" y="278" type="curve" smooth="yes"/>
      <point x="556" y="247"/>
      <point x="531" y="222"/>
      <point x="500" y="222" type="curve" smooth="yes"/>
      <point x="469" y="222"/>
      <point x="444" y="247"/>
    </contour>
    <contour>
      <point x="556" y="278" type="curve" smooth="yes"/>
      <point x="556" y="309"/>
      <point x="580" y="333"/>
      <point x="611" y="333" type="curve" smooth="yes"/>
      <point x="642" y="333"/>
      <point x="667" y="309"/>
      <point x="667" y="278" type="curve" smooth="yes"/>
      <point x="667" y="247"/>
      <point x="642" y="222"/>
      <point x="611" y="222" type="curve" smooth="yes"/>
      <point x="580" y="222"/>
      <point x="556" y="247"/>
    </contour>
    <contour>
      <point x="222" y="389" type="line"/>
      <point x="222" y="389"/>
      <point x="278" y="444"/>
      <point x="278" y="444" type="curve"/>
      <point x="278" y="444"/>
      <point x="333" y="389"/>
      <point x="333" y="389" type="curve"/>
      <point x="278" y="389" type="line"/>
      <point x="278" y="389"/>
      <point x="333" y="333"/>
      <point x="333" y="333" type="curve"/>
      <point x="222" y="333" type="line"/>
      <point x="222" y="333"/>
      <point x="278" y="389"/>
      <point x="278" y="389" type="curve"/>
    </contour>
    <contour>
      <point x="333" y="500" type="curve" smooth="yes"/>
      <point x="333" y="531"/>
      <point x="358" y="556"/>
      <point x="389" y="556" type="curve" smooth="yes"/>
      <point x="420" y="556"/>
      <point x="444" y="531"/>
      <point x="444" y="500" type="curve" smooth="yes"/>
      <point x="444" y="469"/>
      <point x="420" y="444"/>
      <point x="389" y="444" type="curve" smooth="yes"/>
      <point x="358" y="444"/>
      <point x="333" y="469"/>
    </contour>
  </outline>
</glyph>
<glyph name="arrowup" format="1">
  <advance width="777.7777777777778"/>
  <unicode hex="2191"/>
  <outline>
    <contour>
      <point x="333" y="0" type="line"/>
      <point x="333" y="111" type="line"/>
      <point x="444" y="111" type="line"/>
      <point x="444" y="0" type="line"/>
    </contour>
    <contour>
      <point x="333" y="167" type="line"/>
      <point x="333" y="198"/>
      <point x="358" y="222"/>
      <point x="389" y="222" type="curve" smooth="yes"/>
      <point x="420" y="222"/>
      <point x="444" y="198"/>
      <point x="444" y="167" type="curve"/>
      <point x="389" y="167" type="line"/>
      <point x="420" y="167"/>
      <point x="444" y="142"/>
      <point x="444" y="111" type="curve"/>
      <point x="333" y="111" type="line"/>
      <point x="333" y="142"/>
      <point x="358" y="167"/>
      <point x="389" y="167" type="curve"/>
    </contour>
    <contour>
      <point x="111" y="278" type="line"/>
      <point x="111" y="278"/>
      <point x="167" y="333"/>
      <point x="167" y="333" type="curve"/>
      <point x="167" y="333"/>
      <point x="222" y="278"/>
      <point x="222" y="278" type="curve"/>
      <point x="167" y="278" type="line"/>
      <point x="167" y="278"/>
      <point x="222" y="222"/>
      <point x="222" y="222" type="curve"/>
      <point x="111" y="222" type="line"/>
      <point x="111" y="222"/>
      <point x="167" y="278"/>
      <point x="167" y="278" type="curve"/>
    </contour>
    <contour>
      <point x="333" y="278" type="line"/>
      <point x="333" y="278"/>
      <point x="389" y="333"/>
      <point x="389" y="333" type="curve"/>
      <point x="389" y="333"/>
      <point x="444" y="278"/>
      <point x="444" y="278" type="curve"/>
      <point x="389" y="278" type="line"/>
      <point x="389" y="278"/>
      <point x="444" y="222"/>
      <point x="444" y="222" type="curve"/>
      <point x="333" y="222" type="line"/>
      <point x="333" y="222"/>
      <point x="389" y="278"/>
      <point x="389" y="278" type="curve"/>
    </contour>
    <contour>
      <point x="556" y="278" type="curve" smooth="yes"/>
      <point x="556" y="309"/>
      <point x="580" y="333"/>
      <point x="611" y="333" type="curve" smooth="yes"/>
      <point x="642" y="333"/>
      <point x="667" y="309"/>
      <point x="667" y="278" type="curve" smooth="yes"/>
      <point x="667" y="247"/>
      <point x="642" y="222"/>
      <point x="611" y="222" type="curve" smooth="yes"/>
      <point x="580" y="222"/>
      <point x="556" y="247"/>
    </contour>
    <contour>
      <point x="222" y="333" type="line"/>
      <point x="222" y="444" type="line"/>
      <point x="333" y="444" type="line"/>
      <point x="333" y="333" type="line"/>
    </contour>
    <contour>
      <point x="333" y="389" type="line"/>
      <point x="333" y="389"/>
      <point x="389" y="444"/>
      <point x="389" y="444" type="curve"/>
      <point x="389" y="444"/>
      <point x="444" y="389"/>
      <point x="444" y="389" type="curve"/>
      <point x="389" y="389" type="line"/>
      <point x="389" y="389"/>
      <point x="444" y="333"/>
      <point x="444" y="333" type="curve"/>
      <point x="333" y="333" type="line"/>
      <point x="333" y="333"/>
      <point x="389" y="389"/>
      <point x="389" y="389" type="curve"/>
    </contour>
    <contour>
      <point x="444" y="389" type="line"/>
      <point x="444" y="389"/>
      <point x="500" y="444"/>
      <point x="500" y="444" type="curve"/>
      <point x="500" y="444"/>
      <point x="556" y="389"/>
      <point x="556" y="389" type="curve"/>
      <point x="500" y="389" type="line"/>
      <point x="500" y="389"/>
      <point x="556" y="333"/>
      <point x="556" y="333" type="curve"/>
      <point x="444" y="333" type="line"/>
      <point x="444" y="333"/>
      <point x="500" y="389"/>
      <point x="500" y="389" type="curve"/>
    </contour>
    <contour>
      <point x="333" y="500" type="line"/>
      <point x="333" y="500"/>
      <point x="389" y="556"/>
      <point x="389" y="556" type="curve"/>
      <point x="389" y="556"/>
      <point x="444" y="500"/>
      <point x="444" y="500" type="curve"/>
      <point x="389" y="500" type="line"/>
      <point x="389" y="500"/>
      <point x="444" y="444"/>
      <point x="444" y="444" type="curve"/>
      <point x="333" y="444" type="line"/>
      <point x="333" y="444"/>
      <point x="389" y="500"/>
      <point x="389" y="500" type="curve"/>
    </contour>
  </outline>
</glyph>
